<?xml version="1.0" standalone="no"?>
<!DOCTYPE svg PUBLIC "-//W3C//DTD SVG 1.1//EN" "http://www.w3.org/Graphics/SVG/1.1/DTD/svg11.dtd" >
<svg xmlns="http://www.w3.org/2000/svg">
<metadata>
Created by FontPrep 20130207 at Tue Mar 10 13:13:34 2015
 By Joseba Alonso
Digitized data copyright (c) 2010-2011, Google Corporation.
</metadata>
<defs>
<font id="94c33cdd8f8847f3444990ab6c6e6a61" horiz-adv-x='1024' >
  <font-face 
    font-family="OpenSans-Italic"
    font-weight="400"
    font-style="italic"
    font-stretch="normal"
    units-per-em="2048"
    panose-1="2 11 6 6 3 5 4 2 2 4"
    ascent="1638"
    descent="-410"
    x-height="1096"
    cap-height="1462"
    bbox="-1020 -549 2521 2146"
    underline-thickness="102"
    underline-position="-103"
    slope="-12"
    unicode-range="U+0020-FFFD"
  />
<missing-glyph horiz-adv-x="1229" 
d="M297 104h633v1254h-633v-1254zM193 1462h841v-1462h-841v1462z" />
    <glyph glyph-name="ff" unicode="ff" horiz-adv-x="1292" 
d="M545 -492q-71 0 -125 21v141q61 -22 122 -22q123 0 173 239l227 1082h-481l-232 -1098q-39 -189 -120 -276t-213 -87q-69 0 -125 21v141q64 -22 123 -22q123 0 172 239l227 1082h-193l13 67l206 66l23 100q46 200 127.5 282.5t241.5 82.5q40 0 98 -11.5t90 -25.5
l-43 -129q-76 29 -150 29t-120.5 -48.5t-75.5 -177.5l-25 -108h482l24 108q45 197 126 280t243 83q101 0 190 -37l-45 -129q-76 29 -151 29t-121 -51t-74 -175l-24 -108h239l-26 -127h-238l-231 -1098q-43 -195 -123.5 -279t-210.5 -84z" />
    <glyph glyph-name="uniFB01" unicode="fi" horiz-adv-x="1165" 
d="M-104 -492q-69 0 -125 21v141q64 -22 112 -22q76 0 117 62t66 177l227 1082h-193l13 67l206 66l23 100q46 200 128 282t241 83q40 1 98 -11t90 -26l-43 -129q-76 29 -150 29t-120 -48t-76 -178l-25 -108h238l-25 -127h-237l-232 -1098q-39 -189 -120 -276t-213 -87z
M983 1382q0 50 32 86t83 35q88 0 88 -90q0 -55 -34 -93t-75 -38q-42 0 -68 24q-26 26 -26 76zM870 0h-168l234 1096h168z" />
    <glyph glyph-name="uniFB02" unicode="fl" horiz-adv-x="1165" 
d="M-104 -492q-69 0 -125 21v141q64 -22 112 -22q76 0 117 62t66 177l227 1082h-193l13 67l206 66l23 100q46 200 128 282t241 83q40 1 98 -11t90 -26l-43 -129q-76 29 -150 29t-120 -48t-76 -178l-25 -108h238l-25 -127h-237l-232 -1098q-39 -189 -120 -276t-213 -87z
M868 0h-168l332 1556h168z" />
    <glyph glyph-name="uniFB03" unicode="ffi" horiz-adv-x="1815" 
d="M1634 1380q0 50 32 86.5t83 36.5q88 0 88 -90q0 -55 -33.5 -93t-74.5 -38t-68 24t-27 74zM1522 0h-168l233 1096h168zM545 -492q-71 0 -125 21v141q61 -22 122 -22q123 0 173 239l227 1082h-481l-232 -1098q-39 -189 -120 -276t-213 -87q-69 0 -125 21v141
q64 -22 123 -22q123 0 172 239l227 1082h-193l13 67l206 66l23 100q46 200 127.5 282.5t241.5 82.5q40 0 98 -11.5t90 -25.5l-43 -129q-76 29 -150 29t-120.5 -48.5t-75.5 -177.5l-25 -108h482l24 108q45 197 126 280t243 83q101 0 190 -37l-45 -129q-76 29 -151 29
t-121 -51t-74 -175l-24 -108h239l-26 -127h-238l-231 -1098q-43 -195 -123.5 -279t-210.5 -84z" />
    <glyph glyph-name="uniFB04" unicode="ffl" horiz-adv-x="1815" 
d="M545 -492q-71 0 -125 21v141q61 -22 122 -22q123 0 173 239l227 1082h-481l-232 -1098q-39 -189 -120 -276t-213 -87q-69 0 -125 21v141q64 -22 123 -22q123 0 172 239l227 1082h-193l13 67l206 66l23 100q46 200 127.5 282.5t241.5 82.5q40 0 98 -11.5t90 -25.5
l-43 -129q-76 29 -150 29t-120.5 -48.5t-75.5 -177.5l-25 -108h482l24 108q45 197 126 280t243 83q101 0 190 -37l-45 -129q-76 29 -151 29t-121 -51t-74 -175l-24 -108h239l-26 -127h-238l-231 -1098q-43 -195 -123.5 -279t-210.5 -84zM1520 0h-168l331 1556h168z" />
    <glyph glyph-name=".notdef" horiz-adv-x="1229" 
d="M297 104h633v1254h-633v-1254zM193 1462h841v-1462h-841v1462z" />
    <glyph glyph-name=".null" horiz-adv-x="0" 
 />
    <glyph glyph-name="nonmarkingreturn" horiz-adv-x="1044" 
 />
    <glyph glyph-name="space" unicode=" " horiz-adv-x="532" 
 />
    <glyph glyph-name="exclam" unicode="!" horiz-adv-x="530" 
d="M147 -29q-104 -1 -104 119q0 64 39.5 108t95.5 44q112 0 113 -109q0 -68 -39 -115t-105 -47zM555 1462l-274 -1059h-109q49 307 176 1059h207z" />
    <glyph glyph-name="quotedbl" unicode="&#x22;" horiz-adv-x="791" 
d="M834 1462l-154 -528h-107l72 528h189zM485 1462l-153 -528h-107l72 528h188z" />
    <glyph glyph-name="numbersign" unicode="#" horiz-adv-x="1323" 
d="M500 559h303l96 340h-303zM1036 899l-98 -340h285l-13 -129h-309l-125 -430h-139l129 430h-303l-127 -430h-133l121 430h-261l13 129h284l101 340h-277l13 127h301l123 436h139l-125 -436h305l127 436h133l-125 -436h264l-12 -127h-291z" />
    <glyph glyph-name="dollar" unicode="$" horiz-adv-x="1128" 
d="M401 1010q0 -117 142 -168l84 393q-108 -11 -167 -69t-59 -156zM782 479q0 112 -147 170l-86 -399q107 13 170 75t63 154zM942 492q0 -162 -112.5 -263t-309.5 -123l-49 -225h-133l49 223q-195 14 -315 72v154q172 -86 342 -86l98 452q-139 49 -201.5 123.5t-62.5 188.5
q0 159 108 255t299 113l39 176h133l-39 -178q159 -12 283 -76l-63 -135q-121 63 -248 72l-94 -440q149 -55 212.5 -125t63.5 -178z" />
    <glyph glyph-name="percent" unicode="%" horiz-adv-x="1624" 
d="M791 1218q0 -120 -32 -249.5t-110.5 -266.5t-249.5 -137q-109 0 -170 74.5t-61 230.5t75.5 384.5t311.5 228.5q116 0 176 -72.5t60 -192.5zM543 1358q-66 0 -119 -63t-85 -187.5t-32 -243.5q0 -172 105 -172t153 114t67 214.5t19 171.5q0 166 -108 166zM1532 634
q0 -120 -31.5 -249t-110 -267t-249.5 -138q-110 0 -171 74t-61 230t75.5 384.5t311.5 228.5q116 0 176 -71.5t60 -191.5zM1284 772q-67 0 -119.5 -64.5t-84 -188.5t-31.5 -240q0 -173 106 -173q135 0 186.5 198.5t51.5 301.5q0 166 -109 166zM1468 1462l-1085 -1462h-152
l1086 1462h151z" />
    <glyph glyph-name="ampersand" unicode="&#x26;" horiz-adv-x="1372" 
d="M66 331q0 159 90 268.5t303 211.5q-103 165 -103 319t106 254.5t268 100.5t249.5 -79t87.5 -212q0 -195 -160 -285.5t-241 -132.5l278 -389q127 110 199 295h168q-101 -236 -283 -412l203 -270h-201l-117 166q-120 -100 -230.5 -143t-262.5 -43t-253 96t-101 255z
M460 119q98 0 179 33t195 124l-306 433q-128 -67 -213.5 -142t-85.5 -213q0 -106 66.5 -170.5t164.5 -64.5zM725 1348q-93 0 -151 -60t-58 -175t82 -230q139 71 222 133t83 166q0 77 -42.5 121.5t-135.5 44.5z" />
    <glyph glyph-name="quotesingle" unicode="'" horiz-adv-x="444" 
d="M485 1462l-153 -528h-107l72 528h188z" />
    <glyph glyph-name="parenleft" unicode="(" horiz-adv-x="584" 
d="M246 274q0 -339 114 -598h-131q-147 266 -147 600t120 622.5t384 563.5h157q-497 -545 -497 -1188z" />
    <glyph glyph-name="parenright" unicode=")" horiz-adv-x="584" 
d="M500 858q0 -335 -121.5 -623.5t-382.5 -558.5h-156q496 551 496 1188q0 341 -113 598h131q146 -269 146 -604z" />
    <glyph glyph-name="asterisk" unicode="*" horiz-adv-x="1130" 
d="M854 1528l-123 -383l422 18l-8 -157l-393 47l180 -383l-166 -52l-113 406l-258 -344l-116 121l309 284l-373 109l55 154l371 -185l41 400z" />
    <glyph glyph-name="plus" unicode="+" horiz-adv-x="1128" 
d="M516 651h-389v142h389v391h141v-391h390v-142h-390v-387h-141v387z" />
    <glyph glyph-name="comma" unicode="," horiz-adv-x="492" 
d="M291 238l8 -23q-113 -235 -270 -479h-129q126 286 204 502h187z" />
    <glyph glyph-name="hyphen" unicode="-" horiz-adv-x="639" 
d="M55 469l35 158h479l-34 -158h-480z" />
    <glyph glyph-name="period" unicode="." horiz-adv-x="518" 
d="M143 -29q-100 0 -100 116q0 64 40.5 109.5t97.5 45.5q110 0 110 -105q0 -71 -40 -118.5t-108 -47.5z" />
    <glyph glyph-name="slash" unicode="/" horiz-adv-x="717" 
d="M893 1462l-813 -1462h-174l813 1462h174z" />
    <glyph glyph-name="zero" unicode="0" horiz-adv-x="1128" 
d="M717 1341q-113 0 -209 -115.5t-155.5 -323t-59.5 -401.5t50 -286t163 -92t207 114t150.5 328t56.5 453q0 323 -203 323zM1092 1014q0 -295 -78.5 -539t-214 -369.5t-313.5 -125.5t-271.5 127.5t-93.5 383.5t82 500.5t216.5 369t307.5 124.5q365 0 365 -471z" />
    <glyph glyph-name="one" unicode="1" horiz-adv-x="1128" 
d="M588 0h-172l196 913q59 261 88 359q-50 -53 -139 -111l-178 -110l-80 127l449 284h149z" />
    <glyph glyph-name="two" unicode="2" horiz-adv-x="1128" 
d="M680 1339q-149 0 -313 -125l-82 115q191 154 413 154q176 0 278.5 -88.5t102.5 -243.5q0 -111 -39.5 -204t-131 -197t-294.5 -281l-352 -307v-8h678l-29 -154h-899l31 147l465 420q102 93 176.5 163.5t146.5 163.5t72 230q0 99 -60 157t-163 58z" />
    <glyph glyph-name="three" unicode="3" horiz-adv-x="1128" 
d="M686 1341q-154 0 -332 -120l-80 118q195 144 424 144q179 0 277 -87t98 -240t-101 -261.5t-280 -140.5v-9q124 -23 195 -106.5t71 -212.5t-62 -230.5t-181 -158.5t-306 -57t-362 79v164q196 -102 373 -102q178 0 268 79.5t90 213.5t-79 202t-220 68h-131l31 143h139
q165 0 274 87t109 227q0 92 -58 146t-157 54z" />
    <glyph glyph-name="four" unicode="4" horiz-adv-x="1128" 
d="M705 487q46 220 78 373t116 445h-8q-40 -68 -139 -193l-533 -625h486zM1067 334h-233l-72 -334h-164l74 334h-656l29 158l834 978h196l-207 -983h232z" />
    <glyph glyph-name="five" unicode="5" horiz-adv-x="1128" 
d="M558 758q-114 0 -253 -37l-74 57l197 684h668l-33 -153h-522l-127 -439q87 23 184 23q182 0 289.5 -104.5t107.5 -274.5t-109 -352t-476 -182q-193 0 -330 79v164q164 -102 344 -102t287.5 96t107.5 268q0 126 -73.5 199.5t-187.5 73.5z" />
    <glyph glyph-name="six" unicode="6" horiz-adv-x="1128" 
d="M523 121q103 0 176.5 54t114 149t40.5 208q0 248 -221 248q-132 0 -209 -76t-101 -133t-24 -175t60.5 -196.5t163.5 -78.5zM133 422q0 212 60.5 417.5t215.5 424.5t521 219q111 0 184 -23l-35 -145q-68 22 -170 22q-212 0 -356.5 -149t-212.5 -443h8q59 79 146.5 126
t193.5 47q154 0 244 -99t90 -265t-66.5 -299.5t-181 -204t-278.5 -70.5t-263.5 115t-99.5 327z" />
    <glyph glyph-name="seven" unicode="7" horiz-adv-x="1128" 
d="M174 0l768 1313h-719l31 149h891l-27 -139l-764 -1323h-180z" />
    <glyph glyph-name="eight" unicode="8" horiz-adv-x="1128" 
d="M720 1341q-105 0 -173 -65.5t-68 -161.5t39 -158t127 -116q161 60 228 131.5t67 167.5t-57.5 149t-162.5 53zM270 360q0 -113 69 -176t195 -63t208.5 74.5t82.5 184.5t-52 185t-165 135q-185 -60 -261.5 -143.5t-76.5 -196.5zM741 1485q174 0 271.5 -86.5t97.5 -225.5
t-78 -235t-266 -176q127 -78 180 -165t53 -205t-60 -214t-172.5 -147t-283.5 -51t-279 99t-108 257t95 266t296 184q-95 69 -135.5 144.5t-40.5 179.5t54.5 191t153.5 135.5t222 48.5z" />
    <glyph glyph-name="nine" unicode="9" horiz-adv-x="1128" 
d="M350 938q0 -256 217 -256q156 0 245 106t89 253t-59 223.5t-160 76.5q-150 0 -241 -113t-91 -290zM1067 1047q0 -207 -56 -419.5t-191 -430t-480 -217.5q-136 0 -242 34v158q134 -47 246 -47q202 0 327 141t189 441h-10q-51 -75 -132.5 -118.5t-180.5 -43.5
q-169 0 -261 98.5t-92 270.5t64.5 299t180 198.5t259.5 71.5q180 0 279.5 -114.5t99.5 -321.5z" />
    <glyph glyph-name="colon" unicode=":" horiz-adv-x="518" 
d="M303 854q-100 0 -100 116q0 63 40 108.5t111 45.5q97 0 97 -104q0 -73 -41.5 -119.5t-106.5 -46.5zM143 -29q-100 0 -100 116q0 64 40.5 109.5t97.5 45.5q110 0 110 -105q0 -71 -40 -118.5t-108 -47.5z" />
    <glyph glyph-name="semicolon" unicode=";" horiz-adv-x="518" 
d="M303 854q-100 0 -100 116q0 63 40 108.5t111 45.5q97 0 97 -104q0 -73 -41.5 -119.5t-106.5 -46.5zM291 238l8 -23q-113 -235 -270 -479h-129q126 286 204 502h187z" />
    <glyph glyph-name="less" unicode="&#x3c;" horiz-adv-x="1128" 
d="M1040 242l-919 422v98l919 479v-149l-747 -371l747 -328v-151z" />
    <glyph glyph-name="equal" unicode="=" horiz-adv-x="1128" 
d="M127 444v142h920v-142h-920zM127 858v139h920v-139h-920z" />
    <glyph glyph-name="greater" unicode="&#x3e;" horiz-adv-x="1128" 
d="M121 393l745 328l-745 371v149l919 -479v-98l-919 -422v151z" />
    <glyph glyph-name="question" unicode="?" horiz-adv-x="874" 
d="M258 -29q-100 0 -100 116q0 64 40 109.5t98 45.5q110 0 110 -105q0 -73 -41.5 -119.5t-106.5 -46.5zM752 1132q0 203 -211 203q-108 0 -283 -82l-61 129q182 101 362 101q179 0 271 -84.5t92 -222.5t-66 -241t-208 -209t-186 -162.5t-67 -160.5h-135q22 130 72 213.5
t172 179.5t185 165t63 171z" />
    <glyph glyph-name="at" unicode="@" horiz-adv-x="1735" 
d="M639 518q0 -176 131 -176q187 0 272 315l70 258q-63 23 -142 23t-159 -55t-126 -153t-46 -212zM1679 853q0 -180 -55 -325t-155 -227t-222 -82q-197 0 -213 184h-8q-111 -184 -291 -184q-115 0 -180.5 75.5t-65.5 221.5t68 272.5t188.5 198.5t256.5 72t282 -60
q-64 -242 -98 -368t-31 -172q0 -117 102 -117q78 0 141.5 67t100.5 183.5t37 243.5q0 239 -128 367t-363 128t-413.5 -107t-277 -295.5t-98.5 -437.5t143.5 -397.5t409.5 -148.5q197 0 420 86v-127q-219 -90 -443 -90q-314 0 -494.5 184.5t-180.5 505.5q0 261 126.5 485.5
t343.5 347.5t486 123q191 0 329 -75.5t210.5 -213.5t72.5 -318z" />
    <glyph glyph-name="A" unicode="A" horiz-adv-x="1137" 
d="M795 621l-35 299q-24 179 -29 350q-37 -88 -80.5 -175t-249.5 -474h394zM813 465h-496l-245 -465h-189l799 1462h174l184 -1462h-170z" />
    <glyph glyph-name="B" unicode="B" horiz-adv-x="1225" 
d="M553 145q181 0 278 80.5t97 212.5q0 254 -289 254h-236l-116 -547h266zM682 836q156 0 249 73t93 188t-66.5 166.5t-209.5 51.5h-211l-103 -479h248zM770 1462q432 0 432 -336q0 -141 -87 -238t-245 -126v-10q115 -32 176.5 -110.5t61.5 -188.5q0 -212 -152 -332.5
t-407 -120.5h-463l309 1462h375z" />
    <glyph glyph-name="C" unicode="C" horiz-adv-x="1198" 
d="M150 538q0 260 105.5 484.5t283.5 342.5t389 118t362 -80l-69 -141q-137 69 -295 69t-295.5 -97t-218 -284.5t-80.5 -391.5t97.5 -315.5t252.5 -111.5t338 57v-149q-164 -59 -352 -59q-242 0 -380 149t-138 409z" />
    <glyph glyph-name="D" unicode="D" horiz-adv-x="1364" 
d="M449 147q202 0 355 91.5t234.5 258.5t81.5 382t-103 325.5t-302 110.5h-178l-250 -1168h162zM1300 890q0 -274 -105 -474t-300 -308t-457 -108h-352l309 1462h342q276 0 419.5 -149t143.5 -423z" />
    <glyph glyph-name="E" unicode="E" horiz-adv-x="1047" 
d="M821 0h-735l309 1462h735l-32 -153h-566l-98 -469h527l-29 -152h-529l-114 -536h565z" />
    <glyph glyph-name="F" unicode="F" horiz-adv-x="967" 
d="M258 0h-172l309 1462h735l-30 -153h-568l-110 -533h528l-32 -153h-529z" />
    <glyph glyph-name="G" unicode="G" horiz-adv-x="1386" 
d="M332 556q0 -208 102.5 -316.5t271.5 -108.5t275 39l96 444h-289l33 152h459l-154 -711q-216 -75 -419 -75q-264 0 -410.5 144.5t-146.5 408.5t101.5 484.5t281.5 343t403 122.5t422 -84l-66 -152q-190 84 -360 84q-169 0 -307.5 -101.5t-215.5 -283.5t-77 -390z" />
    <glyph glyph-name="H" unicode="H" horiz-adv-x="1389" 
d="M1085 0h-167l143 688h-660l-145 -688h-170l309 1462h170l-131 -622h660l133 622h168z" />
    <glyph glyph-name="I" unicode="I" horiz-adv-x="559" 
d="M86 0l311 1462h168l-311 -1462h-168z" />
    <glyph glyph-name="J" unicode="J" horiz-adv-x="547" 
d="M-166 -385q-105 0 -153 25l6 147q69 -20 157 -20t153.5 62.5t90.5 182.5l307 1450h170l-309 -1468q-79 -379 -422 -379z" />
    <glyph glyph-name="K" unicode="K" horiz-adv-x="1141" 
d="M1034 0h-186q-72 181 -146.5 359.5t-146.5 361.5l-174 -131l-125 -590h-170l309 1462h170l-151 -710l700 710h209l-639 -637z" />
    <glyph glyph-name="L" unicode="L" horiz-adv-x="971" 
d="M86 0l309 1462h170l-276 -1308h565l-33 -154h-735z" />
    <glyph glyph-name="M" unicode="M" horiz-adv-x="1714" 
d="M676 0l-166 1296h-8q-16 -167 -66 -397l-190 -899h-162l309 1462h244l149 -1204h9l659 1204h266l-303 -1462h-174q126 590 193 905.5t94 392.5h-6l-717 -1298h-131z" />
    <glyph glyph-name="N" unicode="N" horiz-adv-x="1438" 
d="M1139 0h-181l-460 1223h-6q-32 -221 -74 -418l-172 -805h-162l309 1462h180l459 -1220h6q30 224 72 405l174 815h164z" />
    <glyph glyph-name="O" unicode="O" horiz-adv-x="1475" 
d="M879 1333q-162 0 -286 -101t-192.5 -281.5t-68.5 -388.5t98 -319.5t258 -111.5t280.5 97.5t190.5 279.5t70 392t-94 321.5t-256 111.5zM1411 908q0 -270 -88 -482.5t-252 -329t-379 -116.5q-256 0 -399 149.5t-143 416.5t96 485t263.5 336t394.5 118t367 -153.5
t140 -423.5z" />
    <glyph glyph-name="P" unicode="P" horiz-adv-x="1159" 
d="M543 721q216 0 328 91t112 267q0 125 -69.5 180.5t-213.5 55.5h-163l-127 -594h133zM725 1462q434 0 434 -377q0 -248 -164 -379t-481 -131h-135l-123 -575h-170l309 1462h330z" />
    <glyph glyph-name="Q" unicode="Q" horiz-adv-x="1475" 
d="M692 -20q-256 0 -399 149.5t-143 416.5t96 485t263.5 336t394.5 118t367 -154t140 -424q0 -333 -139 -576t-375 -321l274 -358h-219l-227 330l-17 -2h-16zM879 1333q-162 0 -286 -101t-192.5 -281.5t-68.5 -388.5t98 -319.5t261 -111.5t284 100t187.5 280.5t66.5 389.5
t-94 320.5t-256 111.5z" />
    <glyph glyph-name="R" unicode="R" horiz-adv-x="1165" 
d="M584 754q193 0 297 85t104 244q0 121 -67.5 175.5t-219.5 54.5h-166q-102 -494 -116 -559h168zM715 1462q446 0 446 -366q0 -348 -368 -449l239 -647h-186l-209 608h-252l-129 -608h-170l309 1462h320z" />
    <glyph glyph-name="S" unicode="S" horiz-adv-x="1028" 
d="M401 -20q-231 0 -362 63v170q162 -84 332 -84t265 75.5t95 207.5q0 78 -52.5 137.5t-199.5 142.5t-205.5 168t-58.5 201q0 187 132 304.5t335 117.5t377 -84l-66 -150q-66 38 -148 60t-151 22q-134 0 -215.5 -69.5t-81.5 -178.5t54 -159t180 -124t204 -150t78 -226
q0 -211 -140.5 -327.5t-371.5 -116.5z" />
    <glyph glyph-name="T" unicode="T" horiz-adv-x="1020" 
d="M487 0h-172l277 1311h-406l33 151h985l-30 -151h-408z" />
    <glyph glyph-name="U" unicode="U" horiz-adv-x="1384" 
d="M624 -20q-460 0 -460 403q0 81 24 201l189 878h170l-191 -891q-22 -105 -22 -205t73 -167.5t231 -67.5t254 87.5t140 289.5l205 954h170l-205 -966q-55 -263 -197.5 -389.5t-380.5 -126.5z" />
    <glyph glyph-name="V" unicode="V" horiz-adv-x="1122" 
d="M475 197h4q61 144 162 338l479 927h191l-781 -1462h-180l-162 1462h170l97 -930q20 -196 20 -335z" />
    <glyph glyph-name="W" unicode="W" horiz-adv-x="1745" 
d="M1030 1247h-6q-25 -72 -61 -154.5t-504 -1092.5h-174l-62 1462h170l31 -901l2 -88q0 -98 -10 -258h6q89 243 156 383l405 864h178l43 -860q9 -153 9 -304l-1 -83h9q75 224 131 354l387 893h182l-664 -1462h-170l-49 965q-8 136 -8 282z" />
    <glyph glyph-name="X" unicode="X" horiz-adv-x="1063" 
d="M956 0h-180l-213 641l-481 -641h-186l596 776l-263 686h172l203 -563l443 563h186l-555 -694z" />
    <glyph glyph-name="Y" unicode="Y" horiz-adv-x="1030" 
d="M537 715l489 747h193l-627 -921l-113 -541h-172l119 549l-238 913h170z" />
    <glyph glyph-name="Z" unicode="Z" horiz-adv-x="1087" 
d="M885 0h-901l28 137l924 1170h-655l32 155h858l-26 -139l-924 -1169h697z" />
    <glyph glyph-name="bracketleft" unicode="[" horiz-adv-x="586" 
d="M371 -324h-387l381 1786h387l-31 -141h-227l-318 -1503h227z" />
    <glyph glyph-name="backslash" unicode="\" horiz-adv-x="717" 
d="M375 1462l217 -1462h-154l-217 1462h154z" />
    <glyph glyph-name="bracketright" unicode="]" horiz-adv-x="586" 
d="M-119 -182h225l320 1503h-227l30 141h389l-380 -1786h-388z" />
    <glyph glyph-name="asciicircum" unicode="^" horiz-adv-x="1059" 
d="M53 553l598 920h109l266 -920h-145l-201 747l-467 -747h-160z" />
    <glyph glyph-name="underscore" unicode="_" horiz-adv-x="807" 
d="M623 -324h-811l30 140h811z" />
    <glyph glyph-name="grave" unicode="`" horiz-adv-x="1135" 
d="M903 1241h-104q-61 61 -128.5 154t-95.5 153v21h181q43 -136 147 -303v-25z" />
    <glyph glyph-name="a" unicode="a" horiz-adv-x="1157" 
d="M270 346q0 -227 185 -227q91 0 187 92.5t156 241t60 274.5t-56 187t-154 61t-187 -86t-140 -233t-51 -310zM639 1116q92 0 164 -49.5t112 -142.5h11l67 172h127l-233 -1096h-133l26 209h-8q-179 -229 -377 -229q-139 0 -218 99t-79 289t71 368t196 279t274 101z" />
    <glyph glyph-name="b" unicode="b" 
d="M731 975q-96 0 -195.5 -95t-158 -239.5t-58.5 -274.5q0 -248 216 -247q99 0 184.5 81t137.5 230.5t52 317.5q0 227 -178 227zM782 1114q141 0 220 -99t79 -290t-68.5 -368.5t-191 -277t-276.5 -99.5q-97 0 -170.5 51t-110.5 139h-10l-70 -170h-125l330 1556h168
q-51 -242 -78.5 -370.5t-75.5 -300.5h9q180 229 370 229z" />
    <glyph glyph-name="c" unicode="c" horiz-adv-x="922" 
d="M516 119q113 0 266 67v-143q-124 -63 -276 -63q-194 0 -301 107t-107 305t74 366.5t204.5 263t280.5 94.5t281 -51l-47 -141q-119 51 -225 51t-198.5 -76.5t-145 -213t-52.5 -280.5t66.5 -215t179.5 -71z" />
    <glyph glyph-name="d" unicode="d" 
d="M860 728q0 247 -210 247q-102 0 -188.5 -82.5t-139 -232t-52.5 -314.5q0 -227 179 -227q94 0 194 93.5t158.5 239t58.5 276.5zM639 1114q194 0 281 -190h10q17 155 45 274l78 358h166l-330 -1556h-139l22 209h-8q-101 -125 -189 -177t-182 -52q-139 0 -217 98t-78 292
t72 372t194.5 275t274.5 97z" />
    <glyph glyph-name="e" unicode="e" horiz-adv-x="1010" 
d="M618 973q-90 0 -180.5 -94t-138.5 -261h12q228 0 349.5 59.5t121.5 172.5q0 53 -37 88t-127 35zM518 121q125 0 299 84v-146q-94 -44 -166 -61.5t-159 -17.5q-184 0 -289 109t-105 299t74.5 363t198 269t273.5 96t227 -66.5t77 -185.5q0 -180 -166 -282.5t-475 -102.5
h-33l-4 -80q0 -131 61.5 -204.5t186.5 -73.5z" />
    <glyph glyph-name="f" unicode="f" horiz-adv-x="641" 
d="M-104 -492q-69 0 -125 21v141q64 -22 112 -22q76 0 117 62t66 177l227 1082h-193l13 67l206 66l23 100q46 200 127.5 282.5t241.5 82.5q40 0 98 -11.5t90 -25.5l-43 -129q-76 29 -150 29t-120.5 -48.5t-75.5 -177.5l-25 -108h238l-25 -127h-237l-232 -1098
q-39 -189 -120 -276t-213 -87z" />
    <glyph glyph-name="g" unicode="g" horiz-adv-x="1026" 
d="M313 680q0 -85 44.5 -129.5t124.5 -44.5t139 42t90.5 115.5t31.5 157.5t-44 127t-124 43t-138.5 -40.5t-91 -113t-32.5 -157.5zM35 -189q0 -83 65 -128t220 -45t257.5 63.5t102.5 179.5q0 62 -54 98t-184 50l-159 16q-120 -25 -184 -88t-64 -146zM905 807
q0 -191 -116.5 -304.5t-311.5 -113.5q-55 0 -84 8q-139 -53 -139 -131q0 -41 33 -54.5t96 -21.5l117 -14q181 -22 262.5 -88t81.5 -194q0 -184 -146 -285t-411 -101q-194 0 -304 73.5t-110 207.5q0 105 72 182t233 131q-78 42 -78 116t51 123.5t142 92.5q-63 32 -103 94.5
t-40 145.5q0 194 119.5 318t305.5 124q78 0 154 -20h371l-25 -107l-211 -24q41 -62 41 -158z" />
    <glyph glyph-name="h" unicode="h" 
d="M895 827q0 148 -147 148q-89 0 -221.5 -92.5t-198.5 -409.5l-101 -473h-168l330 1556h168q-18 -82 -60.5 -279.5t-93.5 -391.5h11q94 123 185 176t207 53t187.5 -72t71.5 -204q0 -62 -31 -210t-137 -628h-168l148 692q18 94 18 135z" />
    <glyph glyph-name="i" unicode="i" horiz-adv-x="520" 
d="M340 1382q0 50 32 85.5t83 35.5q88 0 88 -90q0 -55 -33.5 -93t-75.5 -38t-68 25t-26 75zM227 0h-168l234 1096h168z" />
    <glyph glyph-name="j" unicode="j" horiz-adv-x="520" 
d="M340 1382q0 50 32 85.5t83 35.5q86 0 86 -90q0 -55 -33.5 -93t-74.5 -38t-67 25t-26 75zM-135 -492q-69 0 -123 21v141q61 -22 119 -22q125 0 168 205l264 1243h166l-266 -1258q-36 -171 -114.5 -250.5t-213.5 -79.5z" />
    <glyph glyph-name="k" unicode="k" horiz-adv-x="999" 
d="M330 559l526 537h201l-469 -467l295 -629h-187l-235 524l-152 -123l-82 -401h-170l330 1556h170l-93 -434t-138 -563h4z" />
    <glyph glyph-name="l" unicode="l" horiz-adv-x="520" 
d="M225 0h-168l332 1556h168z" />
    <glyph glyph-name="m" unicode="m" horiz-adv-x="1786" 
d="M1405 1116q127 0 196.5 -68t69.5 -198q0 -68 -22 -178l-144 -672h-170l148 692q20 104 20 156t-34.5 89.5t-112.5 37.5t-200 -90t-185 -385l-107 -500h-168l148 692q18 94 18 150t-31 94.5t-111 38.5t-203 -93t-189 -407l-101 -475h-168l234 1096h139l-22 -203h10
q163 223 352 223q113 0 174 -65t72 -181h8q169 246 379 246z" />
    <glyph glyph-name="n" unicode="n" 
d="M897 848q0 52 -35.5 89.5t-119.5 37.5t-216.5 -94.5t-197.5 -405.5l-101 -475h-168l234 1096h139l-22 -203h10q96 122 185 172.5t201 50.5t185.5 -69.5t73.5 -194.5q0 -79 -23 -180l-143 -672h-170l148 692q20 104 20 156z" />
    <glyph glyph-name="o" unicode="o" horiz-adv-x="1149" 
d="M879 711q0 115 -62.5 186.5t-170.5 71.5t-194.5 -74t-134 -205.5t-47.5 -277.5t63 -217.5t175 -71.5t195 73t129.5 207.5t46.5 307.5zM643 1110q190 0 300 -113t110 -305t-72 -359t-194.5 -258t-296.5 -91t-283 113t-109 306t73 360.5t197 257t275 89.5z" />
    <glyph glyph-name="p" unicode="p" 
d="M731 975q-96 0 -195.5 -95t-158 -239.5t-58.5 -274.5q0 -248 216 -247q99 0 184.5 81t137.5 230.5t52 317.5q0 227 -178 227zM545 -20q-97 0 -170 50t-113 140h-10l-4 -38q-8 -68 -125 -624h-166l336 1588h139l-26 -209h8q179 227 372 227q137 0 216 -97.5t79 -291.5
t-69 -371t-191 -275.5t-276 -98.5z" />
    <glyph glyph-name="q" unicode="q" 
d="M449 119q92 0 190 92t158.5 237t60.5 300q0 105 -54 166t-154 61t-188 -84.5t-140 -233t-52 -311.5q0 -227 179 -227zM98 368q0 194 72.5 374t196 277t274.5 97q94 0 165.5 -50.5t108.5 -141.5h13l67 172h125l-336 -1588h-166l101 480q9 45 57 221h-8
q-180 -229 -371 -229q-140 0 -219.5 97t-79.5 291z" />
    <glyph glyph-name="r" unicode="r" horiz-adv-x="811" 
d="M755 1116q66 0 117 -14l-36 -150q-53 13 -105 13q-91 0 -170.5 -60t-139 -166.5t-87.5 -236.5l-107 -502h-168l234 1096h139l-22 -203h10q72 95 119 136.5t98.5 64t117.5 22.5z" />
    <glyph glyph-name="s" unicode="s" horiz-adv-x="877" 
d="M295 119q140 0 204 49.5t64 117.5t-35 107t-158 109t-177 140.5t-54 166.5q0 138 101 222.5t269 84.5t327 -74l-54 -137l-56 25q-101 43 -207 43t-159 -43.5t-53 -105.5t35.5 -102t144.5 -102t178.5 -126.5t69.5 -182.5q0 -156 -110.5 -243.5t-295.5 -87.5t-321 69v158
q147 -88 287 -88z" />
    <glyph glyph-name="t" unicode="t" horiz-adv-x="664" 
d="M117 217q0 66 18 150l127 602h-172l14 73l185 78l125 228h98l-55 -252h274l-26 -127h-273l-129 -604q-18 -87 -18 -137t28.5 -80.5t82.5 -30.5t143 26v-129q-83 -34 -186 -34t-169.5 59.5t-66.5 177.5z" />
    <glyph glyph-name="u" unicode="u" 
d="M283 262q0 -143 147 -143q88 0 221 94t201 408l100 475h166l-231 -1096h-139l22 203h-12q-98 -125 -187 -174t-201 -49t-184.5 69.5t-72.5 198.5q0 62 22 172l146 676h170l-150 -695q-18 -89 -18 -139z" />
    <glyph glyph-name="v" unicode="v" horiz-adv-x="946" 
d="M354 121h6q127 275 179 371l325 604h178l-591 -1096h-228l-125 1096h168l64 -613q24 -258 24 -362z" />
    <glyph glyph-name="w" unicode="w" horiz-adv-x="1468" 
d="M795 774v156h-9l-133 -307l-291 -623h-202l-43 1096h164l18 -594v-88q0 -147 -8 -269h6q47 124 137 322l295 629h182l37 -594q6 -168 6 -262v-53l-2 -42h6q28 86 83 218.5t323 732.5h178l-506 -1096h-205l-32 602q-4 94 -4 172z" />
    <glyph glyph-name="x" unicode="x" horiz-adv-x="979" 
d="M467 434l-346 -434h-195l475 565l-239 531h170l174 -412l330 412h194l-455 -539l252 -557h-168z" />
    <glyph glyph-name="y" unicode="y" horiz-adv-x="946" 
d="M369 131h6q97 240 164 356l325 609h178l-696 -1282q-93 -172 -184 -239t-219 -67q-72 0 -140 21v135q63 -18 138 -18t133.5 50.5t113.5 149.5l76 136l-166 1114h168l74 -545q10 -69 19.5 -203.5t9.5 -216.5z" />
    <glyph glyph-name="z" unicode="z" horiz-adv-x="909" 
d="M690 0h-719l23 117l694 854h-479l27 125h657l-29 -140l-680 -831h531z" />
    <glyph glyph-name="braceleft" unicode="{" horiz-adv-x="715" 
d="M442 -324q-141 0 -216.5 52.5t-75.5 171.5q0 52 26 170t45 199t15 102q0 143 -209 143l32 143q118 0 189.5 43.5t93.5 147.5l68 326q34 160 117.5 224t254.5 64h33l-31 -141q-105 0 -151 -36.5t-66 -123.5l-71 -321q-28 -123 -91 -184t-167 -78v-5q151 -41 151 -213
q0 -59 -18 -131l-47 -211q-15 -58 -15 -104q0 -96 156 -96v-142h-23z" />
    <glyph glyph-name="bar" unicode="|" horiz-adv-x="1128" 
d="M541 1556h139v-2052h-139v2052z" />
    <glyph glyph-name="braceright" unicode="}" horiz-adv-x="715" 
d="M285 1462q144 0 220.5 -52.5t76.5 -170.5q0 -48 -21 -141l-49 -219q-16 -68 -16 -111q0 -143 209 -143l-33 -144q-119 0 -190 -43t-93 -147l-67 -326q-36 -164 -119 -226.5t-264 -62.5h-13v142q115 0 167 36t71 123l72 322q25 117 88 179.5t170 80.5v6q-150 42 -150 211
q0 59 18 131l50 213q14 64 14 108q0 92 -180 93l28 141h11z" />
    <glyph glyph-name="asciitilde" unicode="~" horiz-adv-x="1128" 
d="M362 713q-131 0 -247 -121v151q98 109 243 109q117 0 259 -60t210 -61q136 0 248 121v-150q-100 -110 -244 -110q-72 0 -135 16.5t-165 60.5q-101 44 -169 44z" />
    <glyph glyph-name="nonbreakingspace" unicode="&#xa0;" horiz-adv-x="532" 
 />
    <glyph glyph-name="exclamdown" unicode="&#xa1;" horiz-adv-x="530" 
d="M352 848q-102 0 -102 102q0 76 40.5 122t97.5 46q110 0 110 -106q0 -71 -40.5 -117.5t-105.5 -46.5zM260 684h109l-176 -1057h-207z" />
    <glyph glyph-name="cent" unicode="&#xa2;" horiz-adv-x="1128" 
d="M644 319q115 0 265 68v-143q-123 -62 -286 -66l-41 -198h-125l43 215q-132 34 -203.5 137.5t-71.5 273.5t63.5 328.5t178.5 258t260 120.5l35 170h123l-37 -168q119 -9 217 -49l-47 -142q-109 52 -220 52t-203.5 -76.5t-145 -213t-52.5 -278.5t66 -215.5t181 -73.5z" />
    <glyph glyph-name="sterling" unicode="&#xa3;" horiz-adv-x="1128" 
d="M842 1481q184 0 336 -86l-66 -133q-146 79 -278 79q-213 0 -263 -237l-69 -326h370l-26 -127h-371l-47 -219q-22 -98 -66 -166.5t-124 -111.5h725l-33 -154h-953l27 141q205 46 258 289l47 221h-200l26 127h201l76 350q75 353 430 353z" />
    <glyph glyph-name="currency" unicode="&#xa4;" horiz-adv-x="1128" 
d="M358 724q0 -104 71 -175.5t175 -71.5t177 71.5t73 175.5t-73 176.5t-176 72.5t-175 -72.5t-72 -176.5zM229 722q0 118 68 216l-129 129l92 92l127 -129q103 70 217 70t215 -70l129 129l92 -90l-129 -129q70 -104 70 -220t-70 -214l127 -127l-90 -90l-129 127
q-98 -68 -216 -68t-216 70l-127 -127l-90 90l127 127q-68 96 -68 214z" />
    <glyph glyph-name="yen" unicode="&#xa5;" horiz-adv-x="1128" 
d="M582 715l491 747h187l-533 -770h231l-28 -133h-297l-33 -160h297l-29 -133h-295l-57 -266h-154l56 266h-291l29 133h290l33 160h-291l29 133h225l-202 770h163z" />
    <glyph glyph-name="brokenbar" unicode="&#xa6;" horiz-adv-x="1128" 
d="M541 281h139v-777h-139v777zM541 1556h139v-776h-139v776z" />
    <glyph glyph-name="section" unicode="&#xa7;" horiz-adv-x="995" 
d="M326 791q0 -70 50.5 -117t198.5 -111q80 44 127.5 107t47.5 127t-49.5 109.5t-186.5 103.5q-82 -26 -135 -87.5t-53 -131.5zM59 201q127 -78 321 -78q104 0 175.5 44.5t71.5 129.5q0 48 -50.5 88.5t-170.5 94.5t-176 123.5t-56 166.5q0 201 238 307q-119 70 -119 200
t103.5 209t285.5 79t315 -68l-53 -123q-148 60 -258 60t-170.5 -40.5t-60.5 -99.5t38 -93.5t150 -84.5t187 -110.5t75 -169.5q0 -214 -233 -332q114 -71 114 -189q0 -152 -114 -237.5t-304 -85.5t-309 61v148z" />
    <glyph glyph-name="dieresis" unicode="&#xa8;" horiz-adv-x="1135" 
d="M821 1381q0 43 28 76.5t75 33.5q77 0 77 -80q0 -49 -29.5 -83t-66.5 -34t-60.5 22t-23.5 65zM457 1381q0 43 28 76.5t74 33.5q78 0 78 -80q0 -49 -29.5 -83t-66.5 -34t-60.5 22t-23.5 65z" />
    <glyph glyph-name="copyright" unicode="&#xa9;" horiz-adv-x="1704" 
d="M244 732q0 -174 87 -324.5t237.5 -237t323.5 -86.5t322 87t236.5 235.5t87.5 323.5t-87 324t-235.5 236.5t-323.5 87.5t-324 -87t-236.5 -236t-87.5 -323zM139 732q0 199 100 374t274.5 276t374.5 101t373 -97t277 -272t104 -381t-100.5 -378.5t-273 -273.5t-378.5 -101
t-381 103.5t-272.5 276.5t-97.5 372zM922 274q-192 0 -297 119.5t-105 333.5t110 336.5t300 122.5q130 0 248 -60l-60 -120q-106 53 -190 53q-125 0 -191.5 -87t-66.5 -241q0 -330 258 -330q82 0 211 43v-122q-113 -48 -217 -48z" />
    <glyph glyph-name="ordfeminine" unicode="&#xaa;" horiz-adv-x="686" 
d="M614 1245q0 131 -114 131q-92 0 -154.5 -103t-62.5 -243t98 -139q61 0 112.5 49t86 137.5t34.5 167.5zM508 1479q104 0 143 -103h6l37 90h86l-139 -665h-92l14 117h-4q-40 -56 -90 -93t-125 -37t-124.5 60t-49.5 176t41.5 224t117 169.5t179.5 61.5z" />
    <glyph glyph-name="guillemotleft" unicode="&#xab;" horiz-adv-x="958" 
d="M483 541l367 405l86 -69l-283 -365l158 -350l-113 -49l-215 397v31zM88 584l391 374l78 -81l-297 -328l172 -387l-113 -49l-231 442v29z" />
    <glyph glyph-name="logicalnot" unicode="&#xac;" horiz-adv-x="1128" 
d="M1047 793v-529h-140v387h-780v142h920z" />
    <glyph glyph-name="uni00AD" unicode="&#xad;" horiz-adv-x="639" 
d="M55 469l35 158h479l-34 -158h-480z" />
    <glyph glyph-name="registered" unicode="&#xae;" horiz-adv-x="1704" 
d="M772 762h92q195 0 195 149q0 76 -47.5 107t-149.5 31h-90v-287zM1194 915q0 -78 -47.5 -141t-132.5 -98l227 -385h-149l-207 352h-113v-352h-127v880h229q163 0 241.5 -63t78.5 -193zM244 732q0 -174 87 -324.5t237.5 -237t323.5 -86.5t322 87t236.5 235.5t87.5 323.5
t-87 324t-235.5 236.5t-323.5 87.5t-324 -87t-236.5 -236t-87.5 -323zM139 732q0 199 100 374t274.5 276t374.5 101t373 -97t277 -272t104 -381t-100.5 -378.5t-273 -273.5t-378.5 -101t-381 103.5t-272.5 276.5t-97.5 372z" />
    <glyph glyph-name="overscore" unicode="&#xaf;" horiz-adv-x="782" 
d="M1012 1556h-785l33 132h787z" />
    <glyph glyph-name="degree" unicode="&#xb0;" horiz-adv-x="877" 
d="M328 1172q0 -81 58 -139t140 -58t139.5 58.5t57.5 138.5t-57.5 139t-138.5 59t-140 -58.5t-59 -139.5zM215 1171q0 128 90.5 220t220.5 92q83 0 155.5 -41.5t114.5 -114t42 -156.5q0 -128 -90.5 -218.5t-221.5 -90.5t-221 90.5t-90 218.5z" />
    <glyph glyph-name="plusminus" unicode="&#xb1;" horiz-adv-x="1128" 
d="M127 0v141h920v-141h-920zM516 643h-389v141h389v392h141v-392h390v-141h-390v-387h-141v387z" />
    <glyph glyph-name="twosuperior" unicode="&#xb2;" horiz-adv-x="717" 
d="M625 1256q0 50 -31.5 82t-105.5 32t-179 -80l-59 90q125 101 274 101q109 0 171.5 -56.5t62.5 -152.5t-52.5 -177t-197.5 -206l-221 -187h395l-25 -116h-561l23 106l264 228q115 100 158.5 149.5t63.5 93t20 93.5z" />
    <glyph glyph-name="threesuperior" unicode="&#xb3;" horiz-adv-x="717" 
d="M696 848q0 -132 -91 -205.5t-235 -73.5t-251 56v127q125 -72 239 -72q205 0 205 170q0 137 -178 137h-90l22 107h95q97 0 155 41t58 107q0 126 -128 126q-102 0 -196 -68l-55 93q109 88 268 88q114 0 178 -56t64 -151q0 -180 -207 -234v-4q69 -17 108 -68t39 -120z" />
    <glyph glyph-name="acute" unicode="&#xb4;" horiz-adv-x="1135" 
d="M954 1569v-21q-38 -49 -140 -151t-177 -156h-105v27q56 60 125.5 151.5t106.5 149.5h190z" />
    <glyph glyph-name="mu" unicode="&#xb5;" horiz-adv-x="1194" 
d="M295 266q0 -147 147 -147q89 0 172 59t148.5 171t99.5 269l105 478h163l-233 -1096h-139l24 205h-12q-93 -121 -183 -173t-195 -52t-156 96h-9q-24 -168 -106 -568h-164l336 1588h168l-148 -695q-18 -92 -18 -135z" />
    <glyph glyph-name="paragraph" unicode="&#xb6;" horiz-adv-x="1341" 
d="M1206 -260h-114v1661h-213v-1661h-115v819q-62 -18 -146 -18q-216 0 -317.5 124.5t-101.5 380.5t109 383t341 127h557v-1816z" />
    <glyph glyph-name="periodcentered" unicode="&#xb7;" horiz-adv-x="518" 
d="M270 587q-100 0 -100 116q0 63 40 109t98 46q110 0 110 -105q0 -71 -40 -119t-108 -47z" />
    <glyph glyph-name="cedilla" unicode="&#xb8;" horiz-adv-x="420" 
d="M211 -276q0 -98 -81 -157t-214 -59q-41 0 -86 9v100q38 -6 68 -6q174 0 174 110q0 46 -39 67.5t-99 29.5l101 182h106l-61 -121q131 -38 131 -155z" />
    <glyph glyph-name="onesuperior" unicode="&#xb9;" horiz-adv-x="717" 
d="M537 1462h118l-186 -876h-135l112 526q25 103 58 225q-25 -25 -50 -46.5t-145 -100.5l-51 90z" />
    <glyph glyph-name="ordmasculine" unicode="&#xba;" horiz-adv-x="688" 
d="M500 1376q-102 0 -160.5 -87.5t-58.5 -229.5q0 -85 38 -127.5t107 -42.5q94 0 152.5 88.5t58.5 232.5q0 166 -137 166zM745 1219q0 -191 -88.5 -311t-240.5 -120q-113 0 -180.5 71t-67.5 192t42 219.5t117.5 153.5t183.5 55t171 -67t63 -193z" />
    <glyph glyph-name="guillemotright" unicode="&#xbb;" horiz-adv-x="958" 
d="M477 528l-368 -401l-86 70l282 360l-158 354l113 50l217 -402v-31zM872 485l-393 -370l-78 82l297 323l-172 391l113 50l233 -447v-29z" />
    <glyph glyph-name="onequarter" unicode="&#xbc;" horiz-adv-x="1518" 
d="M1362 1462l-1086 -1462h-153l1085 1462h154zM483 1462h118l-186 -876h-135l112 526q25 103 58 225q-25 -25 -50 -47t-145 -100l-51 90zM1095 320q69 322 90 395q-20 -36 -110 -149l-205 -246h225zM1327 203h-129l-43 -202h-127l43 202h-365l23 101l481 579h133l-121 -563
h127z" />
    <glyph glyph-name="onehalf" unicode="&#xbd;" horiz-adv-x="1518" 
d="M427 1462h118l-186 -876h-135l112 526q25 103 58 225q-25 -25 -50 -47t-145 -100l-51 90zM1305 1462l-1086 -1462h-153l1085 1462h154zM1311 671q0 50 -31 82q-32 32 -106 32t-179 -80l-59 90q125 101 274 101q110 0 172 -56t62 -154q0 -96 -52 -176t-198 -206l-221 -187
h395l-25 -116h-561l23 106l264 228q115 99 159 149t63 94q20 44 20 93z" />
    <glyph glyph-name="threequarters" unicode="&#xbe;" horiz-adv-x="1565" 
d="M664 848q0 -132 -91 -206t-235 -73q-144 0 -251 56v127q125 -72 239 -72q205 0 205 170q0 137 -178 137h-90l22 107h95q97 0 155 41t58 107q0 126 -128 126q-102 0 -196 -68l-55 93q109 88 268 88q114 0 178 -56t64 -151q0 -180 -207 -234v-4q69 -17 108 -68t39 -120z
M1512 1462l-1086 -1462h-153l1085 1462h154zM1245 320q69 322 90 395q-20 -36 -110 -149l-205 -246h225zM1477 203h-129l-43 -202h-127l43 202h-365l23 101l481 579h133l-121 -563h127z" />
    <glyph glyph-name="questiondown" unicode="&#xbf;" horiz-adv-x="874" 
d="M659 1112q101 0 101 -115q0 -64 -40.5 -109.5t-97.5 -45.5q-110 0 -110 104q0 71 40 118.5t107 47.5zM166 -57q0 -195 211 -195q108 0 282 82l62 -129q-188 -100 -365 -100q-178 0 -269 83.5t-91 222.5t66 243t212 212t186 163t62 155h135q-22 -130 -72 -212t-165 -175
l-95 -75q-159 -127 -159 -275z" />
    <glyph glyph-name="Agrave" unicode="&#xc0;" horiz-adv-x="1137" 
d="M795 621l-35 299q-24 179 -29 350q-37 -88 -81 -175t-249 -474h394zM813 465h-496l-245 -465h-189l799 1462h174l184 -1462h-170zM863 1579h-104q-61 61 -129 154t-95 153v21h181q43 -136 147 -303v-25z" />
    <glyph glyph-name="Aacute" unicode="&#xc1;" horiz-adv-x="1137" 
d="M795 621l-35 299q-24 179 -29 350q-37 -88 -81 -175t-249 -474h394zM813 465h-496l-245 -465h-189l799 1462h174l184 -1462h-170zM1101 1907v-21q-38 -49 -140 -151t-177 -156h-105v27q55 60 125 152t107 149h190z" />
    <glyph glyph-name="Acircumflex" unicode="&#xc2;" horiz-adv-x="1137" 
d="M795 621l-35 299q-24 179 -29 350q-37 -88 -81 -175t-249 -474h394zM813 465h-496l-245 -465h-189l799 1462h174l184 -1462h-170zM1080 1579h-103q-57 48 -161 189q-134 -119 -242 -189h-109v27q239 219 287 301h158q37 -99 128 -235l42 -66v-27z" />
    <glyph glyph-name="Atilde" unicode="&#xc3;" horiz-adv-x="1137" 
d="M795 621l-35 299q-24 179 -29 350q-37 -88 -81 -175t-249 -474h394zM813 465h-496l-245 -465h-189l799 1462h174l184 -1462h-170zM934 1581q-56 1 -150 57q-36 22 -70 38q-34 18 -71 18t-63 -28t-48 -87h-100q58 258 231 258q65 1 159 -57q36 -22 66 -40t66 -18t62 27
t51 90h100q-66 -258 -233 -258z" />
    <glyph glyph-name="Adieresis" unicode="&#xc4;" horiz-adv-x="1137" 
d="M795 621l-35 299q-24 179 -29 350q-37 -88 -81 -175t-249 -474h394zM813 465h-496l-245 -465h-189l799 1462h174l184 -1462h-170zM887 1719q0 43 28 77t75 33q77 0 77 -80q1 -49 -29 -83t-67 -34t-61 22t-23 65zM523 1719q0 43 28 77t74 33q78 0 78 -80q1 -49 -29 -83
t-67 -34t-61 22t-23 65z" />
    <glyph glyph-name="Aring" unicode="&#xc5;" horiz-adv-x="1137" 
d="M795 621l-35 299q-24 179 -29 350q-37 -88 -81 -175t-249 -474h394zM553 1583q0 95 62 153t160 58t157 -57t59 -154t-60 -155q-28 -27 -65 -42l174 -1386h-170l-57 465h-496l-245 -465h-189l765 1400q-95 56 -95 183zM887 1582q0 54 -32 85t-82 31t-83 -31t-33 -85
q-1 -54 29 -84t84 -30t85 30q32 30 32 84z" />
    <glyph glyph-name="AE" unicode="&#xc6;" horiz-adv-x="1673" 
d="M840 621l147 688h-84l-434 -688h371zM1448 0h-737l98 465h-438l-293 -465h-197l938 1462h938l-33 -153h-565l-100 -469h528l-28 -150h-529l-115 -538h566z" />
    <glyph glyph-name="Ccedilla" unicode="&#xc7;" horiz-adv-x="1198" 
d="M926 1331q-158 0 -296 -97q-138 -96 -218 -284t-80 -392t98 -316t252 -111q155 0 338 57v-149q-161 -58 -342 -59l-51 -101q131 -38 131 -155q0 -98 -81 -157t-214 -59q-41 0 -86 9v100q38 -6 68 -6q174 0 174 110q0 45 -39 67t-99 30l93 168q-176 24 -286 144
q-138 150 -138 408q0 260 106 484t283 343q178 118 389 118t362 -80l-69 -141q-137 69 -295 69z" />
    <glyph glyph-name="Egrave" unicode="&#xc8;" horiz-adv-x="1047" 
d="M821 0h-735l309 1462h735l-32 -153h-566l-98 -469h527l-29 -152h-529l-114 -536h565zM898 1579h-104q-60 61 -128 154t-96 153v21h181q43 -136 147 -303v-25z" />
    <glyph glyph-name="Eacute" unicode="&#xc9;" horiz-adv-x="1047" 
d="M821 0h-735l309 1462h735l-32 -153h-566l-98 -469h527l-29 -152h-529l-114 -536h565zM1079 1907v-21q-38 -49 -140 -151t-177 -156h-105v27q55 60 125 152t107 149h190z" />
    <glyph glyph-name="Ecircumflex" unicode="&#xca;" horiz-adv-x="1047" 
d="M821 0h-735l309 1462h735l-32 -153h-566l-98 -469h527l-29 -152h-529l-114 -536h565zM1084 1579h-103q-57 48 -161 189q-134 -119 -242 -189h-109v27q239 219 287 301h158q37 -99 128 -235l42 -66v-27z" />
    <glyph glyph-name="Edieresis" unicode="&#xcb;" horiz-adv-x="1047" 
d="M821 0h-735l309 1462h735l-32 -153h-566l-98 -469h527l-29 -152h-529l-114 -536h565zM887 1719q0 43 28 77t75 33q77 0 77 -80q1 -49 -29 -83t-67 -34t-61 22t-23 65zM523 1719q0 43 28 77t74 33q78 0 78 -80q1 -49 -29 -83t-67 -34t-61 22t-23 65z" />
    <glyph glyph-name="Igrave" unicode="&#xcc;" horiz-adv-x="559" 
d="M86 0l311 1462h168l-311 -1462h-168zM593 1579h-104q-61 61 -129 154t-95 153v21h181q43 -136 147 -303v-25z" />
    <glyph glyph-name="Iacute" unicode="&#xcd;" horiz-adv-x="559" 
d="M86 0l311 1462h168l-311 -1462h-168zM834 1907v-21q-38 -49 -140 -151t-177 -156h-105v27q56 60 126 152t106 149h190z" />
    <glyph glyph-name="Icircumflex" unicode="&#xce;" horiz-adv-x="559" 
d="M86 0l311 1462h168l-311 -1462h-168zM808 1579h-103q-57 48 -161 189q-134 -119 -242 -189h-109v27q239 219 287 301h158q37 -99 128 -235l42 -66v-27z" />
    <glyph glyph-name="Idieresis" unicode="&#xcf;" horiz-adv-x="559" 
d="M86 0l311 1462h168l-311 -1462h-168zM629 1719q0 43 28 77t75 33q77 0 77 -80q1 -49 -29 -83t-67 -34t-61 22t-23 65zM265 1719q0 43 28 77t74 33q78 0 78 -80q1 -49 -29 -83t-67 -34t-61 22t-23 65z" />
    <glyph glyph-name="Eth" unicode="&#xd0;" horiz-adv-x="1364" 
d="M449 147q202 0 355 91.5t234.5 258.5t81.5 382t-103 325.5t-302 110.5h-178l-111 -516h330l-33 -150h-330l-106 -502h162zM1300 890q0 -274 -105 -474t-300 -308t-457 -108h-352l135 649h-149l32 150h150l141 663h342q276 0 419.5 -149t143.5 -423z" />
    <glyph glyph-name="Ntilde" unicode="&#xd1;" horiz-adv-x="1438" 
d="M1139 0h-181l-460 1223h-6q-32 -221 -74 -418l-172 -805h-162l309 1462h180l459 -1220h6q30 224 72 405l174 815h164zM1102 1581q-56 1 -150 57q-36 22 -70 38q-34 18 -71 18t-63 -28t-48 -87h-100q58 258 231 258q65 1 159 -57q36 -22 66 -40t66 -18t62 27t51 90h100
q-66 -258 -233 -258z" />
    <glyph glyph-name="Ograve" unicode="&#xd2;" horiz-adv-x="1475" 
d="M879 1333q-162 0 -286 -101q-125 -101 -193 -281q-68 -181 -68 -389t98 -320t258 -111q160 -1 280 97t191 280q70 182 70 392t-94 322t-256 111zM1411 908q0 -270 -88 -482t-252 -330q-164 -116 -379 -116q-256 0 -399 150t-143 416q0 267 96 485t264 336t394 118
q227 0 367 -154q140 -153 140 -423zM1007 1579h-104q-61 61 -129 154t-95 153v21h181q43 -136 147 -303v-25z" />
    <glyph glyph-name="Oacute" unicode="&#xd3;" horiz-adv-x="1475" 
d="M879 1333q-162 0 -286 -101q-125 -101 -193 -281q-68 -181 -68 -389t98 -320t258 -111q160 -1 280 97t191 280q70 182 70 392t-94 322t-256 111zM1411 908q0 -270 -88 -482t-252 -330q-164 -116 -379 -116q-256 0 -399 150t-143 416q0 267 96 485t264 336t394 118
q227 0 367 -154q140 -153 140 -423zM1243 1907v-21q-38 -49 -140 -151t-177 -156h-105v27q55 60 125 152t107 149h190z" />
    <glyph glyph-name="Ocircumflex" unicode="&#xd4;" horiz-adv-x="1475" 
d="M879 1333q-162 0 -286 -101q-125 -101 -193 -281q-68 -181 -68 -389t98 -320t258 -111q160 -1 280 97t191 280q70 182 70 392t-94 322t-256 111zM1411 908q0 -270 -88 -482t-252 -330q-164 -116 -379 -116q-256 0 -399 150t-143 416q0 267 96 485t264 336t394 118
q227 0 367 -154q140 -153 140 -423zM1227 1579h-103q-57 48 -161 189q-134 -119 -242 -189h-109v27q239 219 287 301h158q37 -99 128 -235l42 -66v-27z" />
    <glyph glyph-name="Otilde" unicode="&#xd5;" horiz-adv-x="1475" 
d="M879 1333q-162 0 -286 -101q-125 -101 -193 -281q-68 -181 -68 -389t98 -320t258 -111q160 -1 280 97t191 280q70 182 70 392t-94 322t-256 111zM1411 908q0 -270 -88 -482t-252 -330q-164 -116 -379 -116q-256 0 -399 150t-143 416q0 267 96 485t264 336t394 118
q227 0 367 -154q140 -153 140 -423zM1067 1581q-57 1 -151 57q-36 22 -68 38q-34 18 -72 18t-64 -28t-47 -87h-100q58 258 231 258q64 1 158 -57q36 -22 67 -40t67 -18t60 27q26 27 52 90h100q-66 -258 -233 -258z" />
    <glyph glyph-name="Odieresis" unicode="&#xd6;" horiz-adv-x="1475" 
d="M879 1333q-162 0 -286 -101q-125 -101 -193 -281q-68 -181 -68 -389t98 -320t258 -111q160 -1 280 97t191 280q70 182 70 392t-94 322t-256 111zM1411 908q0 -270 -88 -482t-252 -330q-164 -116 -379 -116q-256 0 -399 150t-143 416q0 267 96 485t264 336t394 118
q227 0 367 -154q140 -153 140 -423zM1028 1719q0 43 28 77t75 33q77 0 77 -80q0 -49 -30 -83t-66 -34t-60 22t-24 65zM664 1719q0 43 28 77t74 33q78 0 78 -80q0 -49 -30 -83t-66 -34t-60 22t-24 65z" />
    <glyph glyph-name="multiply" unicode="&#xd7;" horiz-adv-x="1128" 
d="M487 723l-319 321l98 99l320 -320l323 320l99 -96l-324 -324l322 -322l-97 -96l-323 320l-320 -318l-96 96z" />
    <glyph glyph-name="Oslash" unicode="&#xd8;" horiz-adv-x="1475" 
d="M1229 911q0 118 -33 205l-733 -911q91 -74 238 -74t267.5 97.5t190.5 279.5t70 403zM868 1333q-152 0 -275.5 -101t-192 -281t-68.5 -398q0 -135 41 -227l737 919q-90 88 -242 88zM1411 888q0 -250 -88 -462.5t-251.5 -329t-371.5 -116.5t-340 96l-129 -160l-112 92
l137 170q-106 136 -106 386t96 467.5t263.5 335.5t367.5 118t340 -111l131 166l114 -92l-149 -184q98 -126 98 -376z" />
    <glyph glyph-name="Ugrave" unicode="&#xd9;" horiz-adv-x="1384" 
d="M624 -20q-460 0 -460 403q0 81 24 201l189 878h170l-191 -891q-22 -105 -22 -205t73 -168t231 -67q158 -1 254 87t140 290l205 954h170l-205 -966q-56 -264 -198 -390t-380 -126zM991 1579h-104q-61 61 -129 154t-95 153v21h181q43 -136 147 -303v-25z" />
    <glyph glyph-name="Uacute" unicode="&#xda;" horiz-adv-x="1384" 
d="M624 -20q-460 0 -460 403q0 81 24 201l189 878h170l-191 -891q-22 -105 -22 -205t73 -168t231 -67q158 -1 254 87t140 290l205 954h170l-205 -966q-56 -264 -198 -390t-380 -126zM1245 1907v-21q-38 -49 -140 -151t-177 -156h-105v27q55 60 125 152t107 149h190z" />
    <glyph glyph-name="Ucircumflex" unicode="&#xdb;" horiz-adv-x="1384" 
d="M624 -20q-460 0 -460 403q0 81 24 201l189 878h170l-191 -891q-22 -105 -22 -205t73 -168t231 -67q158 -1 254 87t140 290l205 954h170l-205 -966q-56 -264 -198 -390t-380 -126zM1217 1579h-103q-57 48 -161 189q-134 -119 -242 -189h-109v27q239 219 287 301h158
q37 -99 128 -235l42 -66v-27z" />
    <glyph glyph-name="Udieresis" unicode="&#xdc;" horiz-adv-x="1384" 
d="M624 -20q-460 0 -460 403q0 81 24 201l189 878h170l-191 -891q-22 -105 -22 -205t73 -168t231 -67q158 -1 254 87t140 290l205 954h170l-205 -966q-56 -264 -198 -390t-380 -126zM1007 1719q0 43 28 77t75 33q77 0 77 -80q1 -49 -29 -83t-67 -34t-61 22t-23 65zM643 1719
q0 43 28 77t74 33q78 0 78 -80q1 -49 -29 -83t-67 -34t-61 22t-23 65z" />
    <glyph glyph-name="Yacute" unicode="&#xdd;" horiz-adv-x="1030" 
d="M537 715l489 747h193l-627 -921l-113 -541h-172l119 549l-238 913h170zM1038 1907v-21q-38 -49 -140 -151t-177 -156h-105v27q56 60 126 152t106 149h190z" />
    <glyph glyph-name="Thorn" unicode="&#xde;" horiz-adv-x="1159" 
d="M489 465q215 0 328 91t113 267q0 126 -70 181t-215 55h-166l-125 -594h135zM1106 829q0 -248 -164 -379t-483 -131h-133l-70 -319h-170l309 1462h170l-53 -256h160q213 0 323.5 -95t110.5 -282z" />
    <glyph glyph-name="germandbls" unicode="&#xdf;" 
d="M-133 -492q-69 0 -123 21v143q60 -22 118 -22q122 0 165 205l280 1314q86 398 447 398q178 0 268 -71t90 -188t-61.5 -186t-185.5 -163t-124 -156t95 -128q206 -149 206 -323q0 -173 -108 -272.5t-288 -99.5t-273 71v160q51 -41 118.5 -66.5t129.5 -25.5q113 0 181 58
t68 147t-33.5 129.5t-99.5 95.5q-88 69 -122.5 124t-34.5 111t18.5 99.5t50 79t117.5 97.5t134 111.5t48 115.5q0 67 -52.5 103.5t-156.5 36.5q-211 0 -266 -253l-274 -1303q-40 -189 -121 -276t-211 -87z" />
    <glyph glyph-name="agrave" unicode="&#xe0;" horiz-adv-x="1157" 
d="M270 346q0 -227 185 -227q91 1 187 93t156 240t60 275q0 126 -56 187t-154 61t-186 -86q-90 -86 -141 -233t-51 -310zM639 1116q92 0 164 -50t112 -142h11l67 172h127l-233 -1096h-133l26 209h-8q-179 -229 -377 -229q-139 0 -218 99t-79 289t71 368t196 279t274 101z
M824 1241h-104q-60 61 -128 154t-96 153v21h181q43 -136 147 -303v-25z" />
    <glyph glyph-name="aacute" unicode="&#xe1;" horiz-adv-x="1157" 
d="M270 346q0 -227 185 -227q91 1 187 93t156 240t60 275q0 126 -56 187t-154 61t-186 -86q-90 -86 -141 -233t-51 -310zM639 1116q92 0 164 -50t112 -142h11l67 172h127l-233 -1096h-133l26 209h-8q-179 -229 -377 -229q-139 0 -218 99t-79 289t71 368t196 279t274 101z
M1022 1569v-21q-38 -49 -140 -151t-177 -156h-105v27q56 60 126 152t106 149h190z" />
    <glyph glyph-name="acircumflex" unicode="&#xe2;" horiz-adv-x="1157" 
d="M270 346q0 -227 185 -227q91 1 187 93t156 240t60 275q0 126 -56 187t-154 61t-186 -86q-90 -86 -141 -233t-51 -310zM639 1116q92 0 164 -50t112 -142h11l67 172h127l-233 -1096h-133l26 209h-8q-179 -229 -377 -229q-139 0 -218 99t-79 289t71 368t196 279t274 101z
M1005 1241h-103q-57 48 -161 189q-134 -119 -242 -189h-109v27q239 219 287 301h158q37 -99 128 -235l42 -66v-27z" />
    <glyph glyph-name="atilde" unicode="&#xe3;" horiz-adv-x="1157" 
d="M270 346q0 -227 185 -227q91 1 187 93t156 240t60 275q0 126 -56 187t-154 61t-186 -86q-90 -86 -141 -233t-51 -310zM639 1116q92 0 164 -50t112 -142h11l67 172h127l-233 -1096h-133l26 209h-8q-179 -229 -377 -229q-139 0 -218 99t-79 289t71 368t196 279t274 101z
M856 1243q-56 1 -150 57q-36 22 -70 38q-34 18 -71 18t-63 -28t-48 -87h-100q58 258 231 258q65 1 159 -57q36 -22 66 -40t66 -18t62 27t51 90h100q-66 -258 -233 -258z" />
    <glyph glyph-name="adieresis" unicode="&#xe4;" horiz-adv-x="1157" 
d="M270 346q0 -227 185 -227q91 1 187 93t156 240t60 275q0 126 -56 187t-154 61t-186 -86q-90 -86 -141 -233t-51 -310zM639 1116q92 0 164 -50t112 -142h11l67 172h127l-233 -1096h-133l26 209h-8q-179 -229 -377 -229q-139 0 -218 99t-79 289t71 368t196 279t274 101z
M818 1381q0 43 28 77t75 33q77 0 77 -80q0 -49 -30 -83t-66 -34t-60 22t-24 65zM454 1381q0 43 28 77t74 33q78 0 78 -80q0 -49 -30 -83t-66 -34t-60 22t-24 65z" />
    <glyph glyph-name="aring" unicode="&#xe5;" horiz-adv-x="1157" 
d="M270 346q0 -227 185 -227q91 1 187 93t156 240t60 275q0 126 -56 187t-154 61t-186 -86q-90 -86 -141 -233t-51 -310zM639 1116q92 0 164 -50t112 -142h11l67 172h127l-233 -1096h-133l26 209h-8q-179 -229 -377 -229q-139 0 -218 99t-79 289t71 368t196 279t274 101z
M847 1454q0 54 -32 84q-32 31 -82 31t-83 -31q-33 -30 -33 -84q-1 -54 29 -84t84 -31q54 1 85 31q32 30 32 84zM951 1454q0 -97 -60 -155t-160 -58q-100 -1 -159 57t-59 154t62 154t160 59q98 0 157 -57t59 -154z" />
    <glyph glyph-name="ae" unicode="&#xe6;" horiz-adv-x="1669" 
d="M1325 973q-117 0 -211 -94.5t-141 -260.5h14q226 0 348.5 58.5t122.5 169.5q0 61 -35 94t-98 33zM813 726q0 248 -179 249q-88 0 -176 -86.5t-138 -231.5t-50 -284t37 -196.5t119 -57.5t175 91.5t152.5 240.5t59.5 275zM623 1116q168 0 247 -192h11l67 172h109l-31 -146
q123 166 332 166q119 0 192.5 -68t73.5 -184q0 -182 -166.5 -283.5t-472.5 -101.5h-39l-4 -80q0 -131 62.5 -204.5t193.5 -73.5q55 0 116.5 16.5t178.5 67.5v-150q-164 -75 -328 -75q-232 0 -311 159l-31 -139h-114l26 209h-8q-109 -132 -192 -180.5t-191 -48.5t-177 99
t-69 287t70.5 367t191.5 281t263 102z" />
    <glyph glyph-name="ccedilla" unicode="&#xe7;" horiz-adv-x="922" 
d="M516 119q113 0 266 67v-143q-122 -62 -270 -63l-51 -101q131 -38 131 -155q0 -98 -81 -157t-214 -59q-41 0 -86 9v100q38 -6 68 -6q174 0 174 110q0 45 -39 67t-99 30l94 170q-126 21 -204 99q-107 107 -107 305t74 366q74 170 204 264t281 94q150 0 281 -51l-47 -141
q-119 51 -225 51q-106 -1 -198 -77t-146 -212q-52 -136 -52 -281q0 -144 66 -215t180 -71z" />
    <glyph glyph-name="egrave" unicode="&#xe8;" horiz-adv-x="1010" 
d="M618 973q-90 0 -180 -94t-139 -261h12q227 0 349 60t122 172q0 53 -36 88q-38 35 -128 35zM518 121q125 0 299 84v-146q-94 -43 -166 -61t-159 -18q-184 0 -289 109t-105 299t74 364q74 172 198 268t274 96t227 -66t77 -186q0 -180 -166 -282t-475 -103h-33l-4 -80
q0 -131 62 -205t186 -73zM777 1241h-104q-61 61 -129 154t-95 153v21h181q43 -136 147 -303v-25z" />
    <glyph glyph-name="eacute" unicode="&#xe9;" horiz-adv-x="1010" 
d="M618 973q-90 0 -180 -94t-139 -261h12q227 0 349 60t122 172q0 53 -36 88q-38 35 -128 35zM518 121q125 0 299 84v-146q-94 -43 -166 -61t-159 -18q-184 0 -289 109t-105 299t74 364q74 172 198 268t274 96t227 -66t77 -186q0 -180 -166 -282t-475 -103h-33l-4 -80
q0 -131 62 -205t186 -73zM1007 1569v-21q-38 -49 -140 -151t-177 -156h-105v27q55 60 125 152t107 149h190z" />
    <glyph glyph-name="ecircumflex" unicode="&#xea;" horiz-adv-x="1010" 
d="M618 973q-90 0 -180 -94t-139 -261h12q227 0 349 60t122 172q0 53 -36 88q-38 35 -128 35zM518 121q125 0 299 84v-146q-94 -43 -166 -61t-159 -18q-184 0 -289 109t-105 299t74 364q74 172 198 268t274 96t227 -66t77 -186q0 -180 -166 -282t-475 -103h-33l-4 -80
q0 -131 62 -205t186 -73zM966 1241h-103q-57 48 -161 189q-134 -119 -242 -189h-109v27q239 219 287 301h158q37 -99 128 -235l42 -66v-27z" />
    <glyph glyph-name="edieresis" unicode="&#xeb;" horiz-adv-x="1010" 
d="M618 973q-90 0 -180 -94t-139 -261h12q227 0 349 60t122 172q0 53 -36 88q-38 35 -128 35zM518 121q125 0 299 84v-146q-94 -43 -166 -61t-159 -18q-184 0 -289 109t-105 299t74 364q74 172 198 268t274 96t227 -66t77 -186q0 -180 -166 -282t-475 -103h-33l-4 -80
q0 -131 62 -205t186 -73zM777 1381q0 43 28 77t75 33q77 0 77 -80q1 -49 -29 -83t-67 -34t-61 22t-23 65zM413 1381q0 43 28 77t74 33q78 0 78 -80q1 -49 -29 -83t-67 -34t-61 22t-23 65z" />
    <glyph glyph-name="igrave" unicode="&#xec;" horiz-adv-x="520" 
d="M227 0h-168l234 1096h168zM492 1241h-104q-60 61 -128 154t-96 153v21h181q43 -136 147 -303v-25z" />
    <glyph glyph-name="iacute" unicode="&#xed;" horiz-adv-x="520" 
d="M227 0h-168l234 1096h168zM746 1569v-21q-38 -49 -140 -151t-177 -156h-105v27q56 60 126 152t106 149h190z" />
    <glyph glyph-name="icircumflex" unicode="&#xee;" horiz-adv-x="520" 
d="M227 0h-168l234 1096h168zM708 1241h-103q-57 48 -161 189q-134 -119 -242 -189h-109v27q239 219 287 301h158q37 -99 128 -235l42 -66v-27z" />
    <glyph glyph-name="idieresis" unicode="&#xef;" horiz-adv-x="520" 
d="M227 0h-168l234 1096h168zM525 1381q0 43 28 77t75 33q77 0 77 -80q1 -49 -29 -83t-67 -34t-61 22t-23 65zM161 1381q0 43 28 77t74 33q78 0 78 -80q1 -49 -29 -83t-67 -34t-61 22t-23 65z" />
    <glyph glyph-name="eth" unicode="&#xf0;" horiz-adv-x="1165" 
d="M486 121q108 0 191 56t134 168t51 228t-65.5 185t-176.5 69t-191 -57.5t-123.5 -161t-43.5 -230.5t58 -192t166 -65zM1063 836q0 -272 -71.5 -466t-203 -292t-312.5 -98t-283.5 104t-102.5 276t67.5 310.5t187 217.5t245.5 79q239 0 315 -170l6 2v17q0 252 -147 437
l-270 -149l-56 108l238 131q-66 58 -146 113l95 117q118 -84 188 -154l260 146l64 -105l-240 -133q166 -219 166 -491z" />
    <glyph glyph-name="ntilde" unicode="&#xf1;" 
d="M897 848q1 52 -35 89q-36 38 -120 38t-168 -60q-182 -129 -246 -440l-101 -475h-168l234 1096h139l-22 -203h10q96 123 186 173t200 50q112 0 186 -70t73 -194q0 -79 -23 -180l-143 -672h-170l148 692q20 104 20 156zM871 1243q-57 1 -151 57q-36 22 -68 38
q-34 18 -72 18t-64 -28t-47 -87h-100q58 258 231 258q64 1 158 -57q36 -22 67 -40t67 -18t60 27q26 27 52 90h100q-66 -258 -233 -258z" />
    <glyph glyph-name="ograve" unicode="&#xf2;" horiz-adv-x="1149" 
d="M879 711q-1 115 -63 187t-170 71q-108 0 -194 -74q-86 -73 -134 -205t-48 -278t64 -218t174 -71q112 0 195 73q83 74 129 208t47 307zM643 1110q190 0 300 -112t110 -306q0 -192 -72 -359t-195 -258q-122 -91 -296 -91t-283 113t-109 306t73 361t197 256q124 90 275 90z
M798 1241h-104q-60 61 -128 154t-96 153v21h181q43 -136 147 -303v-25z" />
    <glyph glyph-name="oacute" unicode="&#xf3;" horiz-adv-x="1149" 
d="M879 711q-1 115 -63 187t-170 71q-108 0 -194 -74q-86 -73 -134 -205t-48 -278t64 -218t174 -71q112 0 195 73q83 74 129 208t47 307zM643 1110q190 0 300 -112t110 -306q0 -192 -72 -359t-195 -258q-122 -91 -296 -91t-283 113t-109 306t73 361t197 256q124 90 275 90z
M1011 1569v-21q-38 -49 -140 -151t-177 -156h-105v27q55 60 125 152t107 149h190z" />
    <glyph glyph-name="ocircumflex" unicode="&#xf4;" horiz-adv-x="1149" 
d="M879 711q-1 115 -63 187t-170 71q-108 0 -194 -74q-86 -73 -134 -205t-48 -278t64 -218t174 -71q112 0 195 73q83 74 129 208t47 307zM643 1110q190 0 300 -112t110 -306q0 -192 -72 -359t-195 -258q-122 -91 -296 -91t-283 113t-109 306t73 361t197 256q124 90 275 90z
M997 1241h-103q-57 48 -161 189q-134 -119 -242 -189h-109v27q239 219 287 301h158q37 -99 128 -235l42 -66v-27z" />
    <glyph glyph-name="otilde" unicode="&#xf5;" horiz-adv-x="1149" 
d="M879 711q-1 115 -63 187t-170 71q-108 0 -194 -74q-86 -73 -134 -205t-48 -278t64 -218t174 -71q112 0 195 73q83 74 129 208t47 307zM643 1110q190 0 300 -112t110 -306q0 -192 -72 -359t-195 -258q-122 -91 -296 -91t-283 113t-109 306t73 361t197 256q124 90 275 90z
M844 1243q-56 1 -150 57q-36 22 -70 38q-34 18 -71 18t-63 -28t-48 -87h-100q58 258 231 258q65 1 159 -57q36 -22 66 -40t66 -18t62 27t51 90h100q-66 -258 -233 -258z" />
    <glyph glyph-name="odieresis" unicode="&#xf6;" horiz-adv-x="1149" 
d="M879 711q-1 115 -63 187t-170 71q-108 0 -194 -74q-86 -73 -134 -205t-48 -278t64 -218t174 -71q112 0 195 73q83 74 129 208t47 307zM643 1110q190 0 300 -112t110 -306q0 -192 -72 -359t-195 -258q-122 -91 -296 -91t-283 113t-109 306t73 361t197 256q124 90 275 90z
M797 1381q0 43 28 77t75 33q77 0 77 -80q1 -49 -29 -83t-67 -34t-61 22t-23 65zM433 1381q0 43 28 77t74 33q78 0 78 -80q1 -49 -29 -83t-67 -34t-61 22t-23 65z" />
    <glyph glyph-name="divide" unicode="&#xf7;" horiz-adv-x="1128" 
d="M475 1071q0 121 111 121q53 0 82.5 -30.5t29.5 -89.5t-30 -90.5t-82 -31.5t-81.5 31t-29.5 90zM475 373q0 121 111 121q53 0 82.5 -30.5t29.5 -89.5t-30 -90.5t-82 -31.5t-81.5 31t-29.5 90zM127 651v142h920v-142h-920z" />
    <glyph glyph-name="oslash" unicode="&#xf8;" horiz-adv-x="1149" 
d="M885 688q0 84 -13 119l-514 -641q57 -45 159 -45t187.5 71.5t133 200.5t47.5 295zM642 971q-103 0 -190.5 -73t-137.5 -201.5t-50 -250.5t17 -167l518 645q-54 47 -157 47zM1047 691q0 -175 -69.5 -346t-191.5 -266t-272 -95t-250 65l-98 -125l-105 82l109 135
q-68 103 -68 281t73.5 345t195.5 255t270 88t254 -68l104 129l105 -79l-119 -129q62 -97 62 -272z" />
    <glyph glyph-name="ugrave" unicode="&#xf9;" 
d="M283 262q0 -143 147 -143q88 0 173 60q181 128 249 442l100 475h166l-231 -1096h-139l22 203h-12q-98 -125 -187 -174t-201 -49t-184 70q-73 70 -73 198q0 62 22 172l146 676h170l-150 -695q-18 -89 -18 -139zM800 1241h-104q-60 61 -128 154t-96 153v21h181
q43 -136 147 -303v-25z" />
    <glyph glyph-name="uacute" unicode="&#xfa;" 
d="M283 262q0 -143 147 -143q88 0 173 60q181 128 249 442l100 475h166l-231 -1096h-139l22 203h-12q-98 -125 -187 -174t-201 -49t-184 70q-73 70 -73 198q0 62 22 172l146 676h170l-150 -695q-18 -89 -18 -139zM1058 1569v-21q-38 -49 -140 -151t-177 -156h-105v27
q56 60 126 152t106 149h190z" />
    <glyph glyph-name="ucircumflex" unicode="&#xfb;" 
d="M283 262q0 -143 147 -143q88 0 173 60q181 128 249 442l100 475h166l-231 -1096h-139l22 203h-12q-98 -125 -187 -174t-201 -49t-184 70q-73 70 -73 198q0 62 22 172l146 676h170l-150 -695q-18 -89 -18 -139zM1024 1241h-103q-57 48 -161 189q-134 -119 -242 -189h-109
v27q239 219 287 301h158q37 -99 128 -235l42 -66v-27z" />
    <glyph glyph-name="udieresis" unicode="&#xfc;" 
d="M283 262q0 -143 147 -143q88 0 173 60q181 128 249 442l100 475h166l-231 -1096h-139l22 203h-12q-98 -125 -187 -174t-201 -49t-184 70q-73 70 -73 198q0 62 22 172l146 676h170l-150 -695q-18 -89 -18 -139zM821 1381q0 43 28 77t75 33q77 0 77 -80q1 -49 -29 -83
t-67 -34t-61 22t-23 65zM457 1381q0 43 28 77t74 33q78 0 78 -80q1 -49 -29 -83t-67 -34t-61 22t-23 65z" />
    <glyph glyph-name="yacute" unicode="&#xfd;" horiz-adv-x="946" 
d="M369 131h6q97 240 164 356l325 609h178l-696 -1282q-93 -172 -184 -239t-219 -67q-72 0 -140 21v135q63 -18 138 -18t133 50t114 150l76 136l-166 1114h168l74 -545q10 -69 20 -203t9 -217zM922 1569v-21q-38 -49 -140 -151t-177 -156h-105v27q56 60 126 152t106 149h190
z" />
    <glyph glyph-name="thorn" unicode="&#xfe;" 
d="M731 975q-96 0 -195.5 -95t-158 -239.5t-58.5 -274.5q0 -248 216 -247q99 0 184.5 81t137.5 230.5t52 317.5q0 227 -178 227zM545 -20q-98 0 -172 51t-113 139h-10q-8 -104 -25 -176l-102 -486h-166l432 2048h168q-113 -523 -154 -671h9q101 125 189 177t183 52
q139 0 218 -97.5t79 -291.5t-69 -371t-191 -275.5t-276 -98.5z" />
    <glyph glyph-name="ydieresis" unicode="&#xff;" horiz-adv-x="946" 
d="M369 131h6q97 240 164 356l325 609h178l-696 -1282q-93 -172 -184 -239t-219 -67q-72 0 -140 21v135q63 -18 138 -18t133 50t114 150l76 136l-166 1114h168l74 -545q10 -69 20 -203t9 -217zM699 1381q0 43 28 77t75 33q77 0 77 -80q1 -49 -29 -83t-67 -34t-61 22t-23 65z
M335 1381q0 43 28 77t74 33q78 0 78 -80q1 -49 -29 -83t-67 -34t-61 22t-23 65z" />
    <glyph glyph-name="Amacron" unicode="&#x100;" horiz-adv-x="1137" 
d="M795 621l-35 299q-24 179 -29 350q-37 -88 -81 -175t-249 -474h394zM813 465h-496l-245 -465h-189l799 1462h174l184 -1462h-170zM534 1720h545l-31 -141h-544z" />
    <glyph glyph-name="amacron" unicode="&#x101;" horiz-adv-x="1157" 
d="M270 346q0 -227 185 -227q91 1 187 93t156 240t60 275q0 126 -56 187t-154 61t-186 -86q-90 -86 -141 -233t-51 -310zM639 1116q92 0 164 -50t112 -142h11l67 172h127l-233 -1096h-133l26 209h-8q-179 -229 -377 -229q-139 0 -218 99t-79 289t71 368t196 279t274 101z
M471 1382h545l-31 -141h-544z" />
    <glyph glyph-name="Abreve" unicode="&#x102;" horiz-adv-x="1137" 
d="M795 621l-35 299q-24 179 -29 350q-37 -88 -81 -175t-249 -474h394zM813 465h-496l-245 -465h-189l799 1462h174l184 -1462h-170zM1102 1847q-66 -268 -318 -268q-122 -1 -190 59t-68 166v21l2 22h98q0 -125 168 -125t201 125h107z" />
    <glyph glyph-name="abreve" unicode="&#x103;" horiz-adv-x="1157" 
d="M270 346q0 -227 185 -227q91 1 187 93t156 240t60 275q0 126 -56 187t-154 61t-186 -86q-90 -86 -141 -233t-51 -310zM639 1116q92 0 164 -50t112 -142h11l67 172h127l-233 -1096h-133l26 209h-8q-179 -229 -377 -229q-139 0 -218 99t-79 289t71 368t196 279t274 101z
M1053 1509q-67 -268 -319 -268q-122 -1 -190 59t-67 166v21l2 22h98q-1 -125 167 -125t202 125h107z" />
    <glyph glyph-name="Aogonek" unicode="&#x104;" horiz-adv-x="1137" 
d="M795 621l-35 299q-24 179 -29 350q-37 -88 -81 -175t-249 -474h394zM876 -328q39 0 80 9v-107q-42 -14 -118 -14t-122 42q-48 42 -48 106q0 66 21 110t61 84t131 98h-11l-57 465h-496l-245 -465h-189l799 1462h174l184 -1462h-43q-82 -65 -116 -102q-74 -81 -74 -153
q0 -73 69 -73z" />
    <glyph glyph-name="aogonek" unicode="&#x105;" horiz-adv-x="1157" 
d="M270 346q0 -227 185 -227q91 1 187 93t156 240t60 275q0 126 -56 187t-154 61t-186 -86q-90 -86 -141 -233t-51 -310zM639 1116q92 0 164 -50t112 -142h11l67 172h127l-233 -1096h-23q-82 -65 -116 -102q-74 -81 -74 -153q0 -73 69 -73q39 0 80 9v-107q-41 -14 -117 -14
t-124 42t-47 106q0 66 21 110t61 84t131 98h6l26 209h-8q-179 -229 -377 -229q-139 0 -218 99t-79 289t71 368t196 279t274 101z" />
    <glyph glyph-name="Cacute" unicode="&#x106;" horiz-adv-x="1198" 
d="M150 538q0 260 106 484t283 343q178 118 389 118t362 -80l-69 -141q-137 69 -295 69t-296 -97q-138 -96 -218 -284t-80 -392t98 -316t252 -111q155 0 338 57v-149q-164 -59 -352 -59q-242 0 -380 150q-138 148 -138 408zM1267 1907v-21q-38 -49 -140 -151t-177 -156h-105
v27q55 60 125 152t107 149h190z" />
    <glyph glyph-name="cacute" unicode="&#x107;" horiz-adv-x="922" 
d="M516 119q113 0 266 67v-143q-124 -63 -276 -63q-194 0 -301 107t-107 305t74 366q74 170 204 264t281 94q150 0 281 -51l-47 -141q-119 51 -225 51q-106 -1 -198 -77t-146 -212q-52 -136 -52 -281q0 -144 66 -215t180 -71zM1024 1569v-21q-38 -49 -140 -151t-177 -156
h-105v27q56 60 126 152t106 149h190z" />
    <glyph glyph-name="Ccircumflex" unicode="&#x108;" horiz-adv-x="1198" 
d="M150 538q0 260 106 484t283 343q178 118 389 118t362 -80l-69 -141q-137 69 -295 69t-296 -97q-138 -96 -218 -284t-80 -392t98 -316t252 -111q155 0 338 57v-149q-164 -59 -352 -59q-242 0 -380 150q-138 148 -138 408zM1227 1579h-103q-57 48 -161 189
q-134 -119 -242 -189h-109v27q239 219 287 301h158q37 -99 128 -235l42 -66v-27z" />
    <glyph glyph-name="ccircumflex" unicode="&#x109;" horiz-adv-x="922" 
d="M516 119q113 0 266 67v-143q-124 -63 -276 -63q-194 0 -301 107t-107 305t74 366q74 170 204 264t281 94q150 0 281 -51l-47 -141q-119 51 -225 51q-106 -1 -198 -77t-146 -212q-52 -136 -52 -281q0 -144 66 -215t180 -71zM964 1241h-103q-57 48 -161 189
q-134 -119 -242 -189h-109v27q239 219 287 301h158q37 -99 128 -235l42 -66v-27z" />
    <glyph glyph-name="Cdot" unicode="&#x10a;" horiz-adv-x="1198" 
d="M150 538q0 260 106 484t283 343q178 118 389 118t362 -80l-69 -141q-137 69 -295 69t-296 -97q-138 -96 -218 -284t-80 -392t98 -316t252 -111q155 0 338 57v-149q-164 -59 -352 -59q-242 0 -380 150q-138 148 -138 408zM822 1718q0 49 32 86t82 37q88 0 88 -90
q0 -55 -34 -93t-74 -38t-67 24t-27 74z" />
    <glyph glyph-name="cdot" unicode="&#x10b;" horiz-adv-x="922" 
d="M516 119q113 0 266 67v-143q-124 -63 -276 -63q-194 0 -301 107t-107 305t74 366q74 170 204 264t281 94q150 0 281 -51l-47 -141q-119 51 -225 51q-106 -1 -198 -77t-146 -212q-52 -136 -52 -281q0 -144 66 -215t180 -71zM605 1380q0 49 32 86t82 37q88 0 88 -90
q1 -55 -33 -93t-74 -38t-68 24q-27 24 -27 74z" />
    <glyph glyph-name="Ccaron" unicode="&#x10c;" horiz-adv-x="1198" 
d="M150 538q0 260 106 484t283 343q178 118 389 118t362 -80l-69 -141q-137 69 -295 69t-296 -97q-138 -96 -218 -284t-80 -392t98 -316t252 -111q155 0 338 57v-149q-164 -59 -352 -59q-242 0 -380 150q-138 148 -138 408zM633 1907h100q41 -32 81 -82t81 -107
q123 109 246 189h106v-27q-221 -196 -286 -301h-160q-34 95 -125 235l-43 66v27z" />
    <glyph glyph-name="ccaron" unicode="&#x10d;" horiz-adv-x="922" 
d="M516 119q113 0 266 67v-143q-124 -63 -276 -63q-194 0 -301 107t-107 305t74 366q74 170 204 264t281 94q150 0 281 -51l-47 -141q-119 51 -225 51q-106 -1 -198 -77t-146 -212q-52 -136 -52 -281q0 -144 66 -215t180 -71zM402 1569h100q40 -32 80 -82t82 -107
q123 109 246 189h106v-27q-221 -196 -286 -301h-160q-34 95 -125 235l-43 66v27z" />
    <glyph glyph-name="Dcaron" unicode="&#x10e;" horiz-adv-x="1364" 
d="M449 147q202 -1 355 91q152 92 234 259t82 382t-103 325t-302 111h-178l-250 -1168h162zM1300 890q0 -274 -105 -474t-300 -308t-457 -108h-352l309 1462h342q275 0 419 -150q144 -148 144 -422zM561 1907h100q41 -32 81 -82t81 -107q123 109 246 189h106v-27
q-221 -196 -286 -301h-160q-34 95 -125 235l-43 66v27z" />
    <glyph glyph-name="dcaron" unicode="&#x10f;" 
d="M860 728q0 247 -210 247q-102 -1 -188 -83t-140 -232q-52 -150 -52 -314q0 -227 179 -227q94 -1 194 93q101 94 159 240t58 276zM639 1114q194 0 281 -190h10q17 155 45 274l78 358h166l-330 -1556h-139l22 209h-8q-101 -125 -189 -177t-182 -52q-139 0 -217 98t-78 292
t72 372t194 275t275 97zM1552 1556v-20q-20 -54 -91 -154t-126 -153h-92v26q37 55 84 151t66 150h159z" />
    <glyph glyph-name="Dcroat" unicode="&#x110;" horiz-adv-x="1364" 
d="M449 147q202 -1 355 91q152 92 234 259t82 382t-103 325t-302 111h-178l-111 -516h330l-33 -150h-330l-106 -502h162zM1300 890q0 -274 -105 -474t-300 -308t-457 -108h-352l135 649h-149l32 150h150l141 663h342q275 0 419 -150q144 -148 144 -422z" />
    <glyph glyph-name="dcroat" unicode="&#x111;" 
d="M449 119q94 0 194.5 96.5t158.5 241.5t58 277q0 248 -215 249q-103 0 -187.5 -84t-136 -233t-51.5 -320q0 -227 179 -227zM635 1122q97 0 170.5 -50t114.5 -140h10l11 87l15 95l27 127h-373l27 129h377l39 186h166l-41 -186h149l-27 -129h-149l-262 -1241h-139l22 209h-8
q-101 -125 -189 -177t-182 -52q-139 0 -217 98t-78 292t68 371t191 279t278 102z" />
    <glyph glyph-name="Emacron" unicode="&#x112;" horiz-adv-x="1047" 
d="M821 0h-735l309 1462h735l-32 -153h-566l-98 -469h527l-29 -152h-529l-114 -536h565zM526 1720h545l-31 -141h-544z" />
    <glyph glyph-name="emacron" unicode="&#x113;" horiz-adv-x="1010" 
d="M618 973q-90 0 -180 -94t-139 -261h12q227 0 349 60t122 172q0 53 -36 88q-38 35 -128 35zM518 121q125 0 299 84v-146q-94 -43 -166 -61t-159 -18q-184 0 -289 109t-105 299t74 364q74 172 198 268t274 96t227 -66t77 -186q0 -180 -166 -282t-475 -103h-33l-4 -80
q0 -131 62 -205t186 -73zM436 1382h545l-31 -141h-544z" />
    <glyph glyph-name="Ebreve" unicode="&#x114;" horiz-adv-x="1047" 
d="M821 0h-735l309 1462h735l-32 -153h-566l-98 -469h527l-29 -152h-529l-114 -536h565zM1112 1847q-66 -268 -318 -268q-122 -1 -190 59t-68 166v21l2 22h98q0 -125 168 -125t201 125h107z" />
    <glyph glyph-name="ebreve" unicode="&#x115;" horiz-adv-x="1010" 
d="M618 973q-90 0 -180 -94t-139 -261h12q227 0 349 60t122 172q0 53 -36 88q-38 35 -128 35zM518 121q125 0 299 84v-146q-94 -43 -166 -61t-159 -18q-184 0 -289 109t-105 299t74 364q74 172 198 268t274 96t227 -66t77 -186q0 -180 -166 -282t-475 -103h-33l-4 -80
q0 -131 62 -205t186 -73zM1005 1509q-67 -268 -319 -268q-122 -1 -190 59t-67 166v21l2 22h98q-1 -125 167 -125t202 125h107z" />
    <glyph glyph-name="Edotaccent" unicode="&#x116;" horiz-adv-x="1047" 
d="M821 0h-735l309 1462h735l-32 -153h-566l-98 -469h527l-29 -152h-529l-114 -536h565zM672 1689q0 49 32 86t82 37q88 0 88 -90q0 -55 -34 -93t-74 -38q-40 1 -67 25t-27 73z" />
    <glyph glyph-name="edotaccent" unicode="&#x117;" horiz-adv-x="1010" 
d="M618 973q-90 0 -180 -94t-139 -261h12q227 0 349 60t122 172q0 53 -36 88q-38 35 -128 35zM518 121q125 0 299 84v-146q-94 -43 -166 -61t-159 -18q-184 0 -289 109t-105 299t74 364q74 172 198 268t274 96t227 -66t77 -186q0 -180 -166 -282t-475 -103h-33l-4 -80
q0 -131 62 -205t186 -73zM584 1380q0 49 32 86t82 37q88 0 88 -90q0 -55 -34 -93t-74 -38t-67 24t-27 74z" />
    <glyph glyph-name="Eogonek" unicode="&#x118;" horiz-adv-x="1047" 
d="M651 -328q39 0 80 9v-107q-41 -14 -117 -14t-124 42t-47 106q0 66 21 110t61 84t131 98h-570l309 1462h735l-32 -153h-566l-98 -469h527l-29 -152h-529l-114 -536h565l-33 -152h-49q-82 -65 -116 -102q-74 -81 -74 -153q0 -73 69 -73z" />
    <glyph glyph-name="eogonek" unicode="&#x119;" horiz-adv-x="1010" 
d="M618 973q-90 0 -180 -94t-139 -261h12q227 0 349 60t122 172q0 53 -36 88q-38 35 -128 35zM400 -248q0 127 140 229q-23 -1 -48 -1q-184 0 -289 109t-105 299t74 364q74 172 198 268t274 96t227 -66t77 -186q0 -180 -166 -282t-475 -103h-33l-4 -80q0 -131 62 -205
t186 -73q125 0 299 84v-146q-59 -27 -109 -45q-113 -92 -149 -160q-20 -38 -20 -81q0 -70 69 -70q39 0 80 9v-107q-42 -14 -118 -14q-76 -1 -122 41q-48 42 -48 120z" />
    <glyph glyph-name="Ecaron" unicode="&#x11a;" horiz-adv-x="1047" 
d="M821 0h-735l309 1462h735l-32 -153h-566l-98 -469h527l-29 -152h-529l-114 -536h565zM514 1907h100q40 -32 80 -82t82 -107q123 109 246 189h106v-27q-221 -196 -286 -301h-160q-34 95 -125 235l-43 66v27z" />
    <glyph glyph-name="ecaron" unicode="&#x11b;" horiz-adv-x="1010" 
d="M618 973q-90 0 -180 -94t-139 -261h12q227 0 349 60t122 172q0 53 -36 88q-38 35 -128 35zM518 121q125 0 299 84v-146q-94 -43 -166 -61t-159 -18q-184 0 -289 109t-105 299t74 364q74 172 198 268t274 96t227 -66t77 -186q0 -180 -166 -282t-475 -103h-33l-4 -80
q0 -131 62 -205t186 -73zM405 1569h100q41 -32 81 -82t81 -107q123 109 246 189h106v-27q-221 -196 -286 -301h-160q-34 95 -125 235l-43 66v27z" />
    <glyph glyph-name="Gcircumflex" unicode="&#x11c;" horiz-adv-x="1386" 
d="M332 556q0 -208 102 -316q102 -109 272 -109q169 0 275 39l96 444h-289l33 152h459l-154 -711q-216 -75 -419 -75q-265 0 -411 144t-146 409t102 485t281 342q180 122 403 123q223 0 422 -84l-66 -152q-190 84 -360 84q-170 1 -308 -101t-215 -284t-77 -390zM1219 1579
h-103q-57 48 -161 189q-134 -119 -242 -189h-109v27q239 219 287 301h158q37 -99 128 -235l42 -66v-27z" />
    <glyph glyph-name="gcircumflex" unicode="&#x11d;" horiz-adv-x="1026" 
d="M313 680q0 -86 45 -130q44 -44 124 -44t139 42t91 116t31 157q0 84 -44 127t-124 43q-81 -1 -139 -41t-90 -112t-33 -158zM35 -189q0 -83 65 -128t220 -45q156 0 258 64t102 179q0 62 -54 98t-184 50l-159 16q-120 -25 -184 -88t-64 -146zM905 807q-1 -191 -117 -305
t-311 -113q-55 0 -84 8q-139 -53 -139 -131q0 -40 33 -54t96 -22l117 -14q180 -22 262 -88t82 -194q0 -184 -146 -285t-411 -101q-194 0 -304 74t-110 207q0 105 72 182t233 131q-78 42 -78 116t51 124t142 92q-63 32 -103 94t-40 146q0 194 120 318t305 124q78 0 154 -20
h371l-25 -107l-211 -24q41 -62 41 -158zM952 1241h-103q-57 48 -161 189q-134 -119 -242 -189h-109v27q239 219 287 301h158q37 -99 128 -235l42 -66v-27z" />
    <glyph glyph-name="Gbreve" unicode="&#x11e;" horiz-adv-x="1386" 
d="M332 556q0 -208 102 -316q102 -109 272 -109q169 0 275 39l96 444h-289l33 152h459l-154 -711q-216 -75 -419 -75q-265 0 -411 144t-146 409t102 485t281 342q180 122 403 123q223 0 422 -84l-66 -152q-190 84 -360 84q-170 1 -308 -101t-215 -284t-77 -390zM1237 1847
q-67 -268 -319 -268q-122 -1 -190 59t-67 166v21l2 22h98q-1 -125 167 -125t202 125h107z" />
    <glyph glyph-name="gbreve" unicode="&#x11f;" horiz-adv-x="1026" 
d="M313 680q0 -86 45 -130q44 -44 124 -44t139 42t91 116t31 157q0 84 -44 127t-124 43q-81 -1 -139 -41t-90 -112t-33 -158zM35 -189q0 -83 65 -128t220 -45q156 0 258 64t102 179q0 62 -54 98t-184 50l-159 16q-120 -25 -184 -88t-64 -146zM905 807q-1 -191 -117 -305
t-311 -113q-55 0 -84 8q-139 -53 -139 -131q0 -40 33 -54t96 -22l117 -14q180 -22 262 -88t82 -194q0 -184 -146 -285t-411 -101q-194 0 -304 74t-110 207q0 105 72 182t233 131q-78 42 -78 116t51 124t142 92q-63 32 -103 94t-40 146q0 194 120 318t305 124q78 0 154 -20
h371l-25 -107l-211 -24q41 -62 41 -158zM980 1509q-66 -268 -318 -268q-122 -1 -190 59t-68 166v21l2 22h98q0 -125 168 -125t201 125h107z" />
    <glyph glyph-name="Gdot" unicode="&#x120;" horiz-adv-x="1386" 
d="M332 556q0 -208 102 -316q102 -109 272 -109q169 0 275 39l96 444h-289l33 152h459l-154 -711q-216 -75 -419 -75q-265 0 -411 144t-146 409t102 485t281 342q180 122 403 123q223 0 422 -84l-66 -152q-190 84 -360 84q-170 1 -308 -101t-215 -284t-77 -390zM836 1718
q0 49 32 86t82 37q88 0 88 -90q0 -55 -34 -93t-74 -38t-67 24t-27 74z" />
    <glyph glyph-name="gdot" unicode="&#x121;" horiz-adv-x="1026" 
d="M313 680q0 -86 45 -130q44 -44 124 -44t139 42t91 116t31 157q0 84 -44 127t-124 43q-81 -1 -139 -41t-90 -112t-33 -158zM35 -189q0 -83 65 -128t220 -45q156 0 258 64t102 179q0 62 -54 98t-184 50l-159 16q-120 -25 -184 -88t-64 -146zM905 807q-1 -191 -117 -305
t-311 -113q-55 0 -84 8q-139 -53 -139 -131q0 -40 33 -54t96 -22l117 -14q180 -22 262 -88t82 -194q0 -184 -146 -285t-411 -101q-194 0 -304 74t-110 207q0 105 72 182t233 131q-78 42 -78 116t51 124t142 92q-63 32 -103 94t-40 146q0 194 120 318t305 124q78 0 154 -20
h371l-25 -107l-211 -24q41 -62 41 -158zM611 1380q0 49 32 86t82 37q88 0 88 -90q1 -55 -33 -93t-74 -38t-68 24q-27 24 -27 74z" />
    <glyph glyph-name="Gcommaaccent" unicode="&#x122;" horiz-adv-x="1386" 
d="M332 556q0 -208 102 -316q102 -109 272 -109q169 0 275 39l96 444h-289l33 152h459l-154 -711q-216 -75 -419 -75q-265 0 -411 144t-146 409t102 485t281 342q180 122 403 123q223 0 422 -84l-66 -152q-190 84 -360 84q-170 1 -308 -101t-215 -284t-77 -390zM764 -125
v-20q-22 -59 -90 -156t-125 -152h-92v27q88 136 147 301h160z" />
    <glyph glyph-name="gcommaaccent" unicode="&#x123;" horiz-adv-x="1026" 
d="M313 680q0 -86 45 -130q44 -44 124 -44t139 42t91 116t31 157q0 84 -44 127t-124 43q-81 -1 -139 -41t-90 -112t-33 -158zM35 -189q0 -83 65 -128t220 -45q156 0 258 64t102 179q0 62 -54 98t-184 50l-159 16q-120 -25 -184 -88t-64 -146zM905 807q-1 -191 -117 -305
t-311 -113q-55 0 -84 8q-139 -53 -139 -131q0 -40 33 -54t96 -22l117 -14q180 -22 262 -88t82 -194q0 -184 -146 -285t-411 -101q-194 0 -304 74t-110 207q0 105 72 182t233 131q-78 42 -78 116t51 124t142 92q-63 32 -103 94t-40 146q0 194 120 318t305 124q78 0 154 -20
h371l-25 -107l-211 -24q41 -62 41 -158zM621 1241v21q16 46 85 146t130 161h92v-27q-36 -54 -82 -150t-65 -151h-160z" />
    <glyph glyph-name="Hcircumflex" unicode="&#x124;" horiz-adv-x="1389" 
d="M1085 0h-167l143 688h-660l-145 -688h-170l309 1462h170l-131 -622h660l133 622h168zM1200 1579h-103q-57 48 -161 189q-134 -119 -242 -189h-109v27q239 219 287 301h158q37 -99 128 -235l42 -66v-27z" />
    <glyph glyph-name="hcircumflex" unicode="&#x125;" 
d="M895 827q0 148 -147 148q-90 0 -174 -59q-181 -126 -246 -443l-101 -473h-168l330 1556h168q-19 -82 -35 -159q-68 -318 -119 -512h11q94 123 186 176t206 53q116 0 188 -72t71 -204q0 -62 -31 -210t-137 -628h-168l148 692q18 94 18 135zM1075 1634h-103
q-57 48 -161 189q-134 -119 -242 -189h-109v27q239 219 287 301h158q37 -99 128 -235l42 -66v-27z" />
    <glyph glyph-name="Hbar" unicode="&#x126;" horiz-adv-x="1389" 
d="M1094 840l49 229h-662l-47 -229h660zM1348 1212h186l-29 -143h-190l-225 -1069h-172l143 688h-660l-145 -688h-170l225 1069h-186l31 143h186l53 250h170l-53 -250h659l56 250h172z" />
    <glyph glyph-name="hbar" unicode="&#x127;" 
d="M893 813q0 152 -148 152q-88 0 -221.5 -94.5t-199.5 -407.5l-97 -463h-168l265 1241h-152l29 129h149l39 186h168l-41 -186h350l-28 -129h-349l-88 -367h11q165 230 374 230q134 0 204.5 -73.5t70.5 -207.5q0 -58 -23 -166l-141 -657h-168l145 678q19 89 19 135z" />
    <glyph glyph-name="Itilde" unicode="&#x128;" horiz-adv-x="559" 
d="M86 0l311 1462h168l-311 -1462h-168zM653 1581q-57 1 -151 57q-36 22 -68 38q-34 18 -72 18t-64 -28t-47 -87h-100q58 258 231 258q64 1 158 -57q36 -22 67 -40t67 -18t60 27q26 27 52 90h100q-66 -258 -233 -258z" />
    <glyph glyph-name="itilde" unicode="&#x129;" horiz-adv-x="520" 
d="M227 0h-168l234 1096h168zM565 1243q-57 1 -151 57q-36 22 -68 38q-34 18 -72 18t-64 -28t-47 -87h-100q58 258 231 258q64 1 158 -57q36 -22 67 -40t67 -18t60 27q26 27 52 90h100q-66 -258 -233 -258z" />
    <glyph glyph-name="Imacron" unicode="&#x12a;" horiz-adv-x="559" 
d="M86 0l311 1462h168l-311 -1462h-168zM253 1720h545l-31 -141h-544z" />
    <glyph glyph-name="imacron" unicode="&#x12b;" horiz-adv-x="520" 
d="M227 0h-168l234 1096h168zM158 1382h545l-31 -141h-544z" />
    <glyph glyph-name="Ibreve" unicode="&#x12c;" horiz-adv-x="559" 
d="M86 0l311 1462h168l-311 -1462h-168zM833 1847q-67 -268 -319 -268q-122 -1 -190 59t-67 166v21l2 22h98q-1 -125 167 -125t202 125h107z" />
    <glyph glyph-name="ibreve" unicode="&#x12d;" horiz-adv-x="520" 
d="M227 0h-168l234 1096h168zM728 1509q-66 -268 -318 -268q-122 -1 -190 59t-68 166v21l2 22h98q0 -125 168 -125t201 125h107z" />
    <glyph glyph-name="Iogonek" unicode="&#x12e;" horiz-adv-x="559" 
d="M133 -328q39 0 80 9v-107q-41 -14 -117 -14t-124 42t-47 106q0 66 21 110t61 84t131 98h-52l311 1462h168l-311 -1462q-82 -65 -116 -102q-74 -81 -74 -153q0 -73 69 -73z" />
    <glyph glyph-name="iogonek" unicode="&#x12f;" horiz-adv-x="520" 
d="M340 1382q0 50 32 86t83 35q88 0 88 -90q1 -55 -33 -93t-76 -38t-68 24q-26 26 -26 76zM106 -328q39 0 80 9v-107q-42 -14 -118 -14t-122 42q-48 42 -48 106q0 66 21 110t61 84t131 98h-52l234 1096h168l-234 -1096q-82 -65 -116 -102q-74 -81 -74 -153q0 -73 69 -73z
" />
    <glyph glyph-name="Idotaccent" unicode="&#x130;" horiz-adv-x="559" 
d="M86 0l311 1462h168l-311 -1462h-168zM426 1718q0 49 32 86t82 37q88 0 88 -90q0 -55 -34 -93t-74 -38t-67 24t-27 74z" />
    <glyph glyph-name="dotlessi" unicode="&#x131;" horiz-adv-x="520" 
d="M227 0h-168l234 1096h168z" />
    <glyph glyph-name="IJ" unicode="&#x132;" horiz-adv-x="1106" 
d="M86 0l311 1462h168l-311 -1462h-168zM393 -385q-105 0 -153 25l6 147q69 -20 157 -20q87 1 153 63t91 182l307 1450h170l-309 -1468q-79 -379 -422 -379z" />
    <glyph glyph-name="ij" unicode="&#x133;" horiz-adv-x="1040" 
d="M340 1382q0 50 32 86t83 35q88 0 88 -90q1 -55 -33 -93t-76 -38t-68 24q-26 26 -26 76zM227 0h-168l234 1096h168zM860 1382q0 50 32 86t83 35q86 0 86 -90q1 -55 -33 -93t-75 -38t-67 24q-26 26 -26 76zM385 -492q-69 0 -123 21v141q61 -22 119 -22q125 0 168 205
l264 1243h166l-266 -1258q-37 -170 -115 -250t-213 -80z" />
    <glyph glyph-name="Jcircumflex" unicode="&#x134;" horiz-adv-x="547" 
d="M-166 -385q-105 0 -153 25l6 147q69 -20 157 -20q88 1 154 63t90 182l307 1450h170l-309 -1468q-79 -379 -422 -379zM796 1579h-103q-57 48 -161 189q-134 -119 -242 -189h-109v27q239 219 287 301h158q37 -99 128 -235l42 -66v-27z" />
    <glyph glyph-name="jcircumflex" unicode="&#x135;" horiz-adv-x="520" 
d="M-135 -492q-69 0 -123 21v141q61 -22 119 -22q125 0 168 205l264 1243h166l-266 -1258q-37 -170 -115 -250t-213 -80zM700 1241h-103q-57 48 -161 189q-134 -119 -242 -189h-109v27q239 219 287 301h158q37 -99 128 -235l42 -66v-27z" />
    <glyph glyph-name="Kcommaaccent" unicode="&#x136;" horiz-adv-x="1141" 
d="M1034 0h-186q-72 182 -146 360t-147 361l-174 -131l-125 -590h-170l309 1462h170l-151 -710l700 710h209l-639 -637zM606 -125v-20q-22 -59 -90 -156t-125 -152h-92v27q88 136 147 301h160z" />
    <glyph glyph-name="kcommaaccent" unicode="&#x137;" horiz-adv-x="999" 
d="M330 559l526 537h201l-469 -467l295 -629h-187l-235 524l-152 -123l-82 -401h-170l330 1556h170l-129 -602q-57 -266 -102 -395h4zM533 -125v-20q-22 -59 -90 -156t-125 -152h-92v27q88 136 147 301h160z" />
    <glyph glyph-name="kgreenlandic" unicode="&#x138;" horiz-adv-x="999" 
d="M330 559l526 537h201l-469 -467l295 -629h-187l-235 524l-152 -123l-82 -401h-170l232 1096h170l-62 -281q-11 -57 -71 -256h4z" />
    <glyph glyph-name="Lacute" unicode="&#x139;" horiz-adv-x="971" 
d="M86 0l309 1462h170l-276 -1308h565l-33 -154h-735zM859 1907v-21q-38 -49 -140 -151t-177 -156h-105v27q55 60 125 152t107 149h190z" />
    <glyph glyph-name="lacute" unicode="&#x13a;" horiz-adv-x="520" 
d="M225 0h-168l332 1556h168zM828 1964v-21q-38 -49 -140 -151t-177 -156h-105v27q56 59 126 151t106 150h190z" />
    <glyph glyph-name="Lcommaaccent" unicode="&#x13b;" horiz-adv-x="971" 
d="M86 0l309 1462h170l-276 -1308h565l-33 -154h-735zM619 -125v-20q-22 -59 -90 -156t-125 -152h-92v27q88 136 147 301h160z" />
    <glyph glyph-name="lcommaaccent" unicode="&#x13c;" horiz-adv-x="520" 
d="M225 0h-168l332 1556h168zM210 -125v-20q-22 -59 -90 -156t-125 -152h-92v27q88 136 147 301h160z" />
    <glyph glyph-name="Lcaron" unicode="&#x13d;" horiz-adv-x="971" 
d="M86 0l309 1462h170l-276 -1308h565l-33 -154h-735zM1060 1463v-20q-20 -55 -91 -155t-126 -152h-92v26q37 56 84 152t66 149h159z" />
    <glyph glyph-name="lcaron" unicode="&#x13e;" horiz-adv-x="520" 
d="M225 0h-168l332 1556h168zM890 1556v-20q-20 -54 -91 -154t-126 -153h-92v26q37 55 84 151t66 150h159z" />
    <glyph glyph-name="Ldot" unicode="&#x13f;" horiz-adv-x="971" 
d="M86 0l309 1462h170l-276 -1308h565l-33 -154h-735zM684 713q0 49 32 86t82 37q88 0 88 -90q0 -55 -34 -93t-74 -38q-40 1 -67 25t-27 73z" />
    <glyph glyph-name="ldot" unicode="&#x140;" horiz-adv-x="580" 
d="M225 0h-168l332 1556h168zM494 742q0 49 32 86t82 37q88 0 88 -90q0 -55 -34 -93t-74 -38t-67 24t-27 74z" />
    <glyph glyph-name="Lslash" unicode="&#x141;" horiz-adv-x="971" 
d="M84 0l109 506l-111 -64l-59 109l202 117l168 794h172l-145 -682l237 135l60 -106l-330 -191l-98 -464h565l-33 -154h-737z" />
    <glyph glyph-name="lslash" unicode="&#x142;" horiz-adv-x="512" 
d="M408 870l124 74l54 -104l-213 -127l-152 -713h-168l127 596l-119 -72l-57 105l209 127l172 800h168z" />
    <glyph glyph-name="Nacute" unicode="&#x143;" horiz-adv-x="1438" 
d="M1139 0h-181l-460 1223h-6q-32 -221 -74 -418l-172 -805h-162l309 1462h180l459 -1220h6q30 224 72 405l174 815h164zM1253 1907v-21q-38 -49 -140 -151t-177 -156h-105v27q55 60 125 152t107 149h190z" />
    <glyph glyph-name="nacute" unicode="&#x144;" 
d="M897 848q1 52 -35 89q-36 38 -120 38t-168 -60q-182 -129 -246 -440l-101 -475h-168l234 1096h139l-22 -203h10q96 123 186 173t200 50q112 0 186 -70t73 -194q0 -79 -23 -180l-143 -672h-170l148 692q20 104 20 156zM1067 1569v-21q-38 -49 -140 -151t-177 -156h-105v27
q55 60 125 152t107 149h190z" />
    <glyph glyph-name="Ncommaaccent" unicode="&#x145;" horiz-adv-x="1438" 
d="M1139 0h-181l-460 1223h-6q-32 -221 -74 -418l-172 -805h-162l309 1462h180l459 -1220h6q30 224 72 405l174 815h164zM688 -125v-20q-22 -59 -90 -156t-125 -152h-92v27q88 136 147 301h160z" />
    <glyph glyph-name="ncommaaccent" unicode="&#x146;" 
d="M897 848q1 52 -35 89q-36 38 -120 38t-168 -60q-182 -129 -246 -440l-101 -475h-168l234 1096h139l-22 -203h10q96 123 186 173t200 50q112 0 186 -70t73 -194q0 -79 -23 -180l-143 -672h-170l148 692q20 104 20 156zM549 -125v-20q-22 -59 -90 -156t-125 -152h-92v27
q88 136 147 301h160z" />
    <glyph glyph-name="Ncaron" unicode="&#x147;" horiz-adv-x="1438" 
d="M1139 0h-181l-460 1223h-6q-32 -221 -74 -418l-172 -805h-162l309 1462h180l459 -1220h6q30 224 72 405l174 815h164zM649 1907h100q41 -32 81 -82t81 -107q123 109 246 189h106v-27q-221 -196 -286 -301h-160q-34 95 -125 235l-43 66v27z" />
    <glyph glyph-name="ncaron" unicode="&#x148;" 
d="M897 848q1 52 -35 89q-36 38 -120 38t-168 -60q-182 -129 -246 -440l-101 -475h-168l234 1096h139l-22 -203h10q96 123 186 173t200 50q112 0 186 -70t73 -194q0 -79 -23 -180l-143 -672h-170l148 692q20 104 20 156zM460 1569h100q40 -32 80 -82t82 -107
q123 109 246 189h106v-27q-221 -196 -286 -301h-160q-34 95 -125 235l-43 66v27z" />
    <glyph glyph-name="napostrophe" unicode="&#x149;" horiz-adv-x="1321" 
d="M1036 848q0 52 -36 89q-36 38 -118 38q-84 0 -168 -60q-182 -129 -247 -440l-101 -475h-168l234 1096h139l-22 -203h10q95 123 185 173t202 50t184 -70q74 -70 74 -194q0 -79 -23 -180l-143 -672h-170l148 692q20 104 20 156zM492 1440q-93 -211 -270 -479h-129
q134 298 203 501h188z" />
    <glyph glyph-name="Eng" unicode="&#x14a;" horiz-adv-x="1438" 
d="M717 -383q-104 0 -154 25l8 147q64 -20 156 -20t155.5 60t86.5 171l-471 1223h-9q-39 -265 -71 -418l-172 -805h-162l309 1462h182l455 -1214h6q20 123 44.5 258t201.5 956h166l-309 -1462q-82 -383 -422 -383z" />
    <glyph glyph-name="eng" unicode="&#x14b;" 
d="M537 -492q-67 0 -123 21v141q64 -22 118 -22q124 0 166 207l179 837q20 104 20 156t-35.5 89.5t-119.5 37.5t-216.5 -94.5t-197.5 -405.5l-101 -475h-168l234 1096h139l-22 -203h10q96 122 185 172.5t201 50.5t185.5 -69.5t73.5 -194.5q0 -76 -23 -180l-178 -836
q-36 -172 -114.5 -250t-212.5 -78z" />
    <glyph glyph-name="Omacron" unicode="&#x14c;" horiz-adv-x="1475" 
d="M879 1333q-162 0 -286 -101q-125 -101 -193 -281q-68 -181 -68 -389t98 -320t258 -111q160 -1 280 97t191 280q70 182 70 392t-94 322t-256 111zM1411 908q0 -270 -88 -482t-252 -330q-164 -116 -379 -116q-256 0 -399 150t-143 416q0 267 96 485t264 336t394 118
q227 0 367 -154q140 -153 140 -423zM667 1720h545l-31 -141h-544z" />
    <glyph glyph-name="omacron" unicode="&#x14d;" horiz-adv-x="1149" 
d="M879 711q-1 115 -63 187t-170 71q-108 0 -194 -74q-86 -73 -134 -205t-48 -278t64 -218t174 -71q112 0 195 73q83 74 129 208t47 307zM643 1110q190 0 300 -112t110 -306q0 -192 -72 -359t-195 -258q-122 -91 -296 -91t-283 113t-109 306t73 361t197 256q124 90 275 90z
M438 1382h545l-31 -141h-544z" />
    <glyph glyph-name="Obreve" unicode="&#x14e;" horiz-adv-x="1475" 
d="M879 1333q-162 0 -286 -101q-125 -101 -193 -281q-68 -181 -68 -389t98 -320t258 -111q160 -1 280 97t191 280q70 182 70 392t-94 322t-256 111zM1411 908q0 -270 -88 -482t-252 -330q-164 -116 -379 -116q-256 0 -399 150t-143 416q0 267 96 485t264 336t394 118
q227 0 367 -154q140 -153 140 -423zM1217 1847q-67 -268 -319 -268q-122 -1 -190 59t-67 166v21l2 22h98q-1 -125 167 -125t202 125h107z" />
    <glyph glyph-name="obreve" unicode="&#x14f;" horiz-adv-x="1149" 
d="M879 711q-1 115 -63 187t-170 71q-108 0 -194 -74q-86 -73 -134 -205t-48 -278t64 -218t174 -71q112 0 195 73q83 74 129 208t47 307zM643 1110q190 0 300 -112t110 -306q0 -192 -72 -359t-195 -258q-122 -91 -296 -91t-283 113t-109 306t73 361t197 256q124 90 275 90z
M1005 1509q-67 -268 -319 -268q-122 -1 -190 59t-67 166v21l2 22h98q-1 -125 167 -125t202 125h107z" />
    <glyph glyph-name="Ohungarumlaut" unicode="&#x150;" horiz-adv-x="1475" 
d="M879 1333q-162 0 -286 -101q-125 -101 -193 -281q-68 -181 -68 -389t98 -320t258 -111q160 -1 280 97t191 280q70 182 70 392t-94 322t-256 111zM1411 908q0 -270 -88 -482t-252 -330q-164 -116 -379 -116q-256 0 -399 150t-143 416q0 267 96 485t264 336t394 118
q227 0 367 -154q140 -153 140 -423zM1436 1907v-21q-51 -65 -149 -161t-167 -146h-86v27q46 51 116 141t114 160h172zM1094 1907v-21q-51 -65 -149 -161t-167 -146h-86v27q44 46 114 136t116 165h172z" />
    <glyph glyph-name="ohungarumlaut" unicode="&#x151;" horiz-adv-x="1149" 
d="M879 711q-1 115 -63 187t-170 71q-108 0 -194 -74q-86 -73 -134 -205t-48 -278t64 -218t174 -71q112 0 195 73q83 74 129 208t47 307zM643 1110q190 0 300 -112t110 -306q0 -192 -72 -359t-195 -258q-122 -91 -296 -91t-283 113t-109 306t73 361t197 256q124 90 275 90z
M1164 1569v-21q-51 -65 -149 -161t-167 -146h-86v27q46 51 116 141t114 160h172zM822 1569v-21q-51 -65 -149 -161t-167 -146h-86v27q44 46 114 136t116 165h172z" />
    <glyph glyph-name="OE" unicode="&#x152;" horiz-adv-x="1751" 
d="M696 131q69 0 123 19l246 1161q-76 22 -191 22q-157 0 -281 -101t-192.5 -281.5t-68.5 -388.5t98 -319.5t266 -111.5zM692 -20q-256 0 -399 149.5t-143 416.5t96 485t263.5 336t377.5 118q152 0 237 -23h709l-31 -153h-565l-100 -469h528l-31 -150h-528l-115 -538h565
l-32 -152h-674q-78 -20 -158 -20z" />
    <glyph glyph-name="oe" unicode="&#x153;" horiz-adv-x="1769" 
d="M1413 973q-125 0 -220.5 -94.5t-139.5 -260.5h18q231 0 351 61t120 177q0 48 -32 82.5t-97 34.5zM652 969q-112 0 -199 -73t-135 -202t-48 -277t62 -221t172 -73q177 0 278 160.5t101 427.5q0 124 -59.5 191t-171.5 67zM1014 885q159 231 409 231q129 0 207 -65.5
t78 -186.5q0 -183 -164.5 -284t-468.5 -101h-41l-4 -80q0 -131 61.5 -204.5t190.5 -73.5q75 0 145 24.5t150 59.5v-150q-162 -75 -326 -75q-270 0 -356 225q-69 -107 -171.5 -164t-225.5 -57q-184 0 -292 114t-108 308t75 360.5t201 255t281 88.5q270 0 359 -225z" />
    <glyph glyph-name="Racute" unicode="&#x154;" horiz-adv-x="1165" 
d="M584 754q193 0 297 85t104 244q1 121 -67 175t-220 55h-166q-102 -494 -116 -559h168zM715 1462q446 0 446 -366q0 -348 -368 -449l239 -647h-186l-209 608h-252l-129 -608h-170l309 1462h320zM1099 1907v-21q-38 -49 -140 -151t-177 -156h-105v27q55 60 125 152t107 149
h190z" />
    <glyph glyph-name="racute" unicode="&#x155;" horiz-adv-x="811" 
d="M755 1116q66 0 117 -14l-36 -150q-53 13 -105 13q-91 0 -171 -60q-80 -61 -138 -167q-60 -106 -88 -236l-107 -502h-168l234 1096h139l-22 -203h10q72 95 119 137t99 64t117 22zM926 1569v-21q-38 -49 -140 -151t-177 -156h-105v27q56 60 126 152t106 149h190z" />
    <glyph glyph-name="Rcommaaccent" unicode="&#x156;" horiz-adv-x="1165" 
d="M584 754q193 0 297 85t104 244q1 121 -67 175t-220 55h-166q-102 -494 -116 -559h168zM715 1462q446 0 446 -366q0 -348 -368 -449l239 -647h-186l-209 608h-252l-129 -608h-170l309 1462h320zM621 -125v-20q-22 -59 -90 -156t-125 -152h-92v27q88 136 147 301h160z" />
    <glyph glyph-name="rcommaaccent" unicode="&#x157;" horiz-adv-x="811" 
d="M755 1116q66 0 117 -14l-36 -150q-53 13 -105 13q-91 0 -171 -60q-80 -61 -138 -167q-60 -106 -88 -236l-107 -502h-168l234 1096h139l-22 -203h10q72 95 119 137t99 64t117 22zM204 -125v-20q-22 -59 -90 -156t-125 -152h-92v27q88 136 147 301h160z" />
    <glyph glyph-name="Rcaron" unicode="&#x158;" horiz-adv-x="1165" 
d="M584 754q193 0 297 85t104 244q1 121 -67 175t-220 55h-166q-102 -494 -116 -559h168zM715 1462q446 0 446 -366q0 -348 -368 -449l239 -647h-186l-209 608h-252l-129 -608h-170l309 1462h320zM518 1907h100q40 -32 80 -82t82 -107q123 109 246 189h106v-27
q-221 -196 -286 -301h-160q-34 95 -125 235l-43 66v27z" />
    <glyph glyph-name="rcaron" unicode="&#x159;" horiz-adv-x="811" 
d="M755 1116q66 0 117 -14l-36 -150q-53 13 -105 13q-91 0 -171 -60q-80 -61 -138 -167q-60 -106 -88 -236l-107 -502h-168l234 1096h139l-22 -203h10q72 95 119 137t99 64t117 22zM331 1569h100q41 -32 81 -82t81 -107q123 109 246 189h106v-27q-221 -196 -286 -301h-160
q-34 95 -125 235l-43 66v27z" />
    <glyph glyph-name="Sacute" unicode="&#x15a;" horiz-adv-x="1028" 
d="M401 -20q-231 0 -362 63v170q162 -84 332 -84q170 -1 265 75t95 208q-1 78 -53 138t-199 142q-147 83 -205 168t-59 201q0 187 132 305t335 117q203 0 377 -84l-66 -150q-66 38 -148 60t-151 22q-134 1 -216 -69t-81 -179q0 -109 71 -175q37 -34 163 -108
q125 -74 177 -125q104 -101 105 -251q-1 -212 -141 -328t-371 -116zM1063 1907v-21q-38 -49 -140 -151t-177 -156h-105v27q55 60 125 152t107 149h190z" />
    <glyph glyph-name="sacute" unicode="&#x15b;" horiz-adv-x="877" 
d="M295 119q140 0 204 50q64 49 64 117t-35 107t-158 109t-177 141q-54 70 -54 166q0 139 101 223t269 84t327 -74l-54 -137l-56 25q-101 43 -207 43q-106 1 -159 -43t-53 -106q-1 -62 35 -103q36 -39 145 -101t155 -105q92 -86 93 -204q-1 -155 -111 -243t-295 -88t-321 69
v158q147 -88 287 -88zM908 1569v-21q-38 -49 -140 -151t-177 -156h-105v27q56 60 126 152t106 149h190z" />
    <glyph glyph-name="Scircumflex" unicode="&#x15c;" horiz-adv-x="1028" 
d="M401 -20q-231 0 -362 63v170q162 -84 332 -84q170 -1 265 75t95 208q-1 78 -53 138t-199 142q-147 83 -205 168t-59 201q0 187 132 305t335 117q203 0 377 -84l-66 -150q-66 38 -148 60t-151 22q-134 1 -216 -69t-81 -179q0 -109 71 -175q37 -34 163 -108
q125 -74 177 -125q104 -101 105 -251q-1 -212 -141 -328t-371 -116zM1014 1579h-103q-57 48 -161 189q-134 -119 -242 -189h-109v27q239 219 287 301h158q37 -99 128 -235l42 -66v-27z" />
    <glyph glyph-name="scircumflex" unicode="&#x15d;" horiz-adv-x="877" 
d="M295 119q140 0 204 50q64 49 64 117t-35 107t-158 109t-177 141q-54 70 -54 166q0 139 101 223t269 84t327 -74l-54 -137l-56 25q-101 43 -207 43q-106 1 -159 -43t-53 -106q-1 -62 35 -103q36 -39 145 -101t155 -105q92 -86 93 -204q-1 -155 -111 -243t-295 -88t-321 69
v158q147 -88 287 -88zM853 1241h-103q-57 48 -161 189q-134 -119 -242 -189h-109v27q239 219 287 301h158q37 -99 128 -235l42 -66v-27z" />
    <glyph glyph-name="Scedilla" unicode="&#x15e;" horiz-adv-x="1028" 
d="M371 129q170 -1 265 75t95 208q-1 78 -53 138t-199 142q-147 83 -205 168t-59 201q0 187 132 305t335 117q203 0 377 -84l-66 -150q-66 38 -148 60t-151 22q-134 1 -216 -69t-81 -179q0 -109 71 -175q37 -34 163 -108q125 -74 177 -125q104 -101 105 -251
q-1 -212 -141 -328q-117 -97 -313 -113l-53 -104q131 -38 131 -155q0 -98 -81 -157t-214 -59q-41 0 -86 9v100q38 -6 68 -6q174 0 174 110q0 45 -39 67t-99 30l90 162q-187 3 -311 63v170q162 -84 332 -84z" />
    <glyph glyph-name="scedilla" unicode="&#x15f;" horiz-adv-x="877" 
d="M295 119q140 0 204 50q64 49 64 117t-35 107t-158 109t-177 141q-54 70 -54 166q0 139 101 223t269 84t327 -74l-54 -137l-56 25q-101 43 -207 43q-106 1 -159 -43t-53 -106q-1 -62 35 -103q36 -39 145 -101t155 -105q92 -86 93 -204q-1 -155 -111 -243q-89 -70 -235 -85
l-53 -104q131 -38 131 -155q0 -98 -81 -157t-214 -59q-41 0 -86 9v100q38 -6 68 -6q174 0 174 110q0 45 -39 67t-99 30l90 163q-150 6 -272 68v158q147 -88 287 -88z" />
    <glyph glyph-name="Scaron" unicode="&#x160;" horiz-adv-x="1028" 
d="M401 -20q-231 0 -362 63v170q162 -84 332 -84q170 -1 265 75t95 208q-1 78 -53 138t-199 142q-147 83 -205 168t-59 201q0 187 132 305t335 117q203 0 377 -84l-66 -150q-66 38 -148 60t-151 22q-134 1 -216 -69t-81 -179q0 -109 71 -175q37 -34 163 -108
q125 -74 177 -125q104 -101 105 -251q-1 -212 -141 -328t-371 -116zM421 1907h100q41 -32 81 -82t81 -107q123 109 246 189h106v-27q-221 -196 -286 -301h-160q-34 95 -125 235l-43 66v27z" />
    <glyph glyph-name="scaron" unicode="&#x161;" horiz-adv-x="877" 
d="M295 119q140 0 204 50q64 49 64 117t-35 107t-158 109t-177 141q-54 70 -54 166q0 139 101 223t269 84t327 -74l-54 -137l-56 25q-101 43 -207 43q-106 1 -159 -43t-53 -106q-1 -62 35 -103q36 -39 145 -101t155 -105q92 -86 93 -204q-1 -155 -111 -243t-295 -88t-321 69
v158q147 -88 287 -88zM284 1569h100q40 -32 80 -82t82 -107q123 109 246 189h106v-27q-221 -196 -286 -301h-160q-34 95 -125 235l-43 66v27z" />
    <glyph glyph-name="Tcedilla" unicode="&#x162;" horiz-adv-x="1020" 
d="M530 -276q0 -98 -81 -157t-214 -59q-41 0 -86 9v100q38 -6 68 -6q174 0 174 110q0 45 -39 67t-99 30l101 182h-39l277 1311h-406l33 151h985l-30 -151h-408l-279 -1311h-27l-61 -121q131 -38 131 -155z" />
    <glyph glyph-name="tcedilla" unicode="&#x163;" horiz-adv-x="664" 
d="M117 217q0 66 18 150l127 602h-172l14 73l185 78l125 228h98l-55 -252h274l-26 -127h-273l-129 -604q-18 -87 -18 -137t29 -81q28 -30 82 -30t143 26v-129q-83 -34 -164 -34q-14 0 -27 1l-51 -102q131 -38 131 -155q0 -98 -81 -157t-214 -59q-41 0 -86 9v100q38 -6 68 -6
q174 0 174 110q0 45 -39 67t-99 30l101 181q-135 50 -135 218z" />
    <glyph glyph-name="Tcaron" unicode="&#x164;" horiz-adv-x="1020" 
d="M487 0h-172l277 1311h-406l33 151h985l-30 -151h-408zM469 1907h100q41 -32 81 -82t81 -107q123 109 246 189h106v-27q-221 -196 -286 -301h-160q-34 95 -125 235l-43 66v27z" />
    <glyph glyph-name="tcaron" unicode="&#x165;" horiz-adv-x="664" 
d="M117 217q0 66 18 150l127 602h-172l14 73l185 78l125 228h98l-55 -252h274l-26 -127h-273l-129 -604q-18 -87 -18 -137t29 -81q28 -30 82 -30t143 26v-129q-83 -34 -186 -34t-169 60t-67 177zM960 1555v-20q-20 -55 -91 -155t-126 -152h-92v26q37 56 84 152t66 149h159z
" />
    <glyph glyph-name="Tbar" unicode="&#x166;" horiz-adv-x="1020" 
d="M659 815h295l-28 -137h-295l-144 -678h-172l144 678h-289l31 137h284l107 496h-406l33 151h985l-30 -151h-408z" />
    <glyph glyph-name="tbar" unicode="&#x167;" horiz-adv-x="664" 
d="M117 217q0 35 6.5 82t56.5 287h-137l27 129h137l55 254h-172l14 73l185 78l125 228h98l-55 -252h274l-26 -127h-273l-55 -254h244l-27 -129h-244q-52 -245 -58.5 -282t-6.5 -82t28.5 -75t82.5 -30t143 26v-129q-83 -34 -186 -34t-169.5 59.5t-66.5 177.5z" />
    <glyph glyph-name="Utilde" unicode="&#x168;" horiz-adv-x="1384" 
d="M624 -20q-460 0 -460 403q0 81 24 201l189 878h170l-191 -891q-22 -105 -22 -205t73 -168t231 -67q158 -1 254 87t140 290l205 954h170l-205 -966q-56 -264 -198 -390t-380 -126zM1059 1581q-57 1 -151 57q-36 22 -68 38q-34 18 -72 18t-64 -28t-47 -87h-100
q58 258 231 258q64 1 158 -57q36 -22 67 -40t67 -18t60 27q26 27 52 90h100q-66 -258 -233 -258z" />
    <glyph glyph-name="utilde" unicode="&#x169;" 
d="M283 262q0 -143 147 -143q88 0 173 60q181 128 249 442l100 475h166l-231 -1096h-139l22 203h-12q-98 -125 -187 -174t-201 -49t-184 70q-73 70 -73 198q0 62 22 172l146 676h170l-150 -695q-18 -89 -18 -139zM887 1243q-57 1 -151 57q-36 22 -68 38q-34 18 -72 18
t-64 -28t-47 -87h-100q58 258 231 258q64 1 158 -57q36 -22 67 -40t67 -18t60 27q26 27 52 90h100q-66 -258 -233 -258z" />
    <glyph glyph-name="Umacron" unicode="&#x16a;" horiz-adv-x="1384" 
d="M624 -20q-460 0 -460 403q0 81 24 201l189 878h170l-191 -891q-22 -105 -22 -205t73 -168t231 -67q158 -1 254 87t140 290l205 954h170l-205 -966q-56 -264 -198 -390t-380 -126zM657 1720h545l-31 -141h-544z" />
    <glyph glyph-name="umacron" unicode="&#x16b;" 
d="M283 262q0 -143 147 -143q88 0 173 60q181 128 249 442l100 475h166l-231 -1096h-139l22 203h-12q-98 -125 -187 -174t-201 -49t-184 70q-73 70 -73 198q0 62 22 172l146 676h170l-150 -695q-18 -89 -18 -139zM481 1382h545l-31 -141h-544z" />
    <glyph glyph-name="Ubreve" unicode="&#x16c;" horiz-adv-x="1384" 
d="M624 -20q-460 0 -460 403q0 81 24 201l189 878h170l-191 -891q-22 -105 -22 -205t73 -168t231 -67q158 -1 254 87t140 290l205 954h170l-205 -966q-56 -264 -198 -390t-380 -126zM1221 1847q-67 -268 -319 -268q-122 -1 -190 59t-67 166v21l2 22h98q-1 -125 167 -125
t202 125h107z" />
    <glyph glyph-name="ubreve" unicode="&#x16d;" 
d="M283 262q0 -143 147 -143q88 0 173 60q181 128 249 442l100 475h166l-231 -1096h-139l22 203h-12q-98 -125 -187 -174t-201 -49t-184 70q-73 70 -73 198q0 62 22 172l146 676h170l-150 -695q-18 -89 -18 -139zM1040 1509q-66 -268 -318 -268q-122 -1 -190 59t-68 166v21
l2 22h98q0 -125 168 -125t201 125h107z" />
    <glyph glyph-name="Uring" unicode="&#x16e;" horiz-adv-x="1384" 
d="M624 -20q-460 0 -460 403q0 81 24 201l189 878h170l-191 -891q-22 -105 -22 -205t73 -168t231 -67q158 -1 254 87t140 290l205 954h170l-205 -966q-56 -264 -198 -390t-380 -126zM1028 1792q0 54 -32 84q-32 31 -82 31t-83 -31q-33 -30 -33 -84t30 -84t82 -31q54 1 86 31
t32 84zM1132 1792q0 -97 -60 -155t-160 -58q-100 -1 -159 57t-59 154t62 154t160 59q98 0 157 -57t59 -154z" />
    <glyph glyph-name="uring" unicode="&#x16f;" 
d="M283 262q0 -143 147 -143q88 0 173 60q181 128 249 442l100 475h166l-231 -1096h-139l22 203h-12q-98 -125 -187 -174t-201 -49t-184 70q-73 70 -73 198q0 62 22 172l146 676h170l-150 -695q-18 -89 -18 -139zM847 1454q0 54 -32 84q-32 31 -82 31t-83 -31
q-33 -30 -33 -84q-1 -54 29 -84t84 -31q54 1 85 31q32 30 32 84zM951 1454q0 -97 -60 -155t-160 -58q-100 -1 -159 57t-59 154t62 154t160 59q98 0 157 -57t59 -154z" />
    <glyph glyph-name="Uhungarumlaut" unicode="&#x170;" horiz-adv-x="1384" 
d="M624 -20q-460 0 -460 403q0 81 24 201l189 878h170l-191 -891q-22 -105 -22 -205t73 -168t231 -67q158 -1 254 87t140 290l205 954h170l-205 -966q-56 -264 -198 -390t-380 -126zM1407 1907v-21q-51 -65 -149 -161t-167 -146h-86v27q47 51 117 141t113 160h172z
M1065 1907v-21q-51 -65 -149 -161t-167 -146h-86v27q43 46 113 136t117 165h172z" />
    <glyph glyph-name="uhungarumlaut" unicode="&#x171;" 
d="M283 262q0 -143 147 -143q88 0 173 60q181 128 249 442l100 475h166l-231 -1096h-139l22 203h-12q-98 -125 -187 -174t-201 -49t-184 70q-73 70 -73 198q0 62 22 172l146 676h170l-150 -695q-18 -89 -18 -139zM1202 1569v-21q-51 -65 -149 -161t-167 -146h-86v27
q46 51 116 141t114 160h172zM860 1569v-21q-51 -65 -149 -161t-167 -146h-86v27q44 46 114 136t116 165h172z" />
    <glyph glyph-name="Uogonek" unicode="&#x172;" horiz-adv-x="1384" 
d="M694 -328q39 0 80 9v-107q-42 -14 -118 -14t-122 42q-48 42 -48 106q0 112 82 194q34 33 103 80q-27 -2 -55 -2q-230 0 -341 104t-111 299q0 81 24 201l189 878h170l-191 -891q-22 -105 -22 -205t73 -168t231 -67q158 -1 254 87t140 290l205 954h170l-205 -966
q-56 -264 -198 -390q-86 -76 -209 -106h20q-82 -65 -116 -102q-74 -81 -74 -153q0 -73 69 -73z" />
    <glyph glyph-name="uogonek" unicode="&#x173;" 
d="M283 262q0 -143 147 -143q88 0 173 60q181 128 249 442l100 475h166l-231 -1096h-23q-82 -65 -116 -102q-74 -81 -74 -153q0 -73 69 -73q39 0 80 9v-107q-41 -14 -117 -14t-124 42t-47 106q0 66 21 110t61 84t131 98l22 203h-12q-98 -125 -187 -174t-201 -49t-184 70
q-73 70 -73 198q0 62 22 172l146 676h170l-150 -695q-18 -89 -18 -139z" />
    <glyph glyph-name="Wcircumflex" unicode="&#x174;" horiz-adv-x="1745" 
d="M1030 1247h-6q-25 -73 -61 -155t-504 -1092h-174l-62 1462h170l31 -901l2 -88q0 -98 -10 -258h6q89 243 156 383l405 864h178l43 -860q9 -153 9 -304l-1 -83h9q75 224 131 354l387 893h182l-664 -1462h-170l-49 965q-8 136 -8 282zM1376 1579h-103q-57 48 -161 189
q-134 -119 -242 -189h-109v27q239 219 287 301h158q37 -99 128 -235l42 -66v-27z" />
    <glyph glyph-name="wcircumflex" unicode="&#x175;" horiz-adv-x="1468" 
d="M795 774v156h-9l-133 -307l-291 -623h-202l-43 1096h164l18 -594v-88q0 -147 -8 -269h6q47 124 137 322l295 629h182l37 -594q6 -168 6 -262v-53l-2 -42h6q28 87 83 219t323 732h178l-506 -1096h-205l-32 602q-4 94 -4 172zM1139 1241h-103q-57 48 -161 189
q-134 -119 -242 -189h-109v27q239 219 287 301h158q37 -99 128 -235l42 -66v-27z" />
    <glyph glyph-name="Ycircumflex" unicode="&#x176;" horiz-adv-x="1030" 
d="M537 715l489 747h193l-627 -921l-113 -541h-172l119 549l-238 913h170zM988 1579h-103q-57 48 -161 189q-134 -119 -242 -189h-109v27q239 219 287 301h158q37 -99 128 -235l42 -66v-27z" />
    <glyph glyph-name="ycircumflex" unicode="&#x177;" horiz-adv-x="946" 
d="M369 131h6q97 240 164 356l325 609h178l-696 -1282q-93 -172 -184 -239t-219 -67q-72 0 -140 21v135q63 -18 138 -18t133 50t114 150l76 136l-166 1114h168l74 -545q10 -69 20 -203t9 -217zM870 1241h-103q-57 48 -161 189q-134 -119 -242 -189h-109v27q239 219 287 301
h158q37 -99 128 -235l42 -66v-27z" />
    <glyph glyph-name="Ydieresis" unicode="&#x178;" horiz-adv-x="1030" 
d="M537 715l489 747h193l-627 -921l-113 -541h-172l119 549l-238 913h170zM816 1719q0 43 28 77t75 33q77 0 77 -80q0 -49 -30 -83t-66 -34t-60 22t-24 65zM452 1719q0 43 28 77t74 33q78 0 78 -80q0 -49 -30 -83t-66 -34t-60 22t-24 65z" />
    <glyph glyph-name="Zacute" unicode="&#x179;" horiz-adv-x="1087" 
d="M885 0h-901l28 137l924 1170h-655l32 155h858l-26 -139l-924 -1169h697zM1101 1907v-21q-38 -49 -140 -151t-177 -156h-105v27q55 60 125 152t107 149h190z" />
    <glyph glyph-name="zacute" unicode="&#x17a;" horiz-adv-x="909" 
d="M690 0h-719l23 117l694 854h-479l27 125h657l-29 -140l-680 -831h531zM945 1569v-21q-38 -49 -140 -151t-177 -156h-105v27q55 60 125 152t107 149h190z" />
    <glyph glyph-name="Zdotaccent" unicode="&#x17b;" horiz-adv-x="1087" 
d="M885 0h-901l28 137l924 1170h-655l32 155h858l-26 -139l-924 -1169h697zM664 1718q0 49 32 86t82 37q88 0 88 -90q0 -55 -34 -93t-74 -38t-67 24t-27 74z" />
    <glyph glyph-name="zdotaccent" unicode="&#x17c;" horiz-adv-x="909" 
d="M690 0h-719l23 117l694 854h-479l27 125h657l-29 -140l-680 -831h531zM500 1380q0 49 32 86t82 37q88 0 88 -90q0 -55 -34 -93t-74 -38t-67 24t-27 74z" />
    <glyph glyph-name="Zcaron" unicode="&#x17d;" horiz-adv-x="1087" 
d="M885 0h-901l28 137l924 1170h-655l32 155h858l-26 -139l-924 -1169h697zM502 1907h100q40 -32 80 -82t82 -107q123 109 246 189h106v-27q-221 -196 -286 -301h-160q-34 95 -125 235l-43 66v27z" />
    <glyph glyph-name="zcaron" unicode="&#x17e;" horiz-adv-x="909" 
d="M690 0h-719l23 117l694 854h-479l27 125h657l-29 -140l-680 -831h531zM331 1569h100q41 -32 81 -82t81 -107q123 109 246 189h106v-27q-221 -196 -286 -301h-160q-34 95 -125 235l-43 66v27z" />
    <glyph glyph-name="longs" unicode="&#x17f;" horiz-adv-x="563" 
d="M-137 -492q-65 0 -123 21v141q64 -22 113 -22q130 0 180 239l276 1315q40 195 122 280t247 85q101 0 190 -37l-43 -129q-77 29 -151 29t-121 -50.5t-74 -175.5l-280 -1333q-40 -190 -122 -276.5t-214 -86.5z" />
    <glyph glyph-name="florin" unicode="&#x192;" horiz-adv-x="1128" 
d="M127 -492q-69 0 -123 21v141q61 -22 113 -22q130 0 180 239l201 953h-191l12 65l205 66l29 147q38 195 123.5 280t247.5 85q42 0 99 -11t89 -26l-43 -129q-77 29 -151 29t-121 -49.5t-74 -176.5l-33 -155h238l-25 -125h-237l-205 -969q-39 -188 -119.5 -275.5
t-214.5 -87.5z" />
    <glyph glyph-name="Ohorn" unicode="&#x1a0;" horiz-adv-x="1462" 
d="M879 1333q-162 0 -286 -101t-192.5 -281.5t-68.5 -388.5t98 -319.5t258 -111.5t280.5 97.5t190.5 279.5t70 392t-94 321.5t-256 111.5zM887 1485q298 0 434 -219q81 33 124 97t62 193h187l8 -22q-33 -138 -114 -223.5t-222 -141.5q45 -117 45 -262q0 -269 -88 -481.5
t-252 -329t-379 -116.5q-256 0 -399 149.5t-143 416.5t96 485t263.5 336t377.5 118z" />
    <glyph glyph-name="ohorn" unicode="&#x1a1;" horiz-adv-x="1149" 
d="M879 711q0 115 -62.5 186.5t-170.5 71.5t-194.5 -74t-134 -205.5t-47.5 -277.5t63 -217.5t175 -71.5t195 73t129.5 207.5t46.5 307.5zM643 1110q216 0 326 -143q79 33 123 98.5t67 198.5h184l9 -23q-33 -134 -114.5 -222t-219.5 -140q35 -86 35 -191q0 -188 -72 -355
t-194.5 -258t-296.5 -91t-283 113t-109 306t73 360.5t197 257t275 89.5z" />
    <glyph glyph-name="Uhorn" unicode="&#x1af;" horiz-adv-x="1479" 
d="M628 -20q-236 0 -350 106t-114 301q0 86 24 197l189 878h170l-191 -893q-22 -104 -22 -172q0 -266 291 -266q169 0 265 87t142 292l205 952h170l-43 -198q169 36 209 292h184l8 -22q-34 -153 -144.5 -254t-281.5 -135l-137 -649q-55 -266 -196.5 -391t-377.5 -125z" />
    <glyph glyph-name="uhorn" unicode="&#x1b0;" horiz-adv-x="1264" 
d="M283 268q0 -149 147 -149q88 0 221 94t201 408l100 475h166l-26 -127q171 34 211 295h184l8 -23q-34 -155 -147 -255.5t-281 -133.5l-180 -852h-139l22 203h-12q-98 -125 -187 -174t-201 -49t-184.5 70.5t-72.5 203.5q0 44 9 97t159 745h170l-150 -695q-18 -89 -18 -133z
" />
    <glyph glyph-name="uni01F0" unicode="&#x1f0;" horiz-adv-x="520" 
d="M-135 -492q-69 0 -123 21v141q61 -22 119 -22q125 0 168 205l264 1243h166l-266 -1258q-37 -170 -115 -250t-213 -80zM153 1569h100q41 -32 81 -82t81 -107q123 109 246 189h106v-27q-221 -196 -286 -301h-160q-34 95 -125 235l-43 66v27z" />
    <glyph glyph-name="Aringacute" unicode="&#x1fa;" horiz-adv-x="1137" 
d="M707 1208q-71 -153 -304 -587h394q-51 442 -62 587h-28zM868 1430q0 54 -32 84t-82 30t-82.5 -30t-32.5 -84t29.5 -84.5t83.5 -30.5t85 30.5t31 84.5zM1122 1962v-18q-43 -46 -146 -126.5t-175 -125.5h-119v22q103 91 227 248h213zM975 1420q0 -106 -90 -169l155 -1251
h-168l-55 467h-498l-247 -467h-187l695 1286q-45 54 -45 146t62.5 151t159.5 59t157.5 -58t60.5 -164z" />
    <glyph glyph-name="aringacute" unicode="&#x1fb;" horiz-adv-x="1157" 
d="M270 346q0 -227 185 -227q91 0 187 92.5t156 241t60 274.5t-56 187t-154 61t-187 -86t-140 -233t-51 -310zM639 1116q92 0 164 -49.5t112 -142.5h11l67 172h127l-233 -1096h-133l26 209h-8q-179 -229 -377 -229q-139 0 -218 99t-79 289t71 368t196 279t274 101zM838 1410
q0 54 -33 84t-83 30t-82 -30t-32 -84t29 -85t82 -31t86 31t33 85zM942 1410q0 -98 -60.5 -155t-158.5 -57t-159.5 56t-61.5 154t62.5 156t159.5 58t157.5 -57t60.5 -155zM1100 1962v-18q-49 -51 -156 -132.5t-168 -117.5h-117v20q118 109 228 248h213z" />
    <glyph glyph-name="AEacute" unicode="&#x1fc;" horiz-adv-x="1673" 
d="M840 621l147 688h-84l-434 -688h371zM1448 0h-737l98 465h-438l-293 -465h-197l938 1462h938l-33 -153h-565l-100 -469h528l-28 -150h-529l-115 -538h566zM1550 1907v-21q-38 -49 -140 -151t-177 -156h-105v27q56 60 126 152t106 149h190z" />
    <glyph glyph-name="aeacute" unicode="&#x1fd;" horiz-adv-x="1669" 
d="M1325 973q-117 -1 -211 -95t-141 -260h14q227 0 349 58t122 170q0 61 -35 94t-98 33zM813 726q0 248 -179 249q-88 -1 -176 -87t-138 -231t-50 -284t37 -197t119 -57q82 -1 174 91q94 92 154 241t59 275zM623 1116q168 0 247 -192h11l67 172h109l-31 -146
q123 166 332 166q118 0 192 -68t74 -184q0 -182 -166 -284t-473 -101h-39l-4 -80q0 -131 62 -205t194 -73q54 1 116 17t179 67v-150q-164 -75 -328 -75q-232 0 -311 159l-31 -139h-114l26 209h-8q-109 -133 -191 -181t-192 -48q-108 0 -177 99t-69 287t70 367t192 281
q121 102 263 102zM1343 1569v-21q-38 -49 -140 -151t-177 -156h-105v27q55 60 125 152t107 149h190z" />
    <glyph glyph-name="Oslashacute" unicode="&#x1fe;" horiz-adv-x="1475" 
d="M1229 911q0 118 -33 205l-733 -911q91 -74 238 -74q147 -1 267 97t191 280q70 182 70 403zM868 1333q-152 0 -275 -101q-125 -101 -193 -281t-68 -398q0 -135 41 -227l737 919q-90 88 -242 88zM1411 888q0 -250 -88 -462t-252 -330q-163 -116 -371 -116t-340 96
l-129 -160l-112 92l137 170q-106 136 -106 386t96 467q96 218 264 336t367 118q200 0 340 -111l131 166l114 -92l-149 -184q98 -126 98 -376zM1233 1907v-21q-38 -49 -140 -151t-177 -156h-105v27q55 60 125 152t107 149h190z" />
    <glyph glyph-name="oslashacute" unicode="&#x1ff;" horiz-adv-x="1149" 
d="M885 688q0 84 -13 119l-514 -641q57 -45 159 -45q101 -1 187 71t134 201t47 295zM642 971q-102 0 -190 -73t-138 -202q-50 -128 -50 -250t17 -167l518 645q-54 47 -157 47zM1047 691q1 -175 -69 -346t-192 -266t-272 -95t-250 65l-98 -125l-105 82l109 135
q-68 103 -68 281t74 345t195 255q122 88 270 88t254 -68l104 129l105 -79l-119 -129q62 -97 62 -272zM1011 1569v-21q-38 -49 -140 -151t-177 -156h-105v27q55 60 125 152t107 149h190z" />
    <glyph glyph-name="Scommaaccent" unicode="&#x218;" horiz-adv-x="1028" 
d="M401 -20q-231 0 -362 63v170q162 -84 332 -84q170 -1 265 75t95 208q-1 78 -53 138t-199 142q-147 83 -205 168t-59 201q0 187 132 305t335 117q203 0 377 -84l-66 -150q-66 38 -148 60t-151 22q-134 1 -216 -69t-81 -179q0 -109 71 -175q37 -34 163 -108
q125 -74 177 -125q104 -101 105 -251q-1 -212 -141 -328t-371 -116zM490 -125v-20q-22 -59 -90 -156t-125 -152h-92v27q88 136 147 301h160z" />
    <glyph glyph-name="scommaaccent" unicode="&#x219;" horiz-adv-x="877" 
d="M295 119q140 0 204 50q64 49 64 117t-35 107t-158 109t-177 141q-54 70 -54 166q0 139 101 223t269 84t327 -74l-54 -137l-56 25q-101 43 -207 43q-106 1 -159 -43t-53 -106q-1 -62 35 -103q36 -39 145 -101t155 -105q92 -86 93 -204q-1 -155 -111 -243t-295 -88t-321 69
v158q147 -88 287 -88zM403 -125v-20q-22 -59 -90 -156t-125 -152h-92v27q88 136 147 301h160z" />
    <glyph glyph-name="Tcommaaccent" unicode="&#x21a;" horiz-adv-x="1020" 
d="M487 0h-172l277 1311h-406l33 151h985l-30 -151h-408zM452 -125v-20q-22 -59 -90 -156t-125 -152h-92v27q88 136 147 301h160z" />
    <glyph glyph-name="tcommaaccent" unicode="&#x21b;" horiz-adv-x="664" 
d="M117 217q0 66 18 150l127 602h-172l14 73l185 78l125 228h98l-55 -252h274l-26 -127h-273l-129 -604q-18 -87 -18 -137t29 -81q28 -30 82 -30t143 26v-129q-83 -34 -186 -34t-169 60t-67 177zM366 -125v-20q-22 -59 -90 -156t-125 -152h-92v27q88 136 147 301h160z" />
    <glyph glyph-name="dotlessj" unicode="&#x237;" horiz-adv-x="520" 
d="M-135 -492q-69 0 -123 21v141q61 -22 119 -22q125 0 168 205l264 1243h166l-266 -1258q-36 -171 -114.5 -250.5t-213.5 -79.5z" />
    <glyph glyph-name="uni02BC" unicode="&#x2bc;" horiz-adv-x="348" 
d="M524 1440q-93 -211 -270 -479h-129q134 298 203 501h188z" />
    <glyph glyph-name="circumflex" unicode="&#x2c6;" horiz-adv-x="1135" 
d="M1014 1241h-103q-57 48 -161 189q-134 -119 -242 -189h-109v27q239 219 287 301h158q37 -99 128 -235l42 -66v-27z" />
    <glyph glyph-name="caron" unicode="&#x2c7;" horiz-adv-x="1135" 
d="M467 1569h100q41 -32 80.5 -82t81.5 -107q123 109 246 189h106v-27q-221 -196 -286 -301h-160q-34 95 -125 235l-43 66v27z" />
    <glyph glyph-name="macron" unicode="&#x2c9;" horiz-adv-x="1096" 
d="M436 1382h545l-31 -141h-544z" />
    <glyph glyph-name="breve" unicode="&#x2d8;" horiz-adv-x="1135" 
d="M1051 1509q-67 -268 -319 -268q-122 0 -189.5 59.5t-67.5 165.5v21l2 22h98q-1 -125 167 -125t202 125h107z" />
    <glyph glyph-name="dotaccent" unicode="&#x2d9;" horiz-adv-x="498" 
d="M324 1380q0 49 32 86t82 37q88 0 88 -90q0 -55 -34 -93t-74 -38t-67 24.5t-27 73.5z" />
    <glyph glyph-name="ring" unicode="&#x2da;" 
d="M885 1454q0 54 -32 84.5t-82 30.5t-83 -30.5t-33 -84.5t29.5 -84.5t83.5 -30.5t85.5 30.5t31.5 84.5zM989 1454q0 -97 -60 -155t-160 -58t-159 57.5t-59 153.5t62 154.5t160 58.5t157 -57t59 -154z" />
    <glyph glyph-name="ogonek" unicode="&#x2db;" horiz-adv-x="373" 
d="M63 -328q39 0 80 9v-107q-41 -14 -117 -14t-123.5 41t-47.5 107t21 110.5t61 84t131 97.5h116q-82 -65 -136 -124t-54 -131q0 -73 69 -73z" />
    <glyph glyph-name="tilde" unicode="&#x2dc;" horiz-adv-x="1135" 
d="M838 1243q-57 0 -121.5 39t-98 56.5t-71.5 17.5t-63.5 -28.5t-47.5 -86.5h-100q58 258 231 258q64 0 129 -39.5t95.5 -57.5t66.5 -18t61.5 27t51.5 90h100q-66 -258 -233 -258z" />
    <glyph glyph-name="hungarumlaut" unicode="&#x2dd;" horiz-adv-x="1135" 
d="M1141 1569v-21q-51 -65 -149 -161t-167 -146h-86v27q47 51 116.5 141t113.5 160h172zM799 1569v-21q-51 -65 -149 -161t-167 -146h-86v27q44 45 113.5 135.5t116.5 165.5h172z" />
    <glyph glyph-name="uni02F3" unicode="&#x2f3;" horiz-adv-x="682" 
d="M264 -338q0 54 -31.5 84.5t-82.5 30.5t-83 -30.5t-32 -84.5t29 -84.5t83 -30.5t85.5 30.5t31.5 84.5zM377 -338q0 -95 -63.5 -153t-163.5 -58t-160 56.5t-60 154.5t59 155.5t160 57.5t164.5 -59t63.5 -154z" />
    <glyph glyph-name="uni0300" unicode="&#x300;" horiz-adv-x="0" 
d="M-394 1241h-104q-60 61 -128 154t-96 153v21h181q43 -136 147 -303v-25z" />
    <glyph glyph-name="uni0301" unicode="&#x301;" horiz-adv-x="0" 
d="M-116 1569v-21q-38 -49 -140 -151t-177 -156h-105v27q56 60 126 152t106 149h190z" />
    <glyph glyph-name="uni0303" unicode="&#x303;" horiz-adv-x="0" 
d="M-341 1243q-57 1 -151 57q-36 22 -68 38q-34 18 -72 18t-64 -28t-47 -87h-100q58 258 231 258q64 1 158 -57q36 -22 67 -40t67 -18t60 27q26 27 52 90h100q-66 -258 -233 -258z" />
    <glyph glyph-name="hook" unicode="&#x309;" horiz-adv-x="0" 
d="M-233 1514q0 -148 -209 -197l-27 -111h-106l20 185q188 30 188 112q0 44 -31.5 57t-77.5 13t-102 -8v100q50 12 138 12t147.5 -41.5t59.5 -121.5z" />
    <glyph glyph-name="uni030F" unicode="&#x30f;" horiz-adv-x="0" 
d="M-338 1241h-111q-59 59 -125 151.5t-98 155.5v21h187q44 -145 147 -303v-25zM-688 1241h-109q-59 59 -125 151.5t-98 155.5v21h186q40 -134 146 -303v-25z" />
    <glyph glyph-name="dotbelow" unicode="&#x323;" horiz-adv-x="0" 
d="M-740 -131q90 -1 91 -99q0 -46 -33.5 -84t-74.5 -38t-68 25t-27 73t32 85.5t80 37.5z" />
    <glyph glyph-name="tonos" unicode="&#x384;" horiz-adv-x="1153" 
d="M983 1653v-29q-25 -60 -105 -179.5t-151 -203.5h-104v29q117 214 178 383h182z" />
    <glyph glyph-name="dieresistonos" unicode="&#x385;" horiz-adv-x="1153" 
d="M852 1381q0 43 28 76.5t74 33.5q78 0 78 -80q0 -49 -29.5 -83t-66.5 -34t-60.5 22t-23.5 65zM449 1382q0 44 28.5 76.5t73.5 32.5q78 0 78 -80q0 -50 -30.5 -83.5t-66.5 -33.5t-59.5 22t-23.5 66zM666 1389v22q106 187 157 305h195v-20q-114 -158 -277 -307h-75z" />
    <glyph glyph-name="Alphatonos" unicode="&#x386;" horiz-adv-x="1137" 
d="M795 621l-35 299q-24 179 -29 350q-37 -88 -81 -175t-249 -474h394zM813 465h-496l-245 -465h-189l799 1462h174l184 -1462h-170zM499 1548v-29q-25 -59 -105 -179t-151 -204h-104v29q117 214 178 383h182z" />
    <glyph glyph-name="anoteleia" unicode="&#x387;" horiz-adv-x="518" 
d="M270 587q-100 0 -100 116q0 63 40 109t98 46q110 0 110 -105q0 -71 -40 -119t-108 -47z" />
    <glyph glyph-name="Epsilontonos" unicode="&#x388;" horiz-adv-x="1163" 
d="M940 0h-735l309 1462h735l-32 -153h-566l-98 -469h527l-29 -152h-529l-114 -536h565zM431 1548v-29q-25 -59 -105 -179t-151 -204h-104v29q117 214 178 383h182z" />
    <glyph glyph-name="Etatonos" unicode="&#x389;" horiz-adv-x="1544" 
d="M1239 0h-167l143 688h-660l-145 -688h-170l309 1462h170l-131 -622h660l133 622h168zM431 1548v-29q-25 -59 -105 -179t-151 -204h-104v29q117 214 178 383h182z" />
    <glyph glyph-name="Iotatonos" unicode="&#x38a;" horiz-adv-x="745" 
d="M270 0l311 1462h168l-311 -1462h-168zM456 1548v-29q-25 -59 -105 -179t-151 -204h-104v29q117 214 178 383h182z" />
    <glyph glyph-name="Omicrontonos" unicode="&#x38c;" horiz-adv-x="1550" 
d="M955 1333q-162 0 -286 -101q-125 -101 -193 -281q-68 -181 -68 -389t98 -320t258 -111q160 -1 280 97t191 280q70 182 70 392t-94 322t-256 111zM1487 908q0 -270 -88 -482t-252 -330q-164 -116 -379 -116q-256 0 -399 150t-143 416q0 267 96 485t264 336t394 118
q227 0 367 -154q140 -153 140 -423zM452 1548v-29q-25 -59 -105 -179t-151 -204h-104v29q117 214 178 383h182z" />
    <glyph glyph-name="Upsilontonos" unicode="&#x38e;" horiz-adv-x="1311" 
d="M818 715l489 747h193l-627 -921l-113 -541h-172l119 549l-238 913h170zM431 1548v-29q-25 -59 -105 -179t-151 -204h-104v29q117 214 178 383h182z" />
    <glyph glyph-name="Omegatonos" unicode="&#x38f;" horiz-adv-x="1602" 
d="M470 1548v-29q-25 -59 -105 -179t-151 -204h-104v29q117 214 178 383h182zM979 1333q-167 1 -285 -83t-184 -234q-64 -150 -64 -330t50 -310t165 -245l-26 -131h-551l30 152h348q-198 203 -198 534q0 226 93 412t255 286t350 101q188 0 311 -69q123 -70 187 -198t63 -300
q0 -230 -111 -428t-323 -338h363l-31 -152h-602l26 131q496 297 496 793q1 197 -97 303t-265 106z" />
    <glyph glyph-name="iotadieresistonos" unicode="&#x390;" horiz-adv-x="625" 
d="M104 217q0 33 10 87t165 792h167l-155 -736q-17 -76 -17 -124q0 -119 107 -119q48 0 139 26v-129q-81 -34 -168 -34q-248 0 -248 237zM540 1381q0 43 28 77t74 33q78 0 78 -80q0 -49 -30 -83t-66 -34t-60 22t-24 65zM137 1382q1 44 29 77q28 32 73 32q78 0 78 -80
q-1 -49 -31 -83t-66 -34t-60 22q-23 22 -23 66zM354 1389v22q106 187 157 305h195v-20q-114 -158 -277 -307h-75z" />
    <glyph glyph-name="Alpha" unicode="&#x391;" horiz-adv-x="1137" 
d="M795 621l-35 299q-24 179 -29 350q-37 -88 -81 -175t-249 -474h394zM813 465h-496l-245 -465h-189l799 1462h174l184 -1462h-170z" />
    <glyph glyph-name="Beta" unicode="&#x392;" horiz-adv-x="1225" 
d="M553 145q181 1 278 81t97 212q0 254 -289 254h-236l-116 -547h266zM682 836q156 0 249 73t93 188t-66 167t-210 51h-211l-103 -479h248zM770 1462q432 0 432 -336q0 -141 -87 -238t-245 -126v-10q114 -32 176 -110t62 -189q0 -213 -152 -333t-407 -120h-463l309 1462h375
z" />
    <glyph glyph-name="Gamma" unicode="&#x393;" horiz-adv-x="975" 
d="M258 0h-172l309 1462h735l-30 -153h-565z" />
    <glyph glyph-name="uni0394" unicode="&#x394;" horiz-adv-x="1143" 
d="M737 1274q-71 -180 -166 -361l-403 -761h668l-78 757q-21 204 -21 365zM686 1460h172l150 -1358l-21 -102h-1042l20 104z" />
    <glyph glyph-name="Epsilon" unicode="&#x395;" horiz-adv-x="1047" 
d="M821 0h-735l309 1462h735l-32 -153h-566l-98 -469h527l-29 -152h-529l-114 -536h565z" />
    <glyph glyph-name="Zeta" unicode="&#x396;" horiz-adv-x="1087" 
d="M885 0h-901l28 137l924 1170h-655l32 155h858l-26 -139l-924 -1169h697z" />
    <glyph glyph-name="Eta" unicode="&#x397;" horiz-adv-x="1389" 
d="M1085 0h-167l143 688h-660l-145 -688h-170l309 1462h170l-131 -622h660l133 622h168z" />
    <glyph glyph-name="Theta" unicode="&#x398;" horiz-adv-x="1475" 
d="M879 1333q-162 0 -286 -101t-192.5 -281.5t-68.5 -388.5t98 -319.5t258 -111.5t280.5 97.5t190.5 279.5t70 392t-94 321.5t-256 111.5zM1411 908q0 -270 -88 -482.5t-252 -329t-379 -116.5q-256 0 -399 149.5t-143 416.5t96 485t263.5 336t394.5 118t367 -153.5
t140 -423.5zM1057 819l-31 -149h-532l30 149h533z" />
    <glyph glyph-name="Iota" unicode="&#x399;" horiz-adv-x="559" 
d="M86 0l311 1462h168l-311 -1462h-168z" />
    <glyph glyph-name="Kappa" unicode="&#x39a;" horiz-adv-x="1141" 
d="M1034 0h-186q-72 182 -146 360t-147 361l-174 -131l-125 -590h-170l309 1462h170l-151 -710l700 710h209l-639 -637z" />
    <glyph glyph-name="Lambda" unicode="&#x39b;" horiz-adv-x="1143" 
d="M-117 0l801 1460h178l187 -1460h-168l-113 934q-19 155 -27 344q-72 -167 -176 -358l-493 -920h-189z" />
    <glyph glyph-name="Mu" unicode="&#x39c;" horiz-adv-x="1714" 
d="M676 0l-166 1296h-8q-16 -167 -66 -397l-190 -899h-162l309 1462h244l149 -1204h9l659 1204h266l-303 -1462h-174q126 590 193 906t94 392h-6l-717 -1298h-131z" />
    <glyph glyph-name="Nu" unicode="&#x39d;" horiz-adv-x="1438" 
d="M1139 0h-181l-460 1223h-6q-32 -221 -74 -418l-172 -805h-162l309 1462h180l459 -1220h6q30 224 72 405l174 815h164z" />
    <glyph glyph-name="Xi" unicode="&#x39e;" horiz-adv-x="1059" 
d="M897 152l-33 -152h-891l31 152h893zM322 1462h813l-33 -153h-813zM276 840h639l-28 -150h-641z" />
    <glyph glyph-name="Omicron" unicode="&#x39f;" horiz-adv-x="1475" 
d="M879 1333q-162 0 -286 -101q-125 -101 -193 -281q-68 -181 -68 -389t98 -320t258 -111q160 -1 280 97t191 280q70 182 70 392t-94 322t-256 111zM1411 908q0 -270 -88 -482t-252 -330q-164 -116 -379 -116q-256 0 -399 150t-143 416q0 267 96 485t264 336t394 118
q227 0 367 -154q140 -153 140 -423z" />
    <glyph glyph-name="Pi" unicode="&#x3a0;" horiz-adv-x="1391" 
d="M1092 0h-174l276 1311h-662l-276 -1311h-170l309 1462h1006z" />
    <glyph glyph-name="Rho" unicode="&#x3a1;" horiz-adv-x="1159" 
d="M543 721q216 0 328 91t112 267q1 125 -69 181t-214 55h-163l-127 -594h133zM725 1462q434 0 434 -377q0 -248 -164 -379t-481 -131h-135l-123 -575h-170l309 1462h330z" />
    <glyph glyph-name="Sigma" unicode="&#x3a3;" horiz-adv-x="1067" 
d="M-29 0l27 139l532 617l-268 569l27 137h862l-33 -153h-676l267 -566l-510 -591h733l-33 -152h-928z" />
    <glyph glyph-name="Tau" unicode="&#x3a4;" horiz-adv-x="1020" 
d="M487 0h-172l277 1311h-406l33 151h985l-30 -151h-408z" />
    <glyph glyph-name="Upsilon" unicode="&#x3a5;" horiz-adv-x="1030" 
d="M537 715l489 747h193l-627 -921l-113 -541h-172l119 549l-238 913h170z" />
    <glyph glyph-name="Phi" unicode="&#x3a6;" horiz-adv-x="1524" 
d="M324 673q0 -146 80.5 -231.5t226.5 -89.5l172 801q-152 0 -260 -59.5t-163.5 -167t-55.5 -253.5zM1286 844q0 144 -80 223.5t-227 85.5l-170 -801q228 13 352.5 143.5t124.5 348.5zM150 664q0 290 176.5 459.5t509.5 179.5l36 180h177l-37 -180q215 -13 331.5 -130
t116.5 -313t-126.5 -417t-555.5 -238l-49 -225h-176l49 225q-217 15 -334.5 133.5t-117.5 325.5z" />
    <glyph glyph-name="Chi" unicode="&#x3a7;" horiz-adv-x="1063" 
d="M956 0h-180l-213 641l-481 -641h-186l596 776l-263 686h172l203 -563l443 563h186l-555 -694z" />
    <glyph glyph-name="Psi" unicode="&#x3a8;" horiz-adv-x="1505" 
d="M866 449h-39l-94 -449h-176l94 449h-14q-210 0 -324 104.5t-114 298.5q0 93 24 207l84 403h178l-88 -422q-24 -111 -24 -182q0 -134 71.5 -199t221.5 -65h16l184 868h176l-184 -868h14q185 0 295.5 91t153.5 294l102 483h181l-105 -497q-53 -265 -210.5 -390.5
t-422.5 -125.5z" />
    <glyph glyph-name="uni03A9" unicode="&#x3a9;" horiz-adv-x="1501" 
d="M879 1333q-167 0 -285.5 -83.5t-183 -233.5t-64.5 -330t50.5 -310.5t164.5 -244.5l-26 -131h-551l30 152h348q-198 203 -198 534q0 225 93 411.5t255 287t350 100.5t311 -69t186.5 -197.5t63.5 -300.5q0 -230 -111 -428t-323 -338h363l-31 -152h-602l26 131
q496 297 496 793q0 197 -97.5 303t-264.5 106z" />
    <glyph glyph-name="Iotadieresis" unicode="&#x3aa;" horiz-adv-x="559" 
d="M86 0l311 1462h168l-311 -1462h-168zM619 1719q0 43 28 77t75 33q77 0 77 -80q1 -49 -29 -83t-67 -34t-61 22t-23 65zM255 1719q0 43 28 77t74 33q78 0 78 -80q1 -49 -29 -83t-67 -34t-61 22t-23 65z" />
    <glyph glyph-name="Upsilondieresis" unicode="&#x3ab;" horiz-adv-x="1030" 
d="M537 715l489 747h193l-627 -921l-113 -541h-172l119 549l-238 913h170zM816 1719q0 43 28 77t75 33q77 0 77 -80q0 -49 -30 -83t-66 -34t-60 22t-24 65zM452 1719q0 43 28 77t74 33q78 0 78 -80q0 -49 -30 -83t-66 -34t-60 22t-24 65z" />
    <glyph glyph-name="alphatonos" unicode="&#x3ac;" horiz-adv-x="1165" 
d="M270 346q0 -227 184 -227q90 0 185 92q95 93 153 241t58 274t-56 188q-56 61 -152 61t-184 -83q-86 -82 -137 -228t-51 -318zM98 368q0 192 70 370t192 278t271 100q204 0 282 -190h13q54 120 100 170h135q-37 -76 -81 -216t-70 -257l-72 -322q-16 -68 -16 -113
q0 -73 65 -73q28 0 66 12v-121q-19 -10 -58 -18t-63 -8q-178 0 -178 193v13h-9q-168 -206 -350 -206q-137 0 -217 98t-80 290zM995 1653v-29q-25 -60 -105 -180t-151 -203h-104v29q117 214 178 383h182z" />
    <glyph glyph-name="epsilontonos" unicode="&#x3ad;" horiz-adv-x="911" 
d="M362 582q-153 58 -153 230q-1 86 51 156t143 108t205 38q180 0 316 -72l-62 -131q-47 28 -117 45t-129 17q-119 0 -184 -48q-65 -47 -65 -127t52 -118t142 -39h125l-31 -145h-112q-155 0 -235 -54t-79 -146q0 -178 217 -179q147 0 332 90v-144q-153 -83 -340 -83t-281 74
t-94 206q0 262 299 315v7zM914 1653v-29q-25 -60 -105 -180t-151 -203h-104v29q117 214 178 383h182z" />
    <glyph glyph-name="etatonos" unicode="&#x3ae;" 
d="M897 848q1 52 -35 89q-36 38 -120 38t-168 -60q-182 -129 -246 -440l-101 -475h-168l234 1096h139l-22 -203h10q96 123 186 173t200 50q112 0 186 -70t73 -194q0 -79 -23 -180l-251 -1164h-168l254 1184q20 104 20 156zM993 1653v-29q-25 -60 -105 -180t-151 -203h-104
v29q117 214 178 383h182z" />
    <glyph glyph-name="iotatonos" unicode="&#x3af;" horiz-adv-x="625" 
d="M104 217q0 33 10 87t165 792h167l-155 -736q-17 -76 -17 -124q0 -119 107 -119q48 0 139 26v-129q-81 -34 -168 -34q-248 0 -248 237zM689 1653v-29q-25 -60 -105 -180t-151 -203h-104v29q117 214 178 383h182z" />
    <glyph glyph-name="upsilondieresistonos" unicode="&#x3b0;" horiz-adv-x="1180" 
d="M508 -20q-181 0 -278 94t-97 264q1 48 11 112t132 646h168l-110 -525q-33 -148 -33 -225q1 -120 59 -174t158 -55q268 0 364 431q48 217 48 548h168q0 -1116 -590 -1116zM828 1381q0 43 28 77t74 33q78 0 78 -80q0 -49 -30 -83t-66 -34t-60 22t-24 65zM425 1382
q1 44 29 77q28 32 73 32q78 0 78 -80q-1 -49 -31 -83t-66 -34t-60 22q-23 22 -23 66zM642 1389v22q106 187 157 305h195v-20q-114 -158 -277 -307h-75z" />
    <glyph glyph-name="alpha" unicode="&#x3b1;" horiz-adv-x="1165" 
d="M270 346q0 -227 184 -227q90 0 184.5 92t153 240.5t58.5 274.5t-56 187.5t-152 61.5t-183 -83t-138 -228.5t-51 -317.5zM98 368q0 191 70 369.5t192 278.5t271 100q204 0 282 -190h13q54 120 100 170h135q-37 -76 -81 -216t-70 -257l-72 -322q-16 -68 -16 -113
q0 -73 65 -73q28 0 66 12v-121q-19 -11 -58 -18.5t-63 -7.5q-178 0 -178 193v13h-9q-168 -206 -350 -206q-138 0 -217.5 98.5t-79.5 289.5z" />
    <glyph glyph-name="beta" unicode="&#x3b2;" 
d="M893 461q0 284 -299 284h-68l31 142h72q171 0 261.5 83.5t90.5 239.5q0 99 -55.5 158t-165.5 59t-184 -75t-115 -262l-189 -885q123 -88 283 -88q102 0 179.5 45t118 124.5t40.5 174.5zM565 -20q-169 0 -317 114l-125 -586h-168l338 1584q39 174 133.5 324.5t359.5 150.5
q172 0 268.5 -92t96.5 -338t-350 -326q124 -29 189 -117.5t65 -222.5q0 -223 -134 -357t-356 -134z" />
    <glyph glyph-name="gamma" unicode="&#x3b3;" horiz-adv-x="940" 
d="M375 147h4q74 184 160 351l319 598h178l-583 -1076q-139 -253 -193 -512h-176q42 230 184 504l-170 1084h170l80 -592q27 -211 27 -357z" />
    <glyph glyph-name="delta" unicode="&#x3b4;" horiz-adv-x="1133" 
d="M511 119q138 0 233.5 117t95.5 310t-146 318q-218 -50 -334 -171.5t-116 -297.5q0 -129 64.5 -202.5t202.5 -73.5zM418 1255q0 139 99.5 225.5t271.5 86.5t341 -115l-67 -121q-107 62 -168 80.5t-139 18.5t-128 -45t-50 -127t46 -133.5t130 -118.5q141 -114 198.5 -222
t57.5 -254t-66 -276t-187 -202t-293 -72t-281 107t-109 284q0 216 132.5 363t389.5 214q-97 78 -137.5 152t-40.5 155z" />
    <glyph glyph-name="epsilon" unicode="&#x3b5;" horiz-adv-x="911" 
d="M362 582q-153 58 -153 230q0 86 51.5 156.5t142.5 108t205 37.5q180 0 316 -72l-62 -131q-47 28 -117 45t-129 17q-119 0 -184 -47.5t-65 -127.5t52 -118.5t142 -38.5h125l-31 -145h-112q-155 0 -234.5 -54t-79.5 -146q0 -178 217 -179q147 0 332 90v-144
q-153 -83 -340 -83t-281 74t-94 206q0 262 299 315v7z" />
    <glyph glyph-name="zeta" unicode="&#x3b6;" horiz-adv-x="928" 
d="M731 -133q0 -141 -170 -285h-176q110 96 147 152t37 106t-33.5 81t-174.5 89t-202 142.5t-61 232.5q0 212 168 450t586 588q-115 -12 -264 -12h-205l31 145h661l-28 -133l-178 -157q-329 -287 -464 -486.5t-135 -369.5q0 -107 44 -165.5t178 -114.5t186.5 -115t52.5 -148
z" />
    <glyph glyph-name="eta" unicode="&#x3b7;" 
d="M897 848q0 52 -35.5 89.5t-119.5 37.5t-216.5 -94.5t-197.5 -405.5l-101 -475h-168l234 1096h139l-22 -203h10q96 122 185 172.5t201 50.5t185.5 -69.5t73.5 -194.5q0 -79 -23 -180l-251 -1164h-168l254 1184q20 104 20 156z" />
    <glyph glyph-name="theta" unicode="&#x3b8;" horiz-adv-x="1112" 
d="M727 1436q-133 0 -229.5 -132t-171.5 -427h555q26 128 26 266q0 293 -180 293zM449 123q135 0 232 145.5t171 462.5h-557q-33 -169 -33 -318t46 -219.5t141 -70.5zM98 429q0 242 91 553t228 454t331 143q325 0 325 -442q0 -249 -130 -703t-515 -454q-157 0 -243.5 103.5
t-86.5 345.5z" />
    <glyph glyph-name="iota" unicode="&#x3b9;" horiz-adv-x="625" 
d="M104 217q0 33 9.5 86.5t165.5 792.5h167l-155 -736q-17 -76 -17 -124q0 -119 107 -119q48 0 139 26v-129q-81 -34 -168 -34q-248 0 -248 237z" />
    <glyph glyph-name="kappa" unicode="&#x3ba;" horiz-adv-x="999" 
d="M330 559l526 537h201l-469 -467l295 -629h-187l-235 524l-152 -123l-82 -401h-170l232 1096h170l-62 -281q-11 -57 -71 -256h4z" />
    <glyph glyph-name="lambda" unicode="&#x3bb;" horiz-adv-x="989" 
d="M342 1430q-61 0 -109 -11l-20 133q63 17 147 17t143.5 -30t91.5 -93.5t46 -183.5l119 -1049q11 -98 69 -98q34 0 68 12v-125q-49 -22 -125 -22t-117.5 49.5t-52.5 154.5l-43 406q-18 153 -18 313q-55 -142 -121 -262l-361 -641h-176l623 1077l-19 148q-23 205 -145 205z
" />
    <glyph glyph-name="uni03BC" unicode="&#x3bc;" horiz-adv-x="1194" 
d="M295 266q0 -147 147 -147q89 0 172 59q82 59 148 171t100 269l105 478h163l-233 -1096h-139l24 205h-12q-93 -121 -183 -173t-195 -52t-156 96h-9q-24 -168 -106 -568h-164l336 1588h168l-148 -695q-18 -92 -18 -135z" />
    <glyph glyph-name="nu" unicode="&#x3bd;" horiz-adv-x="1001" 
d="M98 1096h168l74 -627q17 -161 27 -324q178 162 296.5 389.5t192.5 561.5h166q-75 -365 -217.5 -620t-394.5 -476h-177z" />
    <glyph glyph-name="xi" unicode="&#x3be;" horiz-adv-x="911" 
d="M295 1085q0 116 91 209t239 129l-46 -4q-68 -8 -157 -8h-57l30 145h606l-28 -133h-6q-135 0 -253 -41t-187.5 -115t-69.5 -169q0 -215 303 -215h92l-29 -133h-80q-138 0 -250.5 -44.5t-175.5 -127.5t-63 -187t46 -157.5t175 -104.5q244 -87 244 -260q0 -69 -36.5 -136.5
t-131.5 -150.5h-182q109 95 146.5 149t37.5 107t-35.5 86.5t-171.5 85.5t-200 135t-64 217q0 173 113.5 293t316.5 164v6q-217 64 -217 260z" />
    <glyph glyph-name="omicron" unicode="&#x3bf;" horiz-adv-x="1149" 
d="M879 711q-1 115 -63 187t-170 71q-108 0 -194 -74q-86 -73 -134 -205t-48 -278t64 -218t174 -71q112 0 195 73q83 74 129 208t47 307zM643 1110q190 0 300 -112t110 -306q0 -192 -72 -359t-195 -258q-122 -91 -296 -91t-283 113t-109 306t73 361t197 256q124 90 275 90z
" />
    <glyph glyph-name="pi" unicode="&#x3c0;" horiz-adv-x="1229" 
d="M879 182q0 -65 65 -65q44 0 84 16v-133q-70 -20 -147 -20t-124.5 46.5t-47.5 117.5t18 153l135 653h-395l-205 -950h-170l205 950h-221l12 66l197 80h985l-31 -146h-209l-139 -669q-12 -58 -12 -99z" />
    <glyph glyph-name="rho" unicode="&#x3c1;" horiz-adv-x="1169" 
d="M899 684q-1 291 -233 291q-116 0 -191 -83.5t-119 -281.5l-82 -381q110 -110 256 -110q107 0 191 75.5t131 209.5t47 280zM682 1114q189 0 288 -110t99 -310t-70 -369.5t-187.5 -257t-266.5 -87.5q-88 0 -160 28.5t-143 97.5q-14 -96 -119 -598h-166l242 1143
q95 463 483 463z" />
    <glyph glyph-name="sigma1" unicode="&#x3c2;" horiz-adv-x="928" 
d="M385 -430q184 162 184 268q0 58 -34 88.5t-144 71.5q-293 109 -293 424q0 190 77 354t205.5 252t276.5 88t281 -51l-47 -141q-127 51 -231 51t-193 -70t-143 -199.5t-54 -241.5t22.5 -169.5t69 -96.5t160.5 -83t163.5 -104.5t49.5 -140.5t-38.5 -148t-131.5 -152h-180z
" />
    <glyph glyph-name="sigma" unicode="&#x3c3;" horiz-adv-x="1190" 
d="M270 438q0 -315 244 -315q163 0 251.5 136.5t88.5 354.5t-72 336h-71q-215 0 -328 -131.5t-113 -380.5zM1020 600q0 -174 -104 -395t-414 -221q-199 0 -301.5 115t-102.5 337q0 309 163 484.5t456 175.5h502l-29 -146h-266q69 -127 82.5 -203t13.5 -147z" />
    <glyph glyph-name="tau" unicode="&#x3c4;" horiz-adv-x="856" 
d="M416 233q0 -116 110 -116q53 0 144 26v-129q-80 -34 -186 -34q-105 0 -171.5 59.5t-66.5 177.5q0 65 28 195l113 538h-311l12 66l197 80h635l-31 -146h-332l-117 -544q-24 -111 -24 -173z" />
    <glyph glyph-name="upsilon" unicode="&#x3c5;" horiz-adv-x="1180" 
d="M508 -20q-181 0 -278 93.5t-97 264.5q0 48 10.5 112.5t132.5 645.5h168l-110 -525q-33 -148 -33 -225q0 -120 58.5 -174.5t158.5 -54.5q267 0 339.5 324t72.5 655h168q0 -1116 -590 -1116z" />
    <glyph glyph-name="phi" unicode="&#x3c6;" horiz-adv-x="1372" 
d="M1106 743q0 230 -129 230q-71 0 -111 -52t-67 -182l-133 -620q273 27 356.5 240t83.5 384zM988 1114q286 0 286 -390q0 -198 -120.5 -459t-520.5 -288l-98 -469h-166l100 474q-175 20 -273 133t-98 305t79 355t255 329l107 -100q-146 -140 -210.5 -275t-64.5 -297
q0 -283 236 -313l135 643q39 184 125 268t228 84z" />
    <glyph glyph-name="chi" unicode="&#x3c7;" horiz-adv-x="1030" 
d="M246 1098q101 0 155.5 -58t71.5 -194l41 -352l410 602h176l-549 -791l67 -498q14 -93 43 -128t77 -35t89 12v-125q-66 -23 -129 -23q-102 0 -159 63t-76 216l-47 371l-455 -650h-190l608 832l-60 481q-9 79 -35 110.5t-58 31.5t-83 -15l-30 123q70 27 133 27z" />
    <glyph glyph-name="psi" unicode="&#x3c8;" horiz-adv-x="1462" 
d="M1210 1096h172q0 -391 -73.5 -625.5t-226 -352.5t-390.5 -132l-100 -478h-166l102 478q-186 17 -285.5 115.5t-99.5 273.5q0 92 27 213l106 508h168l-106 -512q-25 -117 -25 -189q0 -129 61 -194.5t183 -77.5l303 1431h166l-303 -1427q338 34 412.5 331t74.5 638z" />
    <glyph glyph-name="omega" unicode="&#x3c9;" horiz-adv-x="1495" 
d="M98 346q0 367 262 750h177q-267 -410 -267 -746q0 -229 146 -229q159 0 217 270l65 305h166l-61 -278q-17 -74 -17 -144t33.5 -111.5t93.5 -41.5q89 0 159.5 80t112.5 239t42 335t-27 321h168q31 -147 31 -341t-65 -387.5t-174.5 -290.5t-254.5 -97q-93 0 -151.5 48.5
t-81.5 127.5q-56 -88 -125.5 -132t-169.5 -44q-132 0 -205.5 97.5t-73.5 268.5z" />
    <glyph glyph-name="iotadieresis" unicode="&#x3ca;" horiz-adv-x="625" 
d="M104 217q0 33 10 87t165 792h167l-155 -736q-17 -76 -17 -124q0 -119 107 -119q48 0 139 26v-129q-81 -34 -168 -34q-248 0 -248 237zM503 1381q0 43 28 77t75 33q77 0 77 -80q1 -49 -29 -83t-67 -34t-61 22t-23 65zM139 1381q0 43 28 77t74 33q78 0 78 -80
q1 -49 -29 -83t-67 -34t-61 22t-23 65z" />
    <glyph glyph-name="upsilondieresis" unicode="&#x3cb;" horiz-adv-x="1180" 
d="M508 -20q-181 0 -278 94t-97 264q1 48 11 112t132 646h168l-110 -525q-33 -148 -33 -225q1 -120 59 -174t158 -55q268 0 364 431q48 217 48 548h168q0 -1116 -590 -1116zM814 1381q0 43 28 77t75 33q77 0 77 -80q0 -49 -30 -83t-66 -34t-60 22t-24 65zM450 1381
q0 43 28 77t74 33q78 0 78 -80q0 -49 -30 -83t-66 -34t-60 22t-24 65z" />
    <glyph glyph-name="omicrontonos" unicode="&#x3cc;" horiz-adv-x="1149" 
d="M879 711q-1 115 -63 187t-170 71q-108 0 -194 -74q-86 -73 -134 -205t-48 -278t64 -218t174 -71q112 0 195 73q83 74 129 208t47 307zM643 1110q190 0 300 -112t110 -306q0 -192 -72 -359t-195 -258q-122 -91 -296 -91t-283 113t-109 306t73 361t197 256q124 90 275 90z
M985 1653v-29q-25 -60 -105 -180t-151 -203h-104v29q117 214 178 383h182z" />
    <glyph glyph-name="upsilontonos" unicode="&#x3cd;" horiz-adv-x="1180" 
d="M508 -20q-181 0 -278 94t-97 264q1 48 11 112t132 646h168l-110 -525q-33 -148 -33 -225q1 -120 59 -174t158 -55q268 0 364 431q48 217 48 548h168q0 -1116 -590 -1116zM970 1653v-29q-25 -60 -105 -180t-151 -203h-104v29q117 214 178 383h182z" />
    <glyph glyph-name="omegatonos" unicode="&#x3ce;" horiz-adv-x="1495" 
d="M98 346q0 367 262 750h177q-267 -410 -267 -746q0 -229 146 -229q159 0 217 270l65 305h166l-61 -278q-17 -74 -17 -144t34 -111q34 -42 93 -42q89 0 159 80t113 239q42 159 42 335t-27 321h168q31 -147 31 -341q0 -193 -65 -387q-64 -194 -174 -291t-255 -97
q-93 0 -151 48t-82 128q-56 -88 -126 -132t-169 -44q-131 0 -205 98t-74 268zM1157 1653v-29q-25 -60 -105 -180t-151 -203h-104v29q117 214 178 383h182z" />
    <glyph glyph-name="uni03D1" unicode="&#x3d1;" horiz-adv-x="1167" 
d="M528 1210q0 -234 371 -235q6 30 6 106q0 361 -192 361q-87 0 -136 -59t-49 -173zM199 682q0 57 -66 57q-35 0 -86 -28l10 131q78 32 151 32t116 -43t43 -109t-18.5 -121t-38.5 -110t-37 -108.5t-17 -112.5q0 -153 164 -153q230 0 334 261.5t133 471.5q-525 6 -525 369
q0 161 97 260.5t263 99.5t259.5 -130t93.5 -368q0 -66 -4 -106h143l-28 -127h-131q-37 -266 -178 -567t-474 -301q-150 0 -232.5 73t-82.5 207q0 100 62 260q20 52 34.5 90t14.5 72z" />
    <glyph glyph-name="uni03D2" unicode="&#x3d2;" horiz-adv-x="1044" 
d="M1143 1475q47 0 104 -17l-37 -135q-37 8 -53 8q-51 0 -126 -81.5t-441 -719.5l-111 -530h-172l119 549l-238 913h170l179 -747q306 577 409 668.5t197 91.5z" />
    <glyph glyph-name="uni03D6" unicode="&#x3d6;" horiz-adv-x="1622" 
d="M326 334q0 -213 146 -213q72 0 129.5 70.5t84.5 199.5l39 180h162l-31 -151q-16 -75 -16 -133q0 -166 129 -166q82 0 149.5 80.5t106.5 216t39 276.5t-21 256h-694q-223 -334 -223 -616zM440 -20q-135 0 -211.5 88t-76.5 248q0 322 221 634h-264l12 66l196 80h1356
l-31 -146h-235q29 -126 29 -290t-94.5 -422t-374.5 -258q-193 0 -240 186q-105 -186 -287 -186z" />
    <glyph glyph-name="uni0400" unicode="&#x400;" horiz-adv-x="1047" 
d="M821 0h-735l309 1462h735l-32 -153h-566l-98 -469h527l-29 -152h-529l-114 -536h565zM898 1579h-104q-60 61 -128 154t-96 153v21h181q43 -136 147 -303v-25z" />
    <glyph glyph-name="afii10023" unicode="&#x401;" horiz-adv-x="1047" 
d="M821 0h-735l309 1462h735l-32 -153h-566l-98 -469h527l-29 -152h-529l-114 -536h565zM887 1719q0 43 28 77t75 33q77 0 77 -80q1 -49 -29 -83t-67 -34t-61 22t-23 65zM523 1719q0 43 28 77t74 33q78 0 78 -80q1 -49 -29 -83t-67 -34t-61 22t-23 65z" />
    <glyph glyph-name="afii10051" unicode="&#x402;" horiz-adv-x="1366" 
d="M1049 569q0 172 -213 172h-279l-156 -741h-172l279 1311h-322l33 151h901l-30 -151h-410l-90 -418h258q371 0 371 -307q0 -85 -19 -180l-14 -72q-37 -183 -129 -268.5t-252 -85.5q-70 0 -137 20v152q60 -21 140 -21t133 49.5t81 189.5t27 199z" />
    <glyph glyph-name="afii10052" unicode="&#x403;" horiz-adv-x="975" 
d="M258 0h-172l309 1462h735l-30 -153h-565zM1079 1907v-21q-38 -49 -140 -151t-177 -156h-105v27q55 60 125 152t107 149h190z" />
    <glyph glyph-name="afii10053" unicode="&#x404;" horiz-adv-x="1198" 
d="M150 536q0 262 105.5 486.5t283.5 342.5t389 118t362 -80l-69 -141q-138 69 -279 69q-204 0 -353.5 -130.5t-213.5 -356.5h622l-30 -152h-625q-10 -62 -10 -151q0 -195 96 -302.5t252 -107.5t340 57v-149q-164 -59 -352 -59q-246 0 -382 147t-136 409z" />
    <glyph glyph-name="afii10054" unicode="&#x405;" horiz-adv-x="1028" 
d="M401 -20q-231 0 -362 63v170q162 -84 332 -84q170 -1 265 75t95 208q-1 78 -53 138t-199 142q-147 83 -205 168t-59 201q0 187 132 305t335 117q203 0 377 -84l-66 -150q-66 38 -148 60t-151 22q-134 1 -216 -69t-81 -179q0 -109 71 -175q37 -34 163 -108
q125 -74 177 -125q104 -101 105 -251q-1 -212 -141 -328t-371 -116z" />
    <glyph glyph-name="afii10055" unicode="&#x406;" horiz-adv-x="559" 
d="M86 0l311 1462h168l-311 -1462h-168z" />
    <glyph glyph-name="afii10056" unicode="&#x407;" horiz-adv-x="559" 
d="M86 0l311 1462h168l-311 -1462h-168zM619 1719q0 43 28 77t75 33q77 0 77 -80q1 -49 -29 -83t-67 -34t-61 22t-23 65zM255 1719q0 43 28 77t74 33q78 0 78 -80q1 -49 -29 -83t-67 -34t-61 22t-23 65z" />
    <glyph glyph-name="afii10057" unicode="&#x408;" horiz-adv-x="547" 
d="M-166 -385q-105 0 -153 25l6 147q69 -20 157 -20q88 1 154 63t90 182l307 1450h170l-309 -1468q-79 -379 -422 -379z" />
    <glyph glyph-name="afii10058" unicode="&#x409;" horiz-adv-x="1821" 
d="M1153 145q371 0 371 320q0 115 -63.5 170t-198.5 55h-142l-116 -545h149zM59 -23q-76 0 -125 23v150q52 -21 119 -21t119.5 44t122 197.5t321.5 1091.5h666l-131 -624h109q440 0 440 -357q0 -231 -149 -356t-425 -125h-323l276 1309h-338q-205 -800 -292.5 -1001.5
t-174.5 -266t-215 -64.5z" />
    <glyph glyph-name="afii10059" unicode="&#x40a;" horiz-adv-x="1847" 
d="M1180 145q370 0 370 320q0 112 -61.5 167.5t-200.5 55.5h-141l-117 -543h150zM1286 840q440 0 440 -359q0 -230 -148 -355.5t-425 -125.5h-324l144 688h-572l-145 -688h-170l309 1462h170l-131 -622h572l133 622h170l-133 -622h110z" />
    <glyph glyph-name="afii10060" unicode="&#x40b;" horiz-adv-x="1366" 
d="M1049 585q0 156 -213 156h-279l-156 -741h-172l279 1311h-322l33 151h901l-30 -151h-410l-90 -418h272q184 0 270.5 -78t86.5 -233q0 -39 -9.5 -95.5t-99.5 -486.5h-172l90 416q21 93 21 169z" />
    <glyph glyph-name="afii10061" unicode="&#x40c;" horiz-adv-x="1145" 
d="M1065 0h-197l-460 725l-152 -725h-170l309 1462h170l-151 -712l704 712h211l-737 -731zM1149 1907v-21q-38 -49 -140 -151t-177 -156h-105v27q55 60 125 152t107 149h190z" />
    <glyph glyph-name="uni040D" unicode="&#x40d;" horiz-adv-x="1427" 
d="M395 1462h164l-174 -817l-90 -395h4l940 1212h199l-310 -1462h-161l174 825q60 289 94 410h-4l-946 -1235h-199zM1005 1579h-104q-61 61 -129 154t-95 153v21h181q43 -136 147 -303v-25z" />
    <glyph glyph-name="afii10062" unicode="&#x40e;" horiz-adv-x="1171" 
d="M162 -20q-94 0 -166 28v168q90 -39 180 -39q90 -1 170 61t178 222l-309 1042h172l178 -643q49 -182 70 -289q61 136 125 246l405 686h195l-682 -1104q-124 -202 -242 -290t-274 -88zM777 1579q-316 0 -316 242q0 32 10 69h146q-6 -34 -6 -59q0 -127 174 -127
q113 0 169 44t74 142h162q-57 -311 -413 -311z" />
    <glyph glyph-name="afii10145" unicode="&#x40f;" horiz-adv-x="1391" 
d="M395 1462h172l-276 -1310h661l277 1310h172l-309 -1462h-422l-80 -381h-162l82 381h-424z" />
    <glyph glyph-name="afii10017" unicode="&#x410;" horiz-adv-x="1137" 
d="M795 621l-35 299q-24 179 -29 350q-37 -88 -81 -175t-249 -474h394zM813 465h-496l-245 -465h-189l799 1462h174l184 -1462h-170z" />
    <glyph glyph-name="afii10018" unicode="&#x411;" horiz-adv-x="1155" 
d="M483 145q371 0 371 320q0 114 -62.5 169.5t-199.5 55.5h-184l-117 -545h192zM590 838q440 0 440 -357q0 -230 -148 -355.5t-425 -125.5h-367l309 1462h731l-32 -153h-559l-101 -471h152z" />
    <glyph glyph-name="afii10019" unicode="&#x412;" horiz-adv-x="1225" 
d="M553 145q181 1 278 81t97 212q0 254 -289 254h-236l-116 -547h266zM682 836q156 0 249 73t93 188t-66 167t-210 51h-211l-103 -479h248zM770 1462q432 0 432 -336q0 -141 -87 -238t-245 -126v-10q114 -32 176 -110t62 -189q0 -213 -152 -333t-407 -120h-463l309 1462h375
z" />
    <glyph glyph-name="afii10020" unicode="&#x413;" horiz-adv-x="975" 
d="M258 0h-172l309 1462h735l-30 -153h-565z" />
    <glyph glyph-name="afii10021" unicode="&#x414;" horiz-adv-x="1272" 
d="M1057 1307h-250q-77 -249 -249.5 -598.5t-319.5 -554.5h573zM895 -379l80 379h-907l-80 -379h-158l113 533h102q139 192 345.5 574t291.5 734h580l-277 -1308h186l-114 -533h-162z" />
    <glyph glyph-name="afii10022" unicode="&#x415;" horiz-adv-x="1047" 
d="M821 0h-735l309 1462h735l-32 -153h-566l-98 -469h527l-29 -152h-529l-114 -536h565z" />
    <glyph glyph-name="afii10024" unicode="&#x416;" horiz-adv-x="1589" 
d="M584 768l-365 694h187l360 -698l147 698h166l-147 -698l637 698h207l-674 -735l375 -727h-191l-362 731l-154 -731h-166l154 731l-649 -731h-209z" />
    <glyph glyph-name="afii10025" unicode="&#x417;" horiz-adv-x="1090" 
d="M1063 1158q0 -152 -100.5 -259.5t-272.5 -142.5v-6q129 -19 206 -101.5t77 -216.5t-71.5 -237t-204.5 -159t-335 -56t-368 79v166q78 -45 185.5 -74.5t219.5 -29.5q185 0 288.5 85.5t103.5 229.5q0 248 -322 248h-215l29 141h200q187 0 295.5 83t108.5 229
q0 106 -62.5 155t-167.5 49q-168 0 -352 -118l-72 123q113 74 221 105.5t258 31.5t250.5 -86.5t100.5 -238.5z" />
    <glyph glyph-name="afii10026" unicode="&#x418;" horiz-adv-x="1427" 
d="M395 1462h164l-174 -817l-90 -395h4l940 1212h199l-310 -1462h-161l174 825q60 289 94 410h-4l-946 -1235h-199z" />
    <glyph glyph-name="afii10027" unicode="&#x419;" horiz-adv-x="1427" 
d="M395 1462h164l-174 -817l-90 -395h4l940 1212h199l-310 -1462h-161l174 825q60 289 94 410h-4l-946 -1235h-199zM906 1579q-316 0 -316 242q0 32 10 69h146q-6 -34 -6 -59q0 -127 174 -127q112 0 168 44t75 142h162q-57 -311 -413 -311z" />
    <glyph glyph-name="afii10028" unicode="&#x41a;" horiz-adv-x="1145" 
d="M1065 0h-197l-460 725l-152 -725h-170l309 1462h170l-151 -712l704 712h211l-737 -731z" />
    <glyph glyph-name="afii10029" unicode="&#x41b;" horiz-adv-x="1319" 
d="M59 -23q-76 0 -125 23v150q52 -21 119 -21t119.5 44t122 197.5t321.5 1091.5h713l-311 -1462h-172l278 1309h-383q-205 -800 -292.5 -1001.5t-174.5 -266t-215 -64.5z" />
    <glyph glyph-name="afii10030" unicode="&#x41c;" horiz-adv-x="1714" 
d="M676 0l-166 1296h-8q-16 -167 -66 -397l-190 -899h-162l309 1462h244l149 -1204h9l659 1204h266l-303 -1462h-174q126 590 193 906t94 392h-6l-717 -1298h-131z" />
    <glyph glyph-name="afii10031" unicode="&#x41d;" horiz-adv-x="1389" 
d="M1085 0h-167l143 688h-660l-145 -688h-170l309 1462h170l-131 -622h660l133 622h168z" />
    <glyph glyph-name="afii10032" unicode="&#x41e;" horiz-adv-x="1475" 
d="M879 1333q-162 0 -286 -101q-125 -101 -193 -281q-68 -181 -68 -389t98 -320t258 -111q160 -1 280 97t191 280q70 182 70 392t-94 322t-256 111zM1411 908q0 -270 -88 -482t-252 -330q-164 -116 -379 -116q-256 0 -399 150t-143 416q0 267 96 485t264 336t394 118
q227 0 367 -154q140 -153 140 -423z" />
    <glyph glyph-name="afii10033" unicode="&#x41f;" horiz-adv-x="1391" 
d="M1092 0h-174l276 1311h-662l-276 -1311h-170l309 1462h1006z" />
    <glyph glyph-name="afii10034" unicode="&#x420;" horiz-adv-x="1159" 
d="M543 721q216 0 328 91t112 267q1 125 -69 181t-214 55h-163l-127 -594h133zM725 1462q434 0 434 -377q0 -248 -164 -379t-481 -131h-135l-123 -575h-170l309 1462h330z" />
    <glyph glyph-name="afii10035" unicode="&#x421;" horiz-adv-x="1198" 
d="M150 538q0 260 106 484t283 343q178 118 389 118t362 -80l-69 -141q-137 69 -295 69t-296 -97q-138 -96 -218 -284t-80 -392t98 -316t252 -111q155 0 338 57v-149q-164 -59 -352 -59q-242 0 -380 150q-138 148 -138 408z" />
    <glyph glyph-name="afii10036" unicode="&#x422;" horiz-adv-x="1020" 
d="M487 0h-172l277 1311h-406l33 151h985l-30 -151h-408z" />
    <glyph glyph-name="afii10037" unicode="&#x423;" horiz-adv-x="1171" 
d="M162 -20q-94 0 -166 28v168q90 -39 180 -39t170 61.5t178 221.5l-309 1042h172l178 -643q49 -182 70 -289q61 136 125 246l405 686h195l-682 -1104q-124 -203 -241.5 -290.5t-274.5 -87.5z" />
    <glyph glyph-name="afii10038" unicode="&#x424;" horiz-adv-x="1524" 
d="M324 673q0 -145 80 -231t227 -90l172 801q-152 1 -260 -59q-107 -60 -163 -168t-56 -253zM1286 844q0 144 -80 224t-227 85l-170 -801q229 14 353 144t124 348zM150 664q0 290 176 460t510 179l36 180h177l-37 -180q216 -13 332 -130t116 -313t-84 -344
q-169 -295 -598 -311l-49 -225h-176l49 225q-216 15 -334 133t-118 326z" />
    <glyph glyph-name="afii10039" unicode="&#x425;" horiz-adv-x="1063" 
d="M956 0h-180l-213 641l-481 -641h-186l596 776l-263 686h172l203 -563l443 563h186l-555 -694z" />
    <glyph glyph-name="afii10040" unicode="&#x426;" horiz-adv-x="1362" 
d="M1257 156l-114 -535h-162l80 379h-977l309 1462h172l-276 -1308h631l276 1308h172l-276 -1306h165z" />
    <glyph glyph-name="afii10041" unicode="&#x427;" horiz-adv-x="1309" 
d="M424 821q0 -157 171 -157t402 79l150 719h172l-309 -1462h-172l127 600q-199 -88 -377 -88q-338 0 -338 276q0 74 22 168l109 506h170l-107 -504q-20 -100 -20 -137z" />
    <glyph glyph-name="afii10042" unicode="&#x428;" horiz-adv-x="1956" 
d="M84 0l309 1462h172l-278 -1308h532l277 1308h170l-277 -1308h531l276 1308h170l-309 -1462h-1573z" />
    <glyph glyph-name="afii10043" unicode="&#x429;" horiz-adv-x="1960" 
d="M1855 156l-114 -535h-162l80 379h-1575l309 1462h172l-278 -1308h532l277 1308h170l-277 -1308h531l276 1308h170l-276 -1306h165z" />
    <glyph glyph-name="afii10044" unicode="&#x42a;" horiz-adv-x="1280" 
d="M612 145q371 0 371 320q0 114 -62.5 169.5t-199.5 55.5h-172l-117 -545h180zM719 838q440 0 440 -357q0 -230 -148 -355.5t-425 -125.5h-355l277 1311h-322l33 151h494l-133 -624h139z" />
    <glyph glyph-name="afii10045" unicode="&#x42b;" horiz-adv-x="1610" 
d="M467 145q371 0 371 320q0 115 -63.5 170t-199.5 55h-172l-116 -545h180zM573 838q441 0 441 -357q0 -231 -149 -356t-425 -125h-354l309 1462h172l-133 -624h139zM1311 0h-170l309 1462h170z" />
    <glyph glyph-name="afii10046" unicode="&#x42c;" horiz-adv-x="1135" 
d="M467 145q371 0 371 320q0 115 -63.5 170t-199.5 55h-172l-116 -545h180zM573 838q441 0 441 -357q0 -231 -149 -356t-425 -125h-354l309 1462h172l-133 -624h139z" />
    <glyph glyph-name="afii10047" unicode="&#x42d;" horiz-adv-x="1198" 
d="M385 -20q-219 0 -367 79v166q153 -69 225 -81.5t132 -12.5q227 0 369.5 142.5t187.5 418.5h-623l29 152h612l2 92q0 186 -92.5 290.5t-257.5 104.5q-63 0 -128 -11t-193 -52l-43 143q199 72 380 72q246 0 381.5 -144t135.5 -423t-93.5 -497t-265.5 -328.5t-391 -110.5z
" />
    <glyph glyph-name="afii10048" unicode="&#x42e;" horiz-adv-x="2005" 
d="M1426 1333q-156 0 -274.5 -101t-183.5 -280.5t-65 -389.5t90.5 -320.5t247.5 -110.5t271 95t180.5 278.5t66.5 395.5t-88.5 322.5t-244.5 110.5zM1942 909q0 -271 -85 -483t-243.5 -329t-368.5 -117q-252 0 -388 149.5t-136 419.5q0 68 6 139h-326l-145 -688h-170
l309 1462h170l-131 -622h318q66 296 252 470.5t430 174.5t376 -152.5t132 -423.5z" />
    <glyph glyph-name="afii10049" unicode="&#x42f;" horiz-adv-x="1165" 
d="M795 1315q-373 0 -373 -303q0 -124 74.5 -190t212.5 -66h149l119 559h-182zM246 995q0 224 143.5 345.5t405.5 121.5h381l-308 -1462h-172l129 610h-231l-463 -610h-207l514 670q-192 101 -192 325z" />
    <glyph glyph-name="afii10065" unicode="&#x430;" horiz-adv-x="1157" 
d="M270 346q0 -227 185 -227q91 1 187 93t156 240t60 275q0 126 -56 187t-154 61t-186 -86q-90 -86 -141 -233t-51 -310zM639 1116q92 0 164 -50t112 -142h11l67 172h127l-233 -1096h-133l26 209h-8q-179 -229 -377 -229q-139 0 -218 99t-79 289t71 368t196 279t274 101z
" />
    <glyph glyph-name="afii10066" unicode="&#x431;" horiz-adv-x="1108" 
d="M504 119q197 0 262 186.5t65 320.5t-44 192.5t-134 58.5t-188.5 -61.5t-171.5 -164.5q-23 -115 -23 -217q0 -315 234 -315zM694 1018q310 0 310 -382q0 -188 -64.5 -343t-180 -234t-287.5 -79t-272 116.5t-100 341.5t72 461t188.5 377t255.5 183t541 104l21 -138
l-106 -17q-266 -44 -384 -81q-258 -85 -369 -493l5 -3q74 88 170.5 137.5t199.5 49.5z" />
    <glyph glyph-name="afii10067" unicode="&#x432;" horiz-adv-x="1102" 
d="M680 971q-152 0 -252.5 -91.5t-138.5 -265.5h225q176 0 268 53.5t92 151.5q0 72 -51 112t-143 40zM270 475v-47q0 -307 271 -307q124 0 196 52.5t72 138.5t-65 124.5t-205 38.5h-269zM678 1114q173 0 268.5 -69t95.5 -207q0 -221 -280 -285v-4q110 -29 158.5 -86
t48.5 -151t-52 -169.5t-152.5 -119t-238.5 -43.5q-209 0 -318.5 115t-109.5 325t71.5 367t203.5 242t305 85z" />
    <glyph glyph-name="afii10068" unicode="&#x433;" horiz-adv-x="936" 
d="M225 268q0 -147 218 -147q120 0 298 84v-150q-159 -75 -329 -75t-263.5 73t-93.5 201q0 157 107.5 233.5t247.5 130.5t218.5 101t78.5 135q0 119 -154 119q-128 0 -305 -72l-45 135q206 78 360 78q155 0 234.5 -64t79.5 -178t-76.5 -195.5t-250.5 -147.5t-249.5 -113.5
t-75.5 -147.5z" />
    <glyph glyph-name="afii10069" unicode="&#x434;" horiz-adv-x="1153" 
d="M473 121q137 0 244.5 151.5t156.5 409.5q-31 112 -96.5 175t-155.5 63t-172.5 -73.5t-131 -199.5t-48.5 -259t52.5 -200t150.5 -67zM907 934q0 504 -276 504q-112 0 -215 -47l-43 122q56 28 135.5 46t142.5 18q214 0 320 -155t106 -442t-83 -520t-222 -356.5t-312 -123.5
t-267.5 104.5t-94.5 286.5t68.5 343t185.5 249t260 88q201 0 287 -174h6l2 32v25z" />
    <glyph glyph-name="afii10070" unicode="&#x435;" horiz-adv-x="1010" 
d="M618 973q-90 0 -180 -94t-139 -261h12q227 0 349 60t122 172q0 53 -36 88q-38 35 -128 35zM518 121q125 0 299 84v-146q-94 -43 -166 -61t-159 -18q-184 0 -289 109t-105 299t74 364q74 172 198 268t274 96t227 -66t77 -186q0 -180 -166 -282t-475 -103h-33l-4 -80
q0 -131 62 -205t186 -73z" />
    <glyph glyph-name="afii10072" unicode="&#x436;" horiz-adv-x="1708" 
d="M1262 403q0 -284 198 -284q57 0 115 16v-139q-83 -16 -135 -16q-172 0 -261 108.5t-89 312.5q0 56 4 88h-170l-103 -489h-151l104 489h-162q-68 -314 -229.5 -411.5t-294.5 -97.5q-67 0 -123 16l25 139q53 -16 100 -16q105 0 190.5 77t135 213t49.5 278t-52 215t-151 73
q-49 0 -112 -14v137q87 18 137 18q170 0 260 -107.5t90 -314.5l-4 -76h168l100 478h154l-105 -478h164q30 147 144 322.5t368 175.5q79 0 141 -18l-30 -137q-54 14 -109 14q-104 0 -186 -75t-131 -212.5t-49 -284.5z" />
    <glyph glyph-name="afii10073" unicode="&#x437;" horiz-adv-x="893" 
d="M670 836q0 137 -192 137q-106 0 -259 -70l-53 129q178 84 342 84t247 -67.5t83 -182.5q0 -234 -258 -291v-4q186 -49 186 -235q0 -164 -123.5 -260t-320.5 -96t-326 69v158q145 -88 326 -88q127 0 205.5 56.5t78.5 150.5t-51 132t-158 38h-149l33 145h98q291 0 291 195z
" />
    <glyph glyph-name="afii10074" unicode="&#x438;" 
d="M283 262q0 -143 147 -143q88 0 173 60q181 128 249 442l100 475h166l-231 -1096h-139l22 203h-12q-98 -125 -187 -174t-201 -49t-184 70q-73 70 -73 198q0 62 22 172l146 676h170l-150 -695q-18 -89 -18 -139z" />
    <glyph glyph-name="afii10075" unicode="&#x439;" 
d="M283 262q0 -143 147 -143q88 0 173 60q181 128 249 442l100 475h166l-231 -1096h-139l22 203h-12q-98 -125 -187 -174t-201 -49t-184 70q-73 70 -73 198q0 62 22 172l146 676h170l-150 -695q-18 -89 -18 -139zM719 1241q-316 0 -316 242q0 32 10 69h146q-6 -34 -6 -59
q0 -127 174 -127q113 0 169 44t74 142h162q-57 -311 -413 -311z" />
    <glyph glyph-name="afii10076" unicode="&#x43a;" horiz-adv-x="977" 
d="M862 1096h213l-549 -541l375 -555h-203l-356 547l-115 -547h-168l232 1096h166l-113 -529z" />
    <glyph glyph-name="afii10077" unicode="&#x43b;" horiz-adv-x="1100" 
d="M743 963q-58 0 -106 -30.5t-88.5 -106.5t-124.5 -314t-142 -337.5t-128 -144t-170 -44.5q-47 0 -78 14v145q28 -10 80 -10t97 38t88 123.5t119 307.5t137 317.5t144 139t212 43.5t249 -31l-229 -1073h-170l207 954q-39 9 -97 9z" />
    <glyph glyph-name="afii10078" unicode="&#x43c;" horiz-adv-x="1413" 
d="M969 0l188 881q-16 -35 -117 -205l-391 -676h-123l-110 678q-19 113 -23 201l-186 -879h-146l232 1096h186l115 -725q20 -142 24 -207q34 77 121 225l412 707h199l-234 -1096h-147z" />
    <glyph glyph-name="afii10079" unicode="&#x43d;" horiz-adv-x="1227" 
d="M459 1096l-97 -459h535l98 459h168l-231 -1096h-170l104 494h-534l-105 -494h-168l234 1096h166z" />
    <glyph glyph-name="afii10080" unicode="&#x43e;" horiz-adv-x="1149" 
d="M879 711q-1 115 -63 187t-170 71q-108 0 -194 -74q-86 -73 -134 -205t-48 -278t64 -218t174 -71q112 0 195 73q83 74 129 208t47 307zM643 1110q190 0 300 -112t110 -306q0 -192 -72 -359t-195 -258q-122 -91 -296 -91t-283 113t-109 306t73 361t197 256q124 90 275 90z
" />
    <glyph glyph-name="afii10081" unicode="&#x43f;" 
d="M897 848q1 52 -35 89q-36 38 -120 38t-168 -60q-182 -129 -246 -440l-101 -475h-168l234 1096h139l-22 -203h10q96 123 186 173t200 50q112 0 186 -70t73 -194q0 -79 -23 -180l-143 -672h-170l148 692q20 104 20 156z" />
    <glyph glyph-name="afii10082" unicode="&#x440;" 
d="M731 975q-95 0 -195 -95t-158 -239q-58 -145 -59 -275q0 -248 216 -247q99 0 185 81q86 80 137 230q52 150 52 318q0 227 -178 227zM545 -20q-97 0 -170 50t-113 140h-10l-4 -38q-8 -68 -125 -624h-166l336 1588h139l-26 -209h8q179 227 372 227q137 0 216 -98t79 -291
q0 -194 -69 -371q-69 -178 -191 -276t-276 -98z" />
    <glyph glyph-name="afii10083" unicode="&#x441;" horiz-adv-x="922" 
d="M516 119q113 0 266 67v-143q-124 -63 -276 -63q-194 0 -301 107t-107 305t74 366q74 170 204 264t281 94q150 0 281 -51l-47 -141q-119 51 -225 51q-106 -1 -198 -77t-146 -212q-52 -136 -52 -281q0 -144 66 -215t180 -71z" />
    <glyph glyph-name="afii10084" unicode="&#x442;" horiz-adv-x="1786" 
d="M1405 1116q127 0 197 -68t69 -198q0 -68 -22 -178l-144 -672h-170l148 692q20 104 20 156q-1 52 -35 90t-112 37q-78 0 -156 -58q-166 -122 -229 -417l-107 -500h-168l148 692q18 94 18 150t-31 94q-31 39 -111 39t-158 -60q-168 -126 -234 -440l-101 -475h-168l234 1096
h139l-22 -203h10q163 223 352 223q113 0 174 -65t72 -181h8q169 246 379 246z" />
    <glyph glyph-name="afii10085" unicode="&#x443;" horiz-adv-x="946" 
d="M369 131h6q97 240 164 356l325 609h178l-696 -1282q-93 -172 -184 -239t-219 -67q-72 0 -140 21v135q63 -18 138 -18t133 50t114 150l76 136l-166 1114h168l74 -545q10 -69 20 -203t9 -217z" />
    <glyph glyph-name="afii10086" unicode="&#x444;" horiz-adv-x="1358" 
d="M1092 647q0 145 -64 228t-180 94l-180 -846q260 10 342 194.5t82 329.5zM270 449q0 -145 66 -231.5t176 -94.5l180 848q-129 -6 -225 -75t-146.5 -185.5t-50.5 -261.5zM1264 660q0 -192 -80.5 -347t-224 -242t-322.5 -87l-102 -476h-154l100 474q-185 24 -284 143
t-99 313t77 344.5t218 237t328 92.5l94 444h156l-97 -444q189 -25 289.5 -142.5t100.5 -309.5z" />
    <glyph glyph-name="afii10087" unicode="&#x445;" horiz-adv-x="979" 
d="M467 434l-346 -434h-195l475 565l-239 531h170l174 -412l330 412h194l-455 -539l252 -557h-168z" />
    <glyph glyph-name="afii10088" unicode="&#x446;" horiz-adv-x="1219" 
d="M283 262q0 -143 147 -143q88 0 221 94t201 408l100 475h166l-164 -774q-16 -78 -16 -129q0 -78 78 -78q27 0 78 14l-113 -508h-172l80 363q-62 16 -90.5 66t-28.5 151h-8q-156 -221 -373 -221q-130 0 -203 70.5t-73 197.5q0 62 22 172l146 676h170l-150 -695
q-18 -89 -18 -139z" />
    <glyph glyph-name="afii10089" unicode="&#x447;" horiz-adv-x="1137" 
d="M328 657q0 -133 150 -133t253.5 119.5t151.5 339.5l24 113h168l-233 -1096h-172l65 309q27 130 70 266h-8q-145 -192 -361 -192q-278 0 -278 276q0 55 24 183l54 254h170q-39 -185 -58.5 -278t-19.5 -161z" />
    <glyph glyph-name="afii10090" unicode="&#x448;" horiz-adv-x="1786" 
d="M113 246q0 68 22 178l144 672h170l-148 -693q-20 -103 -20 -155t34.5 -89.5t111.5 -37.5t155 57t139 165t92 253l107 500h167l-147 -693q-18 -92 -18 -148t30.5 -95t110.5 -39t203.5 93t189.5 407l100 475h168l-233 -1096h-139l22 203h-10q-163 -223 -352 -223
q-113 0 -174 65t-72 180h-8q-169 -245 -379 -245q-127 0 -196.5 68t-69.5 198z" />
    <glyph glyph-name="afii10091" unicode="&#x449;" horiz-adv-x="1823" 
d="M922 254q0 -58 30.5 -95.5t110.5 -37.5t203.5 93t189.5 407l100 475h168l-163 -774q-17 -80 -17 -124q0 -82 78 -83q26 0 45.5 5.5t32.5 8.5l-113 -508h-172l80 363q-63 16 -93 66t-30 151h-6q-153 -221 -354 -221q-113 0 -174 65t-72 180h-8q-169 -245 -379 -245
q-127 0 -196.5 68t-69.5 198q0 63 22 178l144 672h170l-148 -695q-20 -101 -20 -153t34.5 -89.5t111.5 -37.5t200.5 90.5t185.5 384.5l107 500h170l-150 -695q-18 -89 -18 -147z" />
    <glyph glyph-name="afii10092" unicode="&#x44a;" horiz-adv-x="1212" 
d="M475 311q0 -190 197 -190q114 0 180 58.5t66 150.5t-49 131t-159 39t-212 -21q-23 -106 -23 -168zM748 641q335 0 335 -304q0 -154 -111.5 -255.5t-295.5 -101.5q-368 0 -367 313q0 95 23 194l98 463h-346l31 146h516l-103 -480q125 25 220 25z" />
    <glyph glyph-name="afii10093" unicode="&#x44b;" horiz-adv-x="1477" 
d="M295 311q0 -190 197 -190q115 0 180 59t65 151t-49.5 130.5t-157.5 38.5t-213 -21q-22 -110 -22 -168zM567 641q336 0 336 -304q0 -154 -112 -255.5t-296 -101.5t-275 80.5t-91 232.5q0 95 23 194l129 609h170l-103 -480q125 25 219 25zM1180 0h-166l231 1096h168z" />
    <glyph glyph-name="afii10094" unicode="&#x44c;" horiz-adv-x="1063" 
d="M770 338q0 162 -217 162q-129 0 -236 -21q-22 -108 -22 -168q0 -190 211 -190q124 0 194 57.5t70 159.5zM590 641q344 0 344 -289q0 -109 -54.5 -194.5t-155 -131.5t-254.5 -46t-247.5 79.5t-93.5 237.5q0 91 23 190l129 609h170l-105 -480q135 25 244 25z" />
    <glyph glyph-name="afii10095" unicode="&#x44d;" horiz-adv-x="934" 
d="M664 666q0 309 -244 309q-118 0 -250 -57l-51 129q155 67 307 67q200 0 304 -113t104 -327t-103.5 -454t-454.5 -240q-71 0 -144.5 14.5t-113.5 34.5v151q144 -59 274 -59t227 97t128 271h-481l29 148h469v29z" />
    <glyph glyph-name="afii10096" unicode="&#x44e;" horiz-adv-x="1599" 
d="M1108 969q-100 0 -179.5 -71.5t-125 -205.5t-45.5 -280t59.5 -217.5t162.5 -71.5t181 74.5t121 208.5t43 279t-58.5 214.5t-158.5 69.5zM1499 688q0 -194 -69.5 -360.5t-187 -255t-283.5 -88.5t-269.5 114.5t-103.5 307.5q0 66 4 88h-258l-105 -494h-168l234 1096h166
l-97 -459h250q63 226 192.5 349.5t308.5 123.5t282.5 -114t103.5 -308z" />
    <glyph glyph-name="afii10097" unicode="&#x44f;" horiz-adv-x="1079" 
d="M569 948q-112 0 -172.5 -53t-60.5 -145q0 -168 215 -168h188l78 366h-248zM569 434q-84 0 -132.5 -35t-105.5 -155t-114 -188t-182 -68q-49 0 -78 12v133q21 -6 59 -6t72 31t78 121t86.5 140.5t112.5 78.5q-93 27 -143 91.5t-50 160.5q0 159 114.5 252.5t313.5 93.5h414
l-232 -1096h-166l93 434h-140z" />
    <glyph glyph-name="uni0450" unicode="&#x450;" horiz-adv-x="1010" 
d="M618 973q-90 0 -180 -94t-139 -261h12q227 0 349 60t122 172q0 53 -36 88q-38 35 -128 35zM518 121q125 0 299 84v-146q-94 -43 -166 -61t-159 -18q-184 0 -289 109t-105 299t74 364q74 172 198 268t274 96t227 -66t77 -186q0 -180 -166 -282t-475 -103h-33l-4 -80
q0 -131 62 -205t186 -73zM732 1241h-104q-60 61 -128 154t-96 153v21h181q43 -136 147 -303v-25z" />
    <glyph glyph-name="afii10071" unicode="&#x451;" horiz-adv-x="1010" 
d="M618 973q-90 0 -180 -94t-139 -261h12q227 0 349 60t122 172q0 53 -36 88q-38 35 -128 35zM518 121q125 0 299 84v-146q-94 -43 -166 -61t-159 -18q-184 0 -289 109t-105 299t74 364q74 172 198 268t274 96t227 -66t77 -186q0 -180 -166 -282t-475 -103h-33l-4 -80
q0 -131 62 -205t186 -73zM777 1381q0 43 28 77t75 33q77 0 77 -80q1 -49 -29 -83t-67 -34t-61 22t-23 65zM413 1381q0 43 28 77t74 33q78 0 78 -80q1 -49 -29 -83t-67 -34t-61 22t-23 65z" />
    <glyph glyph-name="afii10099" unicode="&#x452;" 
d="M782 1077q133 0 204 -73t71 -205q0 -62 -23 -166l-170 -795q-36 -171 -114 -250.5t-213 -79.5q-69 0 -123 21v143q59 -22 118 -22q124 0 166 207l170 796q21 99 21 135q0 148 -150 148q-88 0 -221.5 -94t-198.5 -406l-92 -436h-168l265 1241h-152l29 129h149l39 186h168
l-41 -186h350l-28 -129h-346q-54 -250 -95 -389h11q150 225 374 225z" />
    <glyph glyph-name="afii10100" unicode="&#x453;" horiz-adv-x="936" 
d="M225 268q0 -147 218 -147q120 0 298 84v-150q-159 -75 -329 -75t-264 73q-93 73 -93 201q-1 156 145 260q70 50 210 104t192 85q104 63 105 151q0 119 -154 119q-128 0 -305 -72l-45 135q206 78 360 78q155 0 235 -64t79 -178q0 -114 -76 -196q-77 -82 -251 -147
t-224 -97q-101 -64 -101 -164zM964 1569v-21q-38 -49 -140 -151t-177 -156h-105v27q56 60 126 152t106 149h190z" />
    <glyph glyph-name="afii10101" unicode="&#x454;" horiz-adv-x="922" 
d="M517 119q116 0 265 67v-143q-124 -63 -276 -63q-194 0 -301 107t-107 304t76 371t204.5 264t278.5 90t281 -51l-47 -141q-120 51 -232 51t-208 -88t-146 -250h471l-33 -148h-469q-4 -35 -4 -100q0 -123 65.5 -196.5t181.5 -73.5z" />
    <glyph glyph-name="afii10102" unicode="&#x455;" horiz-adv-x="877" 
d="M295 119q140 0 204 50q64 49 64 117t-35 107t-158 109t-177 141q-54 70 -54 166q0 139 101 223t269 84t327 -74l-54 -137l-56 25q-101 43 -207 43q-106 1 -159 -43t-53 -106q-1 -62 35 -103q36 -39 145 -101t155 -105q92 -86 93 -204q-1 -155 -111 -243t-295 -88t-321 69
v158q147 -88 287 -88z" />
    <glyph glyph-name="afii10103" unicode="&#x456;" horiz-adv-x="520" 
d="M340 1382q0 50 32 86t83 35q88 0 88 -90q1 -55 -33 -93t-76 -38t-68 24q-26 26 -26 76zM227 0h-168l234 1096h168z" />
    <glyph glyph-name="afii10104" unicode="&#x457;" horiz-adv-x="520" 
d="M227 0h-168l234 1096h168zM525 1381q0 43 28 77t75 33q77 0 77 -80q1 -49 -29 -83t-67 -34t-61 22t-23 65zM161 1381q0 43 28 77t74 33q78 0 78 -80q1 -49 -29 -83t-67 -34t-61 22t-23 65z" />
    <glyph glyph-name="afii10105" unicode="&#x458;" horiz-adv-x="520" 
d="M340 1382q0 50 32 86t83 35q86 0 86 -90q1 -55 -33 -93t-75 -38t-67 24q-26 26 -26 76zM-135 -492q-69 0 -123 21v141q61 -22 119 -22q125 0 168 205l264 1243h166l-266 -1258q-37 -170 -115 -250t-213 -80z" />
    <glyph glyph-name="afii10106" unicode="&#x459;" horiz-adv-x="1561" 
d="M1058 500q-110 0 -212 -21q-23 -106 -23 -168q0 -190 197 -190q114 0 180 58.5t66 150.5t-49 131t-159 39zM1096 641q336 0 336 -304q0 -154 -112 -255.5t-296 -101.5t-275.5 80t-91.5 233q0 84 23 194l96 467q-33 9 -78 9t-84.5 -35t-79.5 -120.5t-116 -308.5
t-133.5 -322.5t-127.5 -145t-145 -45.5t-106 14v145q30 -10 80 -10t96 38t89 123.5t97 242.5t92 257t114.5 204t275.5 104q111 0 221 -33l-97 -455q128 25 222 25z" />
    <glyph glyph-name="afii10107" unicode="&#x45a;" horiz-adv-x="1663" 
d="M1162 500q-108 0 -214 -21q-22 -114 -22 -170q0 -188 196 -188q114 0 180 59t66 151t-49 130.5t-157 38.5zM1198 641q336 0 336 -304q0 -154 -112 -255.5t-296 -101.5t-275 80.5t-91 232.5q0 96 24 201h-452l-105 -494h-170l236 1096h166l-97 -459h453l98 459h168
l-102 -480q123 25 219 25z" />
    <glyph glyph-name="afii10108" unicode="&#x45b;" 
d="M893 813q0 152 -148 152q-88 0 -173 -60q-182 -129 -248 -442l-97 -463h-168l265 1241h-152l29 129h149l39 186h168l-41 -186h350l-28 -129h-349l-88 -367h11q165 230 374 230q134 0 204 -74t71 -207q0 -58 -23 -166l-141 -657h-168l145 678q19 89 19 135z" />
    <glyph glyph-name="afii10109" unicode="&#x45c;" horiz-adv-x="977" 
d="M862 1096h213l-549 -541l375 -555h-203l-356 547l-115 -547h-168l232 1096h166l-113 -529zM1013 1569v-21q-38 -49 -140 -151t-177 -156h-105v27q55 60 125 152t107 149h190z" />
    <glyph glyph-name="uni045D" unicode="&#x45d;" 
d="M283 262q0 -143 147 -143q88 0 173 60q181 128 249 442l100 475h166l-231 -1096h-139l22 203h-12q-98 -125 -187 -174t-201 -49t-184 70q-73 70 -73 198q0 62 22 172l146 676h170l-150 -695q-18 -89 -18 -139zM789 1241h-104q-61 61 -129 154t-95 153v21h181
q43 -136 147 -303v-25z" />
    <glyph glyph-name="afii10110" unicode="&#x45e;" horiz-adv-x="946" 
d="M369 131h6q97 240 164 356l325 609h178l-696 -1282q-93 -172 -184 -239t-219 -67q-72 0 -140 21v135q63 -18 138 -18t133 50t114 150l76 136l-166 1114h168l74 -545q10 -69 20 -203t9 -217zM597 1241q-316 0 -316 242q0 32 10 69h146q-6 -34 -6 -59q0 -127 174 -127
q113 0 169 44t74 142h162q-57 -311 -413 -311z" />
    <glyph glyph-name="afii10193" unicode="&#x45f;" 
d="M283 262q0 -143 147 -143q88 0 221 94t201 408l100 475h166l-231 -1096h-139l22 203h-12q-98 -125 -187 -174t-201 -49t-184.5 69.5t-72.5 198.5q0 62 22 172l146 676h170l-150 -695q-18 -89 -18 -139zM532 -72h41l-92 -420h-170l82 375z" />
    <glyph glyph-name="uni0460" unicode="&#x460;" horiz-adv-x="1952" 
d="M332 494q0 -364 258 -363q109 0 173 69t95 210l53 245h174q-54 -256 -58.5 -290.5t-4.5 -59.5q0 -174 178 -174q146 0 256 123.5t181 344t71 398.5q0 330 -205 330q-54 0 -101 -21.5t-99 -52.5l-72 142q132 86 300 86t262.5 -120t94.5 -321t-58.5 -406t-197 -429.5
t-428.5 -224.5q-114 0 -192 46.5t-111 129.5q-49 -82 -137.5 -129t-204.5 -47q-200 0 -304.5 126.5t-104.5 373.5t133.5 624t492.5 377q175 0 279 -88l-82 -138q-108 72 -195 72q-124 0 -221.5 -114.5t-161 -325.5t-63.5 -393z" />
    <glyph glyph-name="uni0461" unicode="&#x461;" horiz-adv-x="1470" 
d="M236 0l-132 1096h170l70 -650l13 -144l12 -167l319 500l-57 461h166l67 -590q24 -192 33 -350q213 222 296.5 449.5t141.5 490.5h168q-75 -374 -210 -632.5t-355 -463.5h-170l-53 428h-4l-273 -428h-202z" />
    <glyph glyph-name="uni0462" unicode="&#x462;" horiz-adv-x="1268" 
d="M539 147q212 0 322 85t110 241q0 114 -71 163.5t-214 49.5h-147l-117 -539h117zM1147 481q0 -234 -164.5 -357.5t-474.5 -123.5h-287l238 1120h-309l34 156h308l61 280h172l-61 -280h370l-33 -156h-370l-62 -282h144q214 0 324 -90t110 -267z" />
    <glyph glyph-name="uni0463" unicode="&#x463;" horiz-adv-x="1130" 
d="M612 500q-116 0 -227 -21q-23 -115 -23 -168q0 -99 53 -144.5t167 -45.5t185 58t71 152t-55 131.5t-171 37.5zM657 641q344 0 344 -289q0 -169 -120.5 -270.5t-306.5 -101.5q-376 0 -377 317q0 85 22 190l98 463h-225l31 146h225l47 223h168l-45 -223h287l-31 -146h-287
l-73 -334q130 25 243 25z" />
    <glyph glyph-name="uni0464" unicode="&#x464;" horiz-adv-x="1763" 
d="M717 537q0 90 8 151h-324l-145 -688h-170l309 1462h170l-131 -622h322q53 195 217 419t534 224q195 0 351 -80l-72 -141q-135 69 -279 69q-201 0 -351 -130t-216 -361h623l-31 -152h-625q-10 -62 -10 -147q0 -191 96.5 -300.5t270.5 -109.5q138 0 321 57v-149
q-164 -59 -352 -59q-246 0 -381 146t-135 411z" />
    <glyph glyph-name="uni0465" unicode="&#x465;" horiz-adv-x="1407" 
d="M989 -20q-195 0 -300 106.5t-105 302.5q0 52 6 105h-258l-105 -494h-168l234 1096h166l-97 -459h254q59 226 201 352.5t336 126.5q135 0 268 -51l-47 -141q-120 51 -232 51t-208 -89t-146 -251h472l-33 -146h-467q-6 -54 -6 -77v-23q0 -124 67 -197t185 -73q78 0 139 20
t121 47v-143q-126 -63 -277 -63z" />
    <glyph glyph-name="uni0466" unicode="&#x466;" horiz-adv-x="1231" 
d="M831 842l-24 155q-25 156 -29 260q-43 -99 -227 -415h280zM594 0h-158l148 688h-123l-400 -688h-178l858 1460h144l252 -1460h-170l-111 688h-119z" />
    <glyph glyph-name="uni0467" unicode="&#x467;" horiz-adv-x="1083" 
d="M682 633q-28 157 -49 336q-74 -139 -189 -336h238zM762 1096l188 -1096h-168l-80 498h-92l-102 -498h-158l111 498h-92l-289 -498h-172l641 1096h213z" />
    <glyph glyph-name="uni0468" unicode="&#x468;" horiz-adv-x="1722" 
d="M1319 842l-23 151q-22 149 -26 269q-32 -73 -67 -140.5t-163 -279.5h279zM1083 0h-157l149 688h-125l-397 -688h-180l405 688h-377l-143 -688h-172l309 1462h172l-133 -622h432l365 620h145l250 -1460h-170l-110 688h-119z" />
    <glyph glyph-name="uni0469" unicode="&#x469;" horiz-adv-x="1477" 
d="M1077 633l-49 336l-188 -336h237zM1153 1096l188 -1096h-167l-76 494h-94l-103 -494h-158l109 494h-92l-287 -494h-174l289 494h-252l-105 -494h-172l234 1096h170l-96 -459h307l268 459h211z" />
    <glyph glyph-name="uni046A" unicode="&#x46a;" horiz-adv-x="1352" 
d="M739 860l422 451h-649zM821 707h-18l-152 -707h-170l150 707h-15q-136 0 -194.5 -71.5t-112.5 -184.5l-215 -451h-176l209 444q80 170 166.5 274t286.5 113l-254 492l28 139h1049l-31 -139l-471 -489q196 -13 242 -120.5t53 -256.5l25 -457h-172l-25 457q-9 146 -55 198
t-148 52z" />
    <glyph glyph-name="uni046B" unicode="&#x46b;" horiz-adv-x="1235" 
d="M621 643l311 305h-504zM513 530q-91 0 -148 -38.5t-117 -151.5l-180 -340h-179l195 362q56 106 131 183t250 96l-225 350l20 105h928l-23 -105l-372 -350q152 -23 195 -105t59 -194l49 -342h-168l-47 340q-15 108 -58.5 150t-142.5 42l-113 -532h-155l110 530h-9z" />
    <glyph glyph-name="uni046C" unicode="&#x46c;" horiz-adv-x="1874" 
d="M1251 860l422 451h-649zM1340 707h-25l-152 -707h-170l150 707h-15q-109 0 -171.5 -51t-135.5 -203l-215 -453h-176l213 453q81 171 145 235h-387l-145 -688h-170l309 1462h170l-131 -622h653l-249 483l28 139h1049l-31 -139l-471 -489q196 -13 242 -120.5t53 -256.5
l25 -457h-170l-23 457q-6 137 -52 193.5t-148 56.5z" />
    <glyph glyph-name="uni046D" unicode="&#x46d;" horiz-adv-x="1640" 
d="M1038 643l312 305h-504zM928 530q-92 0 -146 -38.5t-116 -153.5l-181 -338h-178l197 365q46 87 98 129h-266l-105 -494h-172l234 1096h170l-96 -459h518l-228 354l19 105h930l-23 -105l-373 -350q119 -18 176.5 -82t77.5 -217l49 -342h-167l-48 342q-15 112 -59.5 151
t-140.5 39l-113 -532h-156l109 530h-10z" />
    <glyph glyph-name="uni046E" unicode="&#x46e;" horiz-adv-x="1090" 
d="M-72 -178q0 130 94 200t300 92t337.5 78t131.5 244q0 248 -322 248h-215l29 141h200q187 0 295.5 82t108.5 230q0 106 -62.5 155t-167.5 49q-168 0 -352 -118l-72 123q174 114 367 133q-39 75 -113 179l-36 52v27h120q84 -91 150 -183q80 99 130 143t124 44q38 0 80 -15
v-112q-37 8 -66 8t-59 -24.5t-109 -131.5q112 -22 177 -102.5t65 -219.5t-100.5 -246t-272.5 -142v-6q129 -19 206 -102t77 -220q0 -205 -145.5 -319t-450.5 -140q-159 -14 -217 -39.5t-58 -83.5q0 -84 131 -84l351 13q83 0 196 -31v-166q-105 37 -215 37l-168 -4l-192 -4
q-129 0 -203 59t-74 156z" />
    <glyph glyph-name="uni046F" unicode="&#x46f;" horiz-adv-x="915" 
d="M672 1100q188 -54 188 -249q0 -100 -65.5 -174t-192.5 -102v-4q87 -21 136.5 -81t49.5 -156t-50 -165.5t-148 -114t-266 -70.5t-215.5 -53.5t-47.5 -71.5q0 -76 117 -76l318 10q115 0 186 -37v-143q-92 39 -188 39l-322 -8q-125 0 -195.5 53t-70.5 137t34.5 131
t90.5 74.5t125.5 42t181.5 36.5t201.5 64t89.5 160q0 154 -209 154h-148l31 145h98q291 0 291 195q0 137 -174 137q-116 0 -276 -70l-54 129q135 62 254 78q-48 89 -143 215v27h121q65 -72 145 -178q90 116 142.5 151t102.5 35t89 -14v-113q-37 8 -67 8t-63.5 -25.5
t-96.5 -115.5z" />
    <glyph glyph-name="uni0470" unicode="&#x470;" horiz-adv-x="1505" 
d="M866 449h-39l-94 -449h-176l94 449h-14q-210 1 -324 105t-114 298q0 93 24 207l84 403h178l-88 -422q-24 -111 -24 -182q-1 -134 71 -199t222 -65h16l184 868h176l-184 -868h14q186 0 296 91t153 294l102 483h181l-105 -497q-53 -265 -211 -391t-422 -125z" />
    <glyph glyph-name="uni0471" unicode="&#x471;" horiz-adv-x="1462" 
d="M1210 1096h172q0 -392 -74 -626t-226 -352t-390 -132l-100 -478h-166l102 478q-186 18 -286 116t-99 273q0 92 27 213l106 508h168l-106 -512q-25 -117 -25 -189q0 -129 61 -195t183 -77l303 1431h166l-303 -1427q339 34 437 427q50 201 50 542z" />
    <glyph glyph-name="uni0472" unicode="&#x472;" horiz-adv-x="1475" 
d="M865 1333q-176 0 -314 -138t-191 -376h865q4 44 4 92q0 199 -94 310.5t-270 111.5zM705 131q177 0 312.5 143.5t188.5 395.5h-868q-6 -35 -6 -117q0 -199 98 -310.5t275 -111.5zM1411 908q0 -270 -88 -482.5t-252 -329t-379 -116.5q-256 0 -399 149.5t-143 416.5t96 485
t263.5 336t394.5 118t367 -153.5t140 -423.5z" />
    <glyph glyph-name="uni0473" unicode="&#x473;" horiz-adv-x="1149" 
d="M645 969q-117 0 -208.5 -88.5t-133.5 -243.5h574l2 74q0 123 -58.5 190.5t-175.5 67.5zM516 123q120 0 212 100t128 269h-580q-6 -30 -6 -95q0 -131 63 -202.5t183 -71.5zM1051 702q0 -190 -72 -360.5t-194 -264t-275 -93.5q-194 0 -303 114t-109 306t73 359.5t197 257
t275 89.5q191 0 299.5 -109t108.5 -299z" />
    <glyph glyph-name="uni0474" unicode="&#x474;" horiz-adv-x="1145" 
d="M1246 1475q64 0 134 -15v-137q-42 16 -91 16t-80 -21.5t-62 -68.5t-96 -180l-516 -1069h-185l-162 1462h170l97 -936q20 -184 20 -331l4 2q41 127 139 338l261 550q96 204 144 269t103.5 93t119.5 28z" />
    <glyph glyph-name="uni0475" unicode="&#x475;" horiz-adv-x="901" 
d="M964 1102q56 0 93 -8v-121q-39 6 -73 6t-65 -29.5t-79 -126.5l-387 -823h-230l-127 1096h170l64 -609q17 -203 20 -266l4 -100h6q70 177 156 366l158 340q61 132 99.5 181.5t86.5 71.5t104 22z" />
    <glyph glyph-name="uni0476" unicode="&#x476;" horiz-adv-x="1145" 
d="M1246 1475q64 0 134 -15v-137q-42 16 -91 16q-49 1 -80 -21t-62 -69t-96 -180l-516 -1069h-185l-162 1462h170l97 -936q20 -184 20 -331l4 2q41 127 139 338l261 550q96 204 144 269t104 93q55 28 119 28zM985 1579h-111q-59 59 -125 151t-98 156v21h187
q44 -145 147 -303v-25zM635 1579h-109q-59 59 -125 151t-98 156v21h186q40 -134 146 -303v-25z" />
    <glyph glyph-name="uni0477" unicode="&#x477;" horiz-adv-x="901" 
d="M964 1102q56 0 93 -8v-121q-39 6 -73 6q-34 1 -66 -29q-30 -30 -78 -127l-387 -823h-230l-127 1096h170l64 -609q17 -203 20 -266l4 -100h6q70 177 156 366l158 340q62 131 100 181t86 72t104 22zM813 1241h-111q-59 59 -125 151t-98 156v21h187q44 -145 147 -303v-25z
M463 1241h-109q-59 59 -125 151t-98 156v21h186q40 -134 146 -303v-25z" />
    <glyph glyph-name="uni0478" unicode="&#x478;" horiz-adv-x="2425" 
d="M879 1333q-162 0 -286 -101q-125 -101 -193 -281q-68 -181 -68 -389t98 -320t258 -111q160 -1 280 97t191 280q70 182 70 392t-94 322t-256 111zM1411 908q0 -270 -88 -482t-252 -330q-164 -116 -379 -116q-256 0 -399 150t-143 416q0 267 96 485t264 336t394 118
q227 0 367 -154q140 -153 140 -423zM1848 131h6q97 240 164 356l325 609h178l-696 -1282q-93 -172 -184 -239t-219 -67q-72 0 -140 21v135q63 -18 138 -18q76 0 134 50t113 150l76 136l-166 1114h168l74 -545q9 -69 19 -203t10 -217z" />
    <glyph glyph-name="uni0479" unicode="&#x479;" horiz-adv-x="2056" 
d="M879 711q-1 115 -63 187t-170 71q-108 0 -194 -74q-86 -73 -134 -205t-48 -278t64 -218t174 -71q112 0 195 73q83 74 129 208t47 307zM643 1110q190 0 300 -112t110 -306q0 -192 -72 -359t-195 -258q-122 -91 -296 -91t-283 113t-109 306t73 361t197 256q124 90 275 90z
M1479 131h6q97 240 164 356l325 609h178l-696 -1282q-93 -172 -184 -239t-219 -67q-72 0 -140 21v135q63 -18 138 -18t133 50t114 150l76 136l-166 1114h168l74 -545q10 -69 20 -203t9 -217z" />
    <glyph glyph-name="uni047A" unicode="&#x47a;" horiz-adv-x="1513" 
d="M890 1225q-103 0 -120 92q-128 -33 -228 -138t-155 -265.5t-55 -332.5q0 -345 233 -425q48 80 142 80q49 0 81.5 -24.5t40.5 -68.5q196 48 317.5 255.5t121.5 496.5q0 318 -230 412q-45 -82 -148 -82zM1450 884q0 -238 -79.5 -436t-227.5 -318.5t-344 -143.5
q-22 -62 -59.5 -86.5t-93.5 -24.5t-87 37.5t-33 91.5q-178 43 -277 189.5t-99 376.5t81.5 429.5t231 324.5t338.5 153q39 108 151 108q59 0 90 -33.5t33 -89.5q375 -102 375 -578z" />
    <glyph glyph-name="uni047B" unicode="&#x47b;" horiz-adv-x="1184" 
d="M547 207q73 0 102 -62q118 45 189 192.5t71 359.5t-141 257q-40 -65 -121 -65q-35 0 -62 17t-36 46q-78 -26 -142 -102.5t-100.5 -191t-36.5 -236.5q0 -246 158 -285q46 70 119 70zM1083 684q0 -166 -53 -312.5t-152 -245t-231 -130.5q-33 -107 -139 -107q-50 0 -78 29.5
t-31 79.5q-145 25 -223 137.5t-78 277.5t56 313t158.5 247t234.5 129q18 59 52.5 81.5t86.5 22.5t80.5 -29.5t30.5 -80.5q140 -34 213 -140t73 -272z" />
    <glyph glyph-name="uni047C" unicode="&#x47c;" horiz-adv-x="1952" 
d="M332 485q0 -354 252 -354q83 0 167 35t142 92q53 -60 130.5 -93.5t156.5 -33.5q163 0 273 120.5t182.5 343t72.5 401.5q0 331 -205 331q-54 0 -101 -21.5t-99 -52.5l-72 142q132 86 300 86t262.5 -120t94.5 -323t-60.5 -411.5t-157.5 -360.5t-215.5 -219t-274.5 -67
t-301 88q-176 -88 -332 -88q-192 0 -294.5 128t-102.5 374t133.5 622.5t492.5 376.5q175 0 279 -88l-82 -138q-108 72 -195 72q-124 0 -221.5 -114.5t-161 -325t-63.5 -402.5zM1329 1772q0 -152 -248 -220l17 74q114 44 114 90q0 25 -34 38t-49 28.5t-15 40.5q0 71 92 71
q57 0 90 -33.5t33 -88.5zM1599 1864q-113 0 -205 39t-139 57t-104 18q-100 0 -127 -114h-131q50 235 274 235q61 0 114.5 -18t106.5 -39t108 -39t120 -18h22l-24 -121h-15z" />
    <glyph glyph-name="uni047D" unicode="&#x47d;" horiz-adv-x="1554" 
d="M1059 1456q0 -64 -61.5 -120.5t-188.5 -90.5l18 74q115 46 115 92q0 26 -38 40t-50 29t-12 43t24.5 47t75.5 19t84 -34.5t33 -98.5zM887 1792q62 0 115.5 -17.5t148.5 -56.5t184 -39h25l-27 -120h-14q-123 0 -249 57t-200 57q-99 0 -127 -114h-131q50 233 275 233z
M270 389q0 -260 215 -260q105 0 228 80q97 -80 209 -80t190.5 74t125 220t46.5 329q0 211 -137 211q-73 0 -166 -45l-41 137q40 23 104.5 41t126.5 18q138 0 211.5 -92t73.5 -299t-99 -475t-431 -268q-131 0 -230 59q-101 -59 -235 -59q-173 0 -268 107t-95 307t64 372
t173.5 260t252.5 88q102 0 203 -59l-64 -140q-78 48 -156 48t-147 -69t-111.5 -207.5t-42.5 -297.5z" />
    <glyph glyph-name="uni047E" unicode="&#x47e;" horiz-adv-x="1952" 
d="M332 494q0 -364 258 -363q109 0 173 69t95 210l53 245h174q-54 -256 -58.5 -290.5t-4.5 -59.5q0 -174 178 -174q146 0 256 123.5t181 344t71 398.5q0 330 -205 330q-54 0 -101 -21.5t-99 -52.5l-72 142q132 86 300 86t262.5 -120t94.5 -321t-58.5 -406t-197 -429.5
t-428.5 -224.5q-114 0 -192 46.5t-111 129.5q-49 -82 -137.5 -129t-204.5 -47q-200 0 -304.5 126.5t-104.5 373.5t133.5 624t492.5 377q175 0 279 -88l-82 -138q-108 72 -195 72q-124 0 -221.5 -114.5t-161 -325.5t-63.5 -393zM1614 1788l-4 -19l-119 -172h-31l-26 103h-191
l-72 -103h-30l-27 103h-190l-74 -103h-29l-45 172l6 19h832z" />
    <glyph glyph-name="uni047F" unicode="&#x47f;" horiz-adv-x="1470" 
d="M236 0l-132 1096h170l70 -650l13 -144l12 -167l319 500l-57 461h166l67 -590q24 -192 33 -350q213 222 296.5 449.5t141.5 490.5h168q-75 -374 -210 -632.5t-355 -463.5h-170l-53 428h-4l-273 -428h-202zM1247 1444v-10l-2 -11l-119 -172h-30l-27 103h-190l-72 -103h-31
l-26 103h-193l-72 -103h-30l-43 172l4 21h831z" />
    <glyph glyph-name="uni0480" unicode="&#x480;" horiz-adv-x="1198" 
d="M150 544q0 254 105.5 478.5t283.5 342.5t389 118t362 -80l-69 -141q-137 69 -295 69t-295.5 -97t-218 -284.5t-80.5 -393.5t99.5 -314.5t264.5 -108.5q77 0 144 29l-140 -654h-174l103 474q-224 12 -351.5 160t-127.5 402z" />
    <glyph glyph-name="uni0481" unicode="&#x481;" horiz-adv-x="922" 
d="M98 386q0 196 75 371.5t203 267t280 91.5t282 -51l-47 -141q-120 51 -226 51t-198 -77.5t-144.5 -216t-52.5 -283.5t65.5 -207t176.5 -62t199 47l-142 -668h-168l101 472q-192 0 -298 105t-106 301z" />
    <glyph glyph-name="uni0482" unicode="&#x482;" horiz-adv-x="1247" 
d="M600 432l285 -166l-72 -123l-285 164l-180 -313l-129 74l180 315l-282 164l69 123l287 -164l199 346l-285 164l72 125l284 -164l183 313l127 -73l-183 -316l287 -164l-74 -123l-282 164z" />
    <glyph glyph-name="uni0483" unicode="&#x483;" horiz-adv-x="1147" 
d="M1102 1389q0 -121 -139 -125h-433q-17 -95 -106 -95q-40 0 -62 24.5t-22 55.5q0 119 137 119h432q17 94 105 94t88 -73z" />
    <glyph glyph-name="uni0484" unicode="&#x484;" horiz-adv-x="1188" 
d="M1001 1300q0 70 -94 70q-43 0 -99 -18.5t-179.5 -58.5t-241.5 -40h-12l24 121h9q115 0 226 39.5t168.5 57.5t138.5 18t134 -47.5t53 -126.5q0 -29 -6 -60h-123l2 24v21z" />
    <glyph glyph-name="uni0485" unicode="&#x485;" horiz-adv-x="1188" 
d="M637 1464q0 57 32.5 88t84.5 31q96 0 96 -74q0 -29 -18 -41t-36 -19t-30 -15t-12 -25q0 -48 120 -94v-74q-237 67 -237 223z" />
    <glyph glyph-name="uni0486" unicode="&#x486;" horiz-adv-x="1188" 
d="M893 1452q0 -64 -57.5 -120.5t-171.5 -90.5v74q112 44 112 90q0 27 -38 40t-50 28.5t-12 37.5q0 72 94 72q57 0 90 -33.5t33 -97.5z" />
    <glyph glyph-name="uni0488" unicode="&#x488;" horiz-adv-x="2025" 
d="M245 547q-73 0 -98 -19.5t-30 -68.5h-76q5 90 55 142t148 52t155.5 -51t63.5 -143h-80q-5 45 -35 66.5t-103 21.5zM1767 547q-73 0 -98.5 -20t-30.5 -68h-75q11 194 209 194q92 0 149.5 -52t63.5 -142h-80q-5 44 -35 66t-103 22zM423 1034q-73 0 -98 -19.5t-30 -68.5h-76
q5 90 55 142.5t148 52.5t155.5 -51t63.5 -144h-80q-5 45 -35 66.5t-103 21.5zM1576 1034q-73 0 -98 -19.5t-30 -68.5h-76q5 90 55.5 142.5t148.5 52.5t155 -51t63 -144h-80q-5 45 -35 66.5t-103 21.5zM423 47q-73 0 -98 -19.5t-30 -68.5h-76q5 90 55 142.5t148 52.5
t155.5 -51t63.5 -144h-80q-5 45 -35 66.5t-103 21.5zM1576 47q-73 0 -98 -19.5t-30 -68.5h-76q5 90 55.5 142.5t148.5 52.5t155 -51t63 -144h-80q-5 45 -35 66.5t-103 21.5zM996 -231q-74 0 -98.5 -20.5t-29.5 -67.5h-75q5 89 55 141.5t148 52.5t155 -51t63 -143h-79
q-5 44 -35 66t-104 22zM996 1319q-74 0 -98.5 -20.5t-29.5 -67.5h-75q11 194 208 194q93 0 149.5 -50.5t63.5 -143.5h-79q-5 44 -35 66t-104 22z" />
    <glyph glyph-name="uni0489" unicode="&#x489;" horiz-adv-x="1958" 
d="M377 442q-152 39 -336 123v97q221 -53 350 -70v-139zM1651 1186l69 -68q-177 -110 -297 -198l-98 98l2 16q149 87 324 152zM492 877l-17 2q-82 140 -151 323l67 70q123 -198 199 -297zM633 45l-2 -16q-155 -89 -324 -152l-69 68q177 110 297 198zM1565 -211
q-101 163 -199 297l98 98l17 -2q93 -164 151 -323zM870 1155q48 178 123 336h97q-52 -220 -70 -350h-139zM1581 662q178 -48 336 -123v-97q-221 53 -350 70v139zM1090 -49q-39 -152 -123 -336h-97q53 221 70 350h139z" />
    <glyph glyph-name="uni048A" unicode="&#x48a;" horiz-adv-x="1440" 
d="M905 1579q-155 0 -235 61.5t-80 180.5q0 32 10 69h145q-6 -34 -6 -59q0 -127 174 -127q113 0 170 45.5t74 140.5h162q-57 -311 -414 -311zM395 1462h164l-174 -817l-90 -395h4l940 1212h199l-277 -1308h172l-250 -535h-200l239 381h-155l174 825q60 289 94 410h-4
l-946 -1235h-199z" />
    <glyph glyph-name="uni048B" unicode="&#x48b;" horiz-adv-x="1186" 
d="M721 1241q-155 0 -235 61.5t-80 180.5q0 32 10 69h145q-6 -34 -6 -59q0 -127 174 -127q113 0 170 45.5t74 140.5h162q-57 -311 -414 -311zM283 262q0 -143 147 -143q88 0 221 94t201 408l100 475h166l-200 -951h163l-227 -524h-168l199 379h-137l22 203h-12
q-93 -122 -182.5 -172.5t-203.5 -50.5t-186.5 69.5t-72.5 198.5q0 62 22 172l146 676h170l-150 -695q-18 -90 -18 -139z" />
    <glyph glyph-name="uni048C" unicode="&#x48c;" horiz-adv-x="1133" 
d="M403 147q211 0 322 84.5t111 241.5q0 114 -71.5 163.5t-213.5 49.5h-148l-116 -539h116zM575 838q435 0 435 -357q0 -233 -163.5 -357t-473.5 -124h-287l238 1128h-154l33 152h153l41 182h168l-39 -182h303l-32 -152h-303l-60 -290h141z" />
    <glyph glyph-name="uni048D" unicode="&#x48d;" horiz-adv-x="1063" 
d="M542 500q-116 0 -227 -21q-22 -110 -22 -168q0 -99 51.5 -144.5t167.5 -45.5t186 58.5t70 152.5t-55 131t-171 37zM588 641q344 0 344 -289q0 -170 -121.5 -271t-321.5 -101q-358 0 -362 317q0 91 23 190l147 693h-150l29 131h148l53 245h168l-53 -245h264l-29 -131h-262
l-121 -564q132 25 244 25z" />
    <glyph glyph-name="uni048E" unicode="&#x48e;" horiz-adv-x="1159" 
d="M543 721q96 0 162 14l-68 148l127 61l74 -158q145 92 145 293q0 125 -69.5 180.5t-215.5 55.5h-163l-125 -594h133zM725 1462q434 0 434 -377q0 -311 -256 -436l74 -155l-129 -64l-82 170q-117 -25 -252 -25h-135l-123 -575h-170l309 1462h330z" />
    <glyph glyph-name="uni048F" unicode="&#x48f;" 
d="M731 975q-96 0 -195.5 -95t-158 -239t-58.5 -274q0 -248 218 -248q28 0 57 6l-74 164l127 59l72 -151q87 83 138.5 233t51.5 318q0 227 -178 227zM545 -20q-98 0 -172 51t-113 139h-10q-9 -86 -13.5 -114.5t-113.5 -547.5h-166l336 1588h139l-26 -209h8q179 227 372 227
q137 0 216 -97.5t79 -296.5t-78 -386t-217 -283l74 -153l-129 -64l-76 160q-61 -14 -110 -14z" />
    <glyph glyph-name="afii10050" unicode="&#x490;" horiz-adv-x="975" 
d="M961 1462l63 299h164l-98 -454h-555l-277 -1307h-172l311 1462h564z" />
    <glyph glyph-name="afii10098" unicode="&#x491;" horiz-adv-x="784" 
d="M834 971h-402l-205 -971h-168l234 1096h395l70 319h172z" />
    <glyph glyph-name="uni0492" unicode="&#x492;" horiz-adv-x="965" 
d="M1122 1462l-32 -155h-555l-109 -508h326l-33 -150h-326l-135 -649h-172l137 649h-145l31 150h145l141 663h727z" />
    <glyph glyph-name="uni0493" unicode="&#x493;" horiz-adv-x="784" 
d="M59 0l105 489h-152l27 125h151l103 482h569l-31 -144h-401l-74 -338h271l-27 -125h-268l-105 -489h-168z" />
    <glyph glyph-name="uni0494" unicode="&#x494;" horiz-adv-x="1235" 
d="M522 655q-92 0 -129 -8l-135 -647h-172l309 1462h735l-30 -153h-565l-113 -521q63 13 137 13q236 0 371 -142.5t135 -384.5t-82.5 -419t-232.5 -272t-322 -95t-285 47v156q125 -53 257 -53t244.5 76t176.5 223t64 331t-95 285.5t-268 101.5z" />
    <glyph glyph-name="uni0495" unicode="&#x495;" horiz-adv-x="1006" 
d="M324 -354q166 0 268 150t102 390q0 143 -63.5 223t-177.5 80q-75 0 -127 -18l-99 -471h-168l234 1096h579l-30 -144h-412l-70 -334q83 19 134 19q108 0 193.5 -55t132 -156.5t46.5 -269.5t-63.5 -326t-184.5 -245t-284 -87q-114 0 -205 51v158q100 -61 195 -61z" />
    <glyph glyph-name="uni0496" unicode="&#x496;" horiz-adv-x="1683" 
d="M584 768l-365 694h187l360 -698l147 698h166l-147 -698l637 698h207l-674 -735l293 -571h184l-115 -537h-161l79 381h-96l-362 731l-154 -731h-166l154 731l-649 -731h-209z" />
    <glyph glyph-name="uni0497" unicode="&#x497;" horiz-adv-x="1716" 
d="M1262 403q0 -284 198 -284q78 0 144 22l-111 -518h-164l74 359q-159 11 -236 120.5t-77 298.5q0 56 4 88h-170l-103 -489h-151l104 489h-162q-68 -314 -229.5 -411.5t-294.5 -97.5q-67 0 -123 16l25 139q53 -16 100 -16q105 0 190.5 77t135 213t49.5 278t-52 215t-151 73
q-49 0 -112 -14v137q87 18 137 18q170 0 260 -107.5t90 -314.5l-4 -76h168l100 478h154l-105 -478h164q30 147 144 322.5t368 175.5q79 0 141 -18l-30 -137q-54 14 -109 14q-104 0 -186 -75t-131 -212.5t-49 -284.5z" />
    <glyph glyph-name="uni0498" unicode="&#x498;" horiz-adv-x="1090" 
d="M546 -213q0 -105 -65 -166t-188 -61q-65 0 -109 14l22 107q36 -9 88 -9t85 36q32 36 32 117q0 80 -32 155q-221 1 -385 79v166q78 -45 186 -75t219 -29q185 -1 289 85t103 230q0 248 -322 248h-215l29 141h200q187 0 295 83t109 229q-1 106 -63 155t-167 49
q-168 0 -352 -118l-72 123q113 74 221 106t258 31t250 -87t101 -238q-1 -152 -101 -260q-100 -107 -272 -142v-6q129 -19 206 -102q77 -82 77 -216q1 -134 -71 -237q-124 -179 -407 -209q51 -94 51 -199z" />
    <glyph glyph-name="uni0499" unicode="&#x499;" horiz-adv-x="893" 
d="M670 836q0 137 -192 137q-106 0 -259 -70l-53 129q178 84 342 84t247 -68t83 -182q0 -234 -258 -291v-4q186 -49 186 -235q0 -164 -124 -260q-91 -71 -231 -89q51 -94 51 -200q0 -105 -65 -166t-188 -61q-65 0 -109 14l22 107q36 -9 88 -9t85 36q32 36 32 117
q0 80 -32 155q-174 2 -299 69v158q145 -88 326 -88q128 1 206 57t78 150t-51 132t-158 38h-149l33 145h98q291 0 291 195z" />
    <glyph glyph-name="uni049A" unicode="&#x49a;" horiz-adv-x="1229" 
d="M961 156h159l-112 -535h-162l82 379h-60l-460 725l-152 -725h-172l309 1462h172l-151 -712l704 712h209l-735 -731z" />
    <glyph glyph-name="uni049B" unicode="&#x49b;" horiz-adv-x="1067" 
d="M862 1096h197l-549 -539l283 -416h176l-113 -520h-160l80 379h-78l-356 547l-115 -547h-168l232 1096h166l-111 -521z" />
    <glyph glyph-name="uni049C" unicode="&#x49c;" horiz-adv-x="1145" 
d="M1036 0h-186l-244 512l-43 -205h-137l80 377l-125 -96l-125 -588h-172l309 1462h172l-151 -712l135 135l69 319h136l-31 -141l391 399h211l-666 -674z" />
    <glyph glyph-name="uni049D" unicode="&#x49d;" horiz-adv-x="973" 
d="M219 0h-166l230 1094h168l-111 -521l123 117l69 324h130l-37 -172l266 252h196l-528 -482l-22 -108l348 -504h-191l-188 287l-41 -197h-129l74 344l-76 115z" />
    <glyph glyph-name="uni049E" unicode="&#x49e;" horiz-adv-x="1141" 
d="M1034 0h-186l-293 721l-174 -129l-125 -592h-170l236 1126h-148l33 152h147l41 184h170l-39 -184h191l-33 -152h-190l-80 -374l700 710h207l-637 -635z" />
    <glyph glyph-name="uni049F" unicode="&#x49f;" horiz-adv-x="979" 
d="M199 1372h149l41 184h168l-41 -184h258l-29 -131h-258l-61 -295q-52 -226 -100 -387h4l526 537h201l-469 -467l295 -629h-187l-235 524l-152 -123l-82 -401h-170l265 1241h-152z" />
    <glyph glyph-name="uni04A0" unicode="&#x4a0;" horiz-adv-x="1294" 
d="M1214 0h-196l-461 725l-151 -725h-170l276 1311h-326l33 151h496l-152 -712l705 712h211l-738 -731z" />
    <glyph glyph-name="uni04A1" unicode="&#x4a1;" horiz-adv-x="1147" 
d="M1030 1096h197l-551 -539l383 -557h-193l-358 547l-115 -547h-166l199 950h-348l31 146h516l-111 -521z" />
    <glyph glyph-name="uni04A2" unicode="&#x4a2;" horiz-adv-x="1386" 
d="M1118 156h160l-113 -537h-161l79 381h-165l143 688h-660l-145 -688h-170l309 1462h170l-131 -622h660l133 622h168z" />
    <glyph glyph-name="uni04A3" unicode="&#x4a3;" horiz-adv-x="1227" 
d="M459 1096l-97 -459h535l98 459h168l-202 -955h145l-113 -520h-172l80 379h-139l104 494h-534l-105 -494h-168l234 1096h166z" />
    <glyph glyph-name="uni04A4" unicode="&#x4a4;" horiz-adv-x="1546" 
d="M1364 1311l-279 -1311h-167l143 688h-660l-145 -688h-170l309 1462h170l-131 -622h660l133 622h499l-30 -151h-332z" />
    <glyph glyph-name="uni04A5" unicode="&#x4a5;" horiz-adv-x="1409" 
d="M459 1096l-97 -459h535l98 459h516l-30 -146h-348l-201 -950h-170l104 494h-534l-105 -494h-168l234 1096h166z" />
    <glyph glyph-name="uni04A6" unicode="&#x4a6;" horiz-adv-x="2040" 
d="M1364 801q238 0 372 -142.5t134 -384.5t-82.5 -418.5t-232.5 -272t-322 -95.5t-285 47v156q125 -53 257 -53t244.5 76t176.5 223t64 331t-95 285.5t-268 101.5q-92 0 -129 -8l-135 -647h-174l276 1311h-633l-276 -1311h-170l309 1462h977l-145 -674q63 13 137 13z" />
    <glyph glyph-name="uni04A7" unicode="&#x4a7;" horiz-adv-x="1675" 
d="M1161 637q109 0 241 -83.5t132 -363.5q0 -203 -64 -361t-184.5 -244.5t-284.5 -86.5q-113 0 -202 51v158q42 -25 86 -43t106 -18q109 0 194 67.5t131 192.5t46 274t-63.5 229t-176.5 80q-80 0 -133 -20l-98 -469h-170l203 950h-496l-201 -950h-168l234 1096h829
l-102 -478q83 19 141 19z" />
    <glyph glyph-name="uni04A8" unicode="&#x4a8;" horiz-adv-x="1475" 
d="M1219 840q0 208 -117 207q-63 0 -121 -78t-92.5 -208.5t-34.5 -294.5t68 -271q137 91 217 264t80 381zM1126 1192q276 0 275 -399q0 -207 -95 -399t-259 -296q45 -22 111 -22t140 26v-159q-64 -27 -151 -27q-165 0 -266 92q-94 -28 -199 -28q-251 0 -391.5 152
t-140.5 422t95.5 482.5t266.5 330.5t383 118q121 0 246 -47l-58 -148q-93 41 -190 41q-159 0 -289 -94t-201 -266t-71 -391t95 -334t263 -115q42 0 70 4q-86 151 -86 349t58.5 364t159 255t234.5 89z" />
    <glyph glyph-name="uni04A9" unicode="&#x4a9;" horiz-adv-x="1227" 
d="M920 -57q-129 0 -228 69q-92 -32 -188 -32q-190 0 -298 121t-108 323t71 362.5t194.5 245t283.5 84.5q99 0 180 -24l-34 -142q-65 25 -161 25t-181 -65.5t-133 -195.5t-48 -282t66 -232.5t186 -80.5q38 0 70 6q-74 111 -74 256t45.5 255t129 172t195.5 62t176 -71
t64 -209t-71.5 -274.5t-198.5 -217.5q40 -16 90 -16t111 18v-139q-60 -18 -139 -18zM958 601q0 122 -86 122q-77 0 -126.5 -97.5t-49.5 -228.5t52 -207q94 60 152 174.5t58 236.5z" />
    <glyph glyph-name="uni04AA" unicode="&#x4aa;" horiz-adv-x="1198" 
d="M757 -215q0 -103 -65 -164t-188 -61q-65 0 -109 14l22 107q37 -9 89 -9t84 36t32 118q0 81 -34 158q-186 22 -300 146q-138 150 -138 408q0 260 106 484t283 343q178 118 389 118t362 -80l-69 -141q-137 69 -295 69t-296 -97q-138 -96 -218 -284t-80 -392t98 -316
t252 -111q155 0 338 57v-149q-151 -54 -311 -58q48 -93 48 -196z" />
    <glyph glyph-name="uni04AB" unicode="&#x4ab;" horiz-adv-x="922" 
d="M565 -215q0 -103 -65 -164t-188 -61q-65 0 -109 14l22 107q37 -9 89 -9t84 36t32 120q0 83 -36 162q-115 23 -189 97q-107 107 -107 305t74 366q74 170 204 264t281 94q150 0 281 -51l-47 -141q-119 51 -225 51q-106 -1 -198 -77t-146 -212q-52 -136 -52 -281
q0 -144 66 -215t180 -71q113 0 266 67v-143q-119 -61 -265 -63q48 -92 48 -195z" />
    <glyph glyph-name="uni04AC" unicode="&#x4ac;" horiz-adv-x="1020" 
d="M520 156h154l-113 -537h-160l80 381h-166l277 1311h-406l33 151h985l-30 -151h-408z" />
    <glyph glyph-name="uni04AD" unicode="&#x4ad;" horiz-adv-x="1812" 
d="M1550 189q0 -74 74 -74q37 0 88 20l-110 -514h-172l79 363q-133 36 -133 174q0 48 15 108l92 426q18 93 18 139q0 144 -141 144q-81 0 -203.5 -90t-185.5 -385l-107 -500h-168l148 692q18 94 18 150t-31 94.5t-111 38.5t-203 -93t-189 -407l-101 -475h-168l234 1096h139
l-22 -203h10q163 223 352 223q113 0 174 -65t72 -181h8q169 246 379 246q127 0 196.5 -69.5t69.5 -208.5q0 -42 -22 -166l-88 -404q-11 -44 -11 -79z" />
    <glyph glyph-name="uni04AE" unicode="&#x4ae;" horiz-adv-x="1030" 
d="M537 715l489 747h193l-627 -921l-113 -541h-172l119 549l-238 913h170z" />
    <glyph glyph-name="uni04AF" unicode="&#x4af;" horiz-adv-x="946" 
d="M373 199q51 121 184 356l307 541h178l-628 -1100l-103 -488h-168l103 488l-148 1100h168l68 -535q13 -110 31 -362h8z" />
    <glyph glyph-name="uni04B0" unicode="&#x4b0;" horiz-adv-x="1030" 
d="M537 715l489 747h193l-627 -921l-10 -35h290l-32 -154h-287l-74 -352h-172l76 352h-274l32 154h277l8 43l-238 913h170z" />
    <glyph glyph-name="uni04B1" unicode="&#x4b1;" horiz-adv-x="946" 
d="M373 199q51 121 184 356l307 541h178l-626 -1096h256l-27 -125h-258l-76 -367h-168l76 367h-246l27 125h244l-146 1096h168l68 -535q13 -110 31 -362h8z" />
    <glyph glyph-name="uni04B2" unicode="&#x4b2;" horiz-adv-x="1165" 
d="M897 156h164l-113 -537h-162l82 381h-92l-211 641l-483 -641h-186l596 776l-263 686h172l203 -563l443 563h186l-555 -694z" />
    <glyph glyph-name="uni04B3" unicode="&#x4b3;" horiz-adv-x="1067" 
d="M526 434l-348 -434h-192l473 565l-238 531h168l174 -412l330 412h194l-454 -539l188 -416h150l-113 -520h-162l82 379h-61z" />
    <glyph glyph-name="uni04B4" unicode="&#x4b4;" horiz-adv-x="1591" 
d="M1485 152l-113 -531h-162l80 379h-977l279 1309h-406l31 153h991l-32 -153h-412l-244 -1155h629l276 1308h172l-276 -1310h164z" />
    <glyph glyph-name="uni04B5" unicode="&#x4b5;" horiz-adv-x="1346" 
d="M1085 191q0 -76 72 -76q37 0 88 20l-110 -514h-174l81 363q-63 16 -95 66t-32 151h-8q-92 -120 -180.5 -170.5t-202.5 -50.5t-186 71t-72 203q0 48 21 166l114 530h-311l29 146h792l-30 -146h-310l-118 -549q-19 -85 -19 -133q0 -149 148 -149q89 0 222.5 95t199.5 407
l100 475h168l-176 -826q-11 -44 -11 -79z" />
    <glyph glyph-name="uni04B6" unicode="&#x4b6;" horiz-adv-x="1303" 
d="M578 512q-170 0 -250 72.5t-80 201.5q0 52 16 136l117 540h170l-113 -540q-16 -74 -16 -130t41 -92t133 -36t178.5 15.5t222.5 63.5l150 719h172l-277 -1306h156l-115 -535h-161l79 379h-163l127 600q-217 -88 -387 -88z" />
    <glyph glyph-name="uni04B7" unicode="&#x4b7;" horiz-adv-x="1114" 
d="M326 672q0 -148 149 -148t253 118.5t155 342.5l24 111h168l-203 -955h146l-113 -520h-172l80 379h-143q83 387 100.5 453t38.5 129h-8q-169 -199 -369 -199q-133 0 -204.5 73t-71.5 203q0 38 5.5 75t74.5 362h170l-62 -289q-18 -94 -18 -135z" />
    <glyph glyph-name="uni04B8" unicode="&#x4b8;" horiz-adv-x="1309" 
d="M248 791q0 49 12 108l121 563h170l-119 -565q-10 -45 -10 -103t43.5 -94t144.5 -36l74 346h137l-71 -334q95 14 247 67l150 719h172l-309 -1462h-172l127 600q-148 -58 -246 -76l-66 -307h-135l62 295q-332 0 -332 279z" />
    <glyph glyph-name="uni04B9" unicode="&#x4b9;" horiz-adv-x="1135" 
d="M326 672q0 -146 135 -150l63 291h127l-61 -276q208 74 291 444l24 115h168l-233 -1096h-172l65 309q29 141 74 273h-8q-109 -142 -240 -187l-55 -264h-127l53 252q-128 0 -201 68t-73 206q0 43 7.5 89t72.5 350h170l-62 -291q-18 -90 -18 -133z" />
    <glyph glyph-name="uni04BA" unicode="&#x4ba;" horiz-adv-x="1309" 
d="M827 950q328 0 328 -280q0 -51 -12 -109l-119 -561h-172l121 563q10 45 10 103t-42.5 94.5t-134.5 36.5t-176 -15.5t-222 -64.5l-152 -717h-172l309 1462h172l-125 -602q222 90 387 90z" />
    <glyph glyph-name="uni04BB" unicode="&#x4bb;" horiz-adv-x="1180" 
d="M979 438q0 -60 -23 -164l-57 -274h-170l62 291q18 91 18 135q-1 147 -151 147t-257 -124t-151 -343l-23 -106h-168l234 1096h172q-96 -458 -133 -580h8q167 197 362 197q131 0 204 -71.5t73 -203.5z" />
    <glyph glyph-name="uni04BC" unicode="&#x4bc;" horiz-adv-x="1567" 
d="M1130 1331q-197 0 -348.5 -136.5t-216.5 -377.5h58q511 0 628 103.5t117 207.5q0 204 -238 203zM129 865q0 95 47 161h152q-41 -64 -41 -131q0 -78 75 -78h25q49 199 159 352t261 234.5t337 81.5t297 -89t111 -254t-147 -319.5t-764 -154.5h-104q-7 -54 -7 -113
q0 -203 96 -313.5t273 -110.5q92 0 178.5 17.5t239.5 78.5v-159q-123 -50 -224 -69t-223 -19q-243 0 -380.5 149.5t-137.5 411.5q0 63 10 127q-111 0 -172 51t-61 146z" />
    <glyph glyph-name="uni04BD" unicode="&#x4bd;" horiz-adv-x="1214" 
d="M838 973q-103 0 -195 -94.5t-139 -260.5h14q232 0 351.5 60.5t119.5 171.5q0 59 -42.5 91t-108.5 32zM238 694q0 -73 77 -73h19q58 221 196 358t302 137q322 0 323 -252q0 -117 -115.5 -251t-523.5 -134h-35l-4 -80q0 -136 64 -207t188 -71q75 0 146.5 24.5t148.5 59.5
v-146q-170 -79 -340 -79t-274.5 109t-104.5 302q0 57 4 88q-229 4 -229 195q0 39 14 82t33 65h152q-41 -60 -41 -127z" />
    <glyph glyph-name="uni04BE" unicode="&#x4be;" horiz-adv-x="1567" 
d="M1130 1331q-197 0 -348.5 -136.5t-216.5 -377.5h58q511 0 628 103.5t117 207.5q0 204 -238 203zM129 865q0 95 47 161h152q-41 -64 -41 -131q0 -78 75 -78h25q49 199 159 352t261 234.5t337 81.5t297 -88.5t111 -256.5t-151.5 -320t-798.5 -152h-65q-7 -54 -7 -113
q0 -203 96 -313.5t273 -110.5q92 0 178.5 17.5t239.5 78.5v-159q-210 -82 -381 -86l-74 -361h-170l76 367q-200 30 -308 177.5t-108 375.5q0 63 10 127q-111 0 -172 51t-61 146z" />
    <glyph glyph-name="uni04BF" unicode="&#x4bf;" horiz-adv-x="1214" 
d="M838 973q-103 0 -195 -94.5t-139 -260.5h14q232 0 351.5 60.5t119.5 171.5q0 59 -42.5 91t-108.5 32zM238 694q0 -73 77 -73h19q58 221 196 358t302 137q322 0 323 -252q0 -117 -115.5 -251t-523.5 -134h-35l-4 -80q0 -136 64 -207t188 -71q75 0 146.5 24.5t148.5 59.5
v-146q-142 -68 -279 -77l-71 -361h-172l73 373q-131 34 -200.5 137.5t-69.5 259.5q0 57 4 88q-229 4 -229 195q0 39 14 82t33 65h152q-41 -60 -41 -127z" />
    <glyph glyph-name="uni04C0" unicode="&#x4c0;" horiz-adv-x="559" 
d="M86 0l311 1462h168l-311 -1462h-168z" />
    <glyph glyph-name="uni04C1" unicode="&#x4c1;" horiz-adv-x="1589" 
d="M584 768l-365 694h187l360 -698l147 698h166l-147 -698l637 698h207l-674 -735l375 -727h-191l-362 731l-154 -731h-166l154 731l-649 -731h-209zM1022 1579q-316 0 -316 242q0 32 10 69h146q-6 -34 -6 -59q0 -127 174 -127q112 0 168 44t75 142h162q-57 -311 -413 -311z
" />
    <glyph glyph-name="uni04C2" unicode="&#x4c2;" horiz-adv-x="1708" 
d="M1262 403q0 -284 198 -284q57 0 115 16v-139q-83 -16 -135 -16q-172 0 -261 108t-89 313q0 56 4 88h-170l-103 -489h-151l104 489h-162q-68 -314 -285 -445q-106 -64 -239 -64q-67 0 -123 16l25 139q53 -16 100 -16q104 0 190 77t136 213t49 278q0 142 -52 215t-151 73
q-49 0 -112 -14v137q87 18 137 18q170 0 260 -108t90 -314l-4 -76h168l100 478h154l-105 -478h164q30 147 106 265q151 233 406 233q79 0 141 -18l-30 -137q-54 14 -109 14q-104 0 -186 -75q-82 -74 -131 -212t-49 -285zM996 1241q-316 0 -316 242q0 32 10 69h146
q-6 -34 -6 -59q0 -127 174 -127q112 0 168 44t75 142h162q-57 -311 -413 -311z" />
    <glyph glyph-name="uni04C3" unicode="&#x4c3;" horiz-adv-x="1288" 
d="M1118 258q0 -236 -81 -409t-231 -267t-324 -94t-285 47v156q123 -53 257 -53t246 75.5t175 218t63 324.5t-93.5 279.5t-269.5 97.5q-104 0 -192 -31l-127 -602h-170l309 1462h170l-151 -712l704 712h211l-692 -680q233 -15 357 -151.5t124 -372.5z" />
    <glyph glyph-name="uni04C4" unicode="&#x4c4;" horiz-adv-x="1053" 
d="M358 -354q177 0 279 144.5t102 391.5q0 142 -70.5 224.5t-189.5 82.5q-81 0 -155 -24l-97 -465h-168l232 1096h166l-111 -521l516 521h197l-490 -486q166 -25 254 -135.5t88 -302.5t-64 -347t-184 -241t-264 -86t-235 51v158q102 -61 194 -61z" />
    <glyph glyph-name="uni04C5" unicode="&#x4c5;" horiz-adv-x="1331" 
d="M59 -23q-76 0 -125 23v150q52 -21 119 -21t119.5 44t122 197.5t321.5 1091.5h713l-278 -1310h170l-246 -531h-201l240 379h-168l278 1309h-383q-205 -800 -292.5 -1001.5t-174.5 -266t-215 -64.5z" />
    <glyph glyph-name="uni04C6" unicode="&#x4c6;" horiz-adv-x="1098" 
d="M743 963q-58 0 -106 -30.5t-88.5 -106.5t-124.5 -314t-142 -337.5t-128 -144t-170 -44.5q-47 0 -78 14v145q28 -10 80 -10t97 38t88 123.5t119 307.5t137 317.5t144 139t212 43.5t249 -31l-198 -928h163l-229 -524h-166l199 379h-168l207 954q-39 9 -97 9z" />
    <glyph glyph-name="uni04C7" unicode="&#x4c7;" horiz-adv-x="1389" 
d="M459 -512q-148 0 -264 49v164q125 -53 260 -53q212 0 323.5 112t167.5 377l115 551h-660l-145 -688h-170l309 1462h170l-131 -622h660l133 622h168l-285 -1353q-68 -323 -225 -472t-426 -149z" />
    <glyph glyph-name="uni04C8" unicode="&#x4c8;" horiz-adv-x="1227" 
d="M455 -502q-121 0 -217 49v162q90 -63 216 -63t199.5 92.5t120.5 320.5l92 435h-534l-105 -494h-168l234 1096h166l-97 -459h535l98 459h168l-225 -1063q-63 -292 -174.5 -413.5t-308.5 -121.5z" />
    <glyph glyph-name="uni04C9" unicode="&#x4c9;" horiz-adv-x="1401" 
d="M1118 154h176l-247 -535h-201l239 381h-167l143 688h-660l-145 -688h-170l309 1462h170l-131 -622h660l133 622h168z" />
    <glyph glyph-name="uni04CA" unicode="&#x4ca;" horiz-adv-x="1227" 
d="M459 1096l-97 -459h535l98 459h168l-200 -951h163l-227 -524h-168l199 379h-168l104 494h-534l-105 -494h-168l234 1096h166z" />
    <glyph glyph-name="uni04CB" unicode="&#x4cb;" horiz-adv-x="1309" 
d="M575 512q-327 0 -327 279q0 49 12 108l121 563h170l-119 -565q-10 -46 -10 -103t41 -93.5t133 -36.5q179 0 399 79l152 719h172l-309 -1462h-164l-82 -379h-160l113 535h153l95 444q-217 -88 -390 -88z" />
    <glyph glyph-name="uni04CC" unicode="&#x4cc;" horiz-adv-x="1184" 
d="M373 672q0 -148 150 -148t256.5 121t152.5 344l22 107h166l-231 -1096h-137l-82 -379h-170l108 520h140q47 230 63.5 293t42.5 133h-10q-147 -184 -363 -184q-135 0 -206.5 71.5t-71.5 204.5q0 42 7.5 85t72.5 352h170l-62 -289q-18 -94 -18 -135z" />
    <glyph glyph-name="uni04CD" unicode="&#x4cd;" horiz-adv-x="1724" 
d="M676 0l-166 1296h-8q-16 -167 -66 -397l-190 -899h-162l309 1462h244l149 -1204h9l659 1204h266l-272 -1310h172l-246 -531h-200l239 379h-170q126 590 193 905.5t94 392.5h-6l-717 -1298h-131z" />
    <glyph glyph-name="uni04CE" unicode="&#x4ce;" horiz-adv-x="1411" 
d="M1157 881q-16 -35 -117 -205l-391 -676h-123l-110 678q-19 113 -23 201l-186 -879h-146l232 1096h186l115 -725q20 -142 24 -207q34 77 121 225l412 707h199l-203 -953h164l-226 -520h-170l199 377h-145z" />
    <glyph glyph-name="uni04CF" unicode="&#x4cf;" horiz-adv-x="559" 
d="M86 0l311 1462h168l-311 -1462h-168z" />
    <glyph glyph-name="uni04D0" unicode="&#x4d0;" horiz-adv-x="1137" 
d="M795 621l-35 299q-24 179 -29 350q-37 -88 -81 -175t-249 -474h394zM813 465h-496l-245 -465h-189l799 1462h174l184 -1462h-170zM791 1579q-316 0 -316 242q0 32 10 69h146q-6 -34 -6 -59q0 -127 174 -127q113 0 169 44t74 142h162q-57 -311 -413 -311z" />
    <glyph glyph-name="uni04D1" unicode="&#x4d1;" horiz-adv-x="1157" 
d="M270 346q0 -227 185 -227q91 1 187 93t156 240t60 275q0 126 -56 187t-154 61t-186 -86q-90 -86 -141 -233t-51 -310zM639 1116q92 0 164 -50t112 -142h11l67 172h127l-233 -1096h-133l26 209h-8q-179 -229 -377 -229q-139 0 -218 99t-79 289t71 368t196 279t274 101z
M744 1241q-316 0 -316 242q0 32 10 69h146q-6 -34 -6 -59q0 -127 174 -127q112 0 168 44t75 142h162q-57 -311 -413 -311z" />
    <glyph glyph-name="uni04D2" unicode="&#x4d2;" horiz-adv-x="1137" 
d="M795 621l-35 299q-24 179 -29 350q-37 -88 -81 -175t-249 -474h394zM813 465h-496l-245 -465h-189l799 1462h174l184 -1462h-170zM887 1719q0 43 28 77t75 33q77 0 77 -80q1 -49 -29 -83t-67 -34t-61 22t-23 65zM523 1719q0 43 28 77t74 33q78 0 78 -80q1 -49 -29 -83
t-67 -34t-61 22t-23 65z" />
    <glyph glyph-name="uni04D3" unicode="&#x4d3;" horiz-adv-x="1157" 
d="M270 346q0 -227 185 -227q91 1 187 93t156 240t60 275q0 126 -56 187t-154 61t-186 -86q-90 -86 -141 -233t-51 -310zM639 1116q92 0 164 -50t112 -142h11l67 172h127l-233 -1096h-133l26 209h-8q-179 -229 -377 -229q-139 0 -218 99t-79 289t71 368t196 279t274 101z
M818 1381q0 43 28 77t75 33q77 0 77 -80q0 -49 -30 -83t-66 -34t-60 22t-24 65zM454 1381q0 43 28 77t74 33q78 0 78 -80q0 -49 -30 -83t-66 -34t-60 22t-24 65z" />
    <glyph glyph-name="uni04D4" unicode="&#x4d4;" horiz-adv-x="1673" 
d="M840 621l147 688h-84l-434 -688h371zM1448 0h-737l98 465h-438l-293 -465h-197l938 1462h938l-33 -153h-565l-100 -469h528l-28 -150h-529l-115 -538h566z" />
    <glyph glyph-name="uni04D5" unicode="&#x4d5;" horiz-adv-x="1669" 
d="M1325 973q-117 -1 -211 -95t-141 -260h14q227 0 349 58t122 170q0 61 -35 94t-98 33zM813 726q0 248 -179 249q-88 -1 -176 -87t-138 -231t-50 -284t37 -197t119 -57q82 -1 174 91q94 92 154 241t59 275zM623 1116q168 0 247 -192h11l67 172h109l-31 -146
q123 166 332 166q118 0 192 -68t74 -184q0 -182 -166 -284t-473 -101h-39l-4 -80q0 -131 62 -205t194 -73q54 1 116 17t179 67v-150q-164 -75 -328 -75q-232 0 -311 159l-31 -139h-114l26 209h-8q-109 -133 -191 -181t-192 -48q-108 0 -177 99t-69 287t70 367t192 281
q121 102 263 102z" />
    <glyph glyph-name="uni04D6" unicode="&#x4d6;" horiz-adv-x="1047" 
d="M821 0h-735l309 1462h735l-32 -153h-566l-98 -469h527l-29 -152h-529l-114 -536h565zM779 1579q-316 0 -316 242q0 32 10 69h146q-6 -34 -6 -59q0 -127 174 -127q113 0 169 44t74 142h162q-57 -311 -413 -311z" />
    </font>
</defs>
</svg>
